{"glyphs":{"0":{"ha":921,"x_min":75,"x_max":845,"o":"m 460 -44 q 267 51 355 -44 q 127 314 179 145 q 75 698 75 484 q 127 1079 75 911 q 267 1342 179 1248 q 460 1437 355 1437 q 654 1342 565 1437 q 794 1079 742 1248 q 845 698 845 911 q 794 314 845 484 q 654 51 742 145 q 460 -44 565 -44 m 460 50 q 571 132 520 50 q 654 361 623 214 q 685 692 685 508 q 654 1028 685 879 q 571 1260 623 1177 q 460 1343 520 1343 q 349 1260 401 1343 q 267 1028 298 1177 q 236 692 236 879 q 267 361 236 508 q 349 132 298 214 q 460 50 401 50 z "},"1":{"ha":587,"x_min":123,"x_max":468,"o":"m 123 0 l 123 87 l 167 87 q 207 104 190 87 q 224 143 224 121 l 224 1109 q 209 1144 224 1129 q 175 1159 194 1159 l 125 1159 l 125 1236 l 141 1236 q 248 1298 204 1236 q 292 1438 292 1359 l 292 1450 l 369 1450 l 369 143 q 386 104 369 121 q 427 87 403 87 l 468 87 l 468 0 l 123 0 z "},"2":{"ha":863,"x_min":83,"x_max":744,"o":"m 83 0 q 411 620 292 369 q 552 1063 530 871 q 556 1131 556 1107 q 523 1287 556 1226 q 419 1347 490 1347 q 332 1320 375 1347 q 262 1239 290 1294 q 234 1105 234 1185 l 234 1081 l 139 1081 l 139 1444 l 216 1444 q 234 1410 216 1423 q 276 1403 252 1397 q 315 1417 298 1409 q 385 1438 355 1431 q 462 1444 415 1444 q 653 1365 573 1444 q 732 1133 732 1286 q 718 1010 732 1089 q 547 593 687 845 q 278 143 407 341 l 575 143 q 638 168 617 143 q 661 256 659 192 l 744 256 l 744 0 l 83 0 z "},"3":{"ha":863,"x_min":89,"x_max":772,"o":"m 385 -48 q 181 17 246 -48 q 89 147 115 81 l 167 202 q 253 95 196 139 q 395 50 310 52 q 489 87 438 50 q 575 210 540 125 q 611 431 611 296 q 533 739 611 623 q 325 855 454 855 q 272 808 272 855 l 272 792 l 187 792 l 187 1024 l 272 1024 l 272 1010 q 288 958 272 972 q 339 944 304 944 q 457 1005 409 944 q 506 1159 506 1065 q 474 1277 506 1222 q 377 1331 442 1331 q 264 1281 302 1331 q 226 1145 226 1230 l 139 1145 l 139 1429 l 214 1429 q 225 1403 214 1413 q 250 1393 236 1393 q 266 1397 262 1393 q 336 1429 308 1419 q 403 1438 365 1438 q 522 1410 462 1438 q 621 1319 581 1381 q 661 1165 661 1258 q 625 1022 661 1079 q 544 937 589 964 q 468 905 498 909 q 582 853 512 899 q 712 707 653 808 q 772 448 772 607 q 722 184 772 296 q 585 12 673 71 q 385 -48 498 -48 z "},"4":{"ha":968,"x_min":60,"x_max":889,"o":"m 462 0 l 462 87 l 482 87 q 549 105 530 87 q 567 171 567 123 l 567 367 l 60 367 l 60 375 l 720 1466 l 726 1466 l 726 460 l 748 460 q 797 482 786 460 q 808 554 808 504 l 808 567 l 889 567 l 889 260 l 808 260 l 808 274 q 797 345 808 323 q 748 367 786 367 l 726 367 l 726 171 q 749 106 726 125 q 819 87 772 87 l 841 87 l 841 0 l 462 0 m 567 1018 l 224 460 l 567 460 l 567 1018 z "},"5":{"ha":855,"x_min":99,"x_max":756,"o":"m 397 -48 q 223 -4 304 -48 q 99 117 143 40 l 165 173 q 347 52 246 52 q 539 166 488 52 q 589 458 589 280 q 546 777 589 665 q 413 889 502 889 q 313 849 359 889 q 246 730 268 810 l 155 750 l 155 1389 l 730 1389 l 730 1103 l 643 1103 l 643 1173 q 625 1231 643 1216 q 556 1246 607 1246 l 260 1246 l 260 915 q 338 971 294 950 q 431 992 383 992 q 585 941 512 992 q 707 770 659 891 q 756 450 756 649 q 705 170 756 282 q 573 5 655 58 q 397 -48 492 -48 z "},"6":{"ha":841,"x_min":69,"x_max":766,"o":"m 446 960 q 605 905 532 960 q 722 740 679 849 q 766 478 766 631 q 721 196 766 315 q 600 15 677 77 q 431 -48 524 -48 q 308 -8 369 -48 q 131 221 192 63 q 69 619 69 379 q 89 909 69 758 q 181 1199 111 1077 q 342 1384 250 1321 q 524 1446 435 1446 q 655 1401 599 1446 l 603 1321 q 530 1333 565 1333 q 379 1264 444 1333 q 278 1084 313 1194 q 236 857 242 974 q 336 934 282 907 q 446 960 391 960 m 433 58 q 567 159 514 58 q 621 446 621 260 q 568 738 621 619 q 423 857 516 857 q 315 804 361 857 q 248 661 270 750 q 232 470 226 571 q 268 257 238 351 q 341 110 298 163 q 433 58 385 58 z "},"7":{"ha":758,"x_min":60,"x_max":688,"o":"m 244 0 q 204 248 204 111 q 286 692 204 442 q 544 1234 385 982 l 206 1234 q 164 1217 181 1234 q 147 1177 147 1200 l 147 1133 l 60 1133 l 60 1389 l 688 1389 l 688 1312 q 544 1044 615 1196 q 410 667 460 857 q 359 313 359 476 q 361 246 359 268 q 478 87 371 87 l 498 87 l 498 0 l 244 0 z "},"8":{"ha":901,"x_min":89,"x_max":812,"o":"m 569 881 q 740 676 669 810 q 812 393 812 542 q 810 341 812 359 q 694 57 792 155 q 460 -42 597 -42 q 209 58 304 -42 q 95 315 115 157 q 89 405 89 361 q 157 668 89 552 q 343 863 224 784 q 223 977 280 909 q 159 1127 167 1046 q 157 1159 157 1137 q 199 1306 157 1242 q 310 1404 242 1369 q 448 1438 377 1438 q 576 1406 514 1438 q 680 1309 639 1373 q 720 1155 720 1244 q 679 994 720 1058 q 569 881 637 931 m 302 1179 q 344 1063 302 1115 q 482 948 387 1012 q 578 1036 542 980 q 615 1165 615 1091 q 569 1287 615 1234 q 460 1339 524 1339 q 349 1298 397 1339 q 302 1179 302 1256 m 667 264 q 677 369 677 327 q 606 619 677 520 q 437 798 536 718 q 263 639 329 728 q 196 393 196 550 q 269 150 196 242 q 450 58 341 58 q 591 118 532 58 q 667 264 651 179 z "},"9":{"ha":843,"x_min":75,"x_max":772,"o":"m 534 1401 q 710 1172 649 1329 q 772 774 772 1014 q 752 484 772 635 q 661 193 730 315 q 499 9 591 71 q 317 -54 407 -54 q 187 -8 242 -54 l 238 71 q 312 60 278 60 q 462 129 397 60 q 563 309 528 198 q 605 536 599 419 q 505 459 560 486 q 395 433 450 433 q 236 488 310 433 q 119 653 163 544 q 75 915 75 762 q 120 1196 75 1077 q 241 1378 165 1315 q 411 1440 317 1440 q 534 1401 472 1440 m 419 536 q 526 589 480 536 q 593 732 571 643 q 609 923 615 821 q 573 1136 603 1042 q 500 1283 544 1230 q 409 1335 456 1335 q 274 1234 327 1335 q 220 946 220 1133 q 273 655 220 774 q 419 536 325 536 z "}," ":{"ha":706,"x_min":0,"x_max":0,"o":""},"A":{"ha":1109,"x_min":69,"x_max":1040,"o":"m 1040 87 l 1040 0 l 720 0 l 720 87 l 746 87 q 784 129 784 87 q 780 157 784 137 l 720 349 l 337 349 l 286 159 q 284 139 284 153 q 296 101 284 115 q 331 87 308 87 l 361 87 l 361 0 l 69 0 l 69 87 l 83 87 q 142 104 115 87 q 177 151 169 121 l 534 1429 l 542 1429 l 929 171 q 969 109 942 131 q 1028 87 996 87 l 1040 87 m 520 1010 l 369 458 l 688 458 l 520 1010 z "},"Á":{"ha":1109,"x_min":69,"x_max":1040,"o":"m 1040 87 l 1040 0 l 720 0 l 720 87 l 746 87 q 784 129 784 87 q 780 157 784 137 l 720 349 l 337 349 l 286 159 q 284 139 284 153 q 296 101 284 115 q 331 87 308 87 l 361 87 l 361 0 l 69 0 l 69 87 l 83 87 q 142 104 115 87 q 177 151 169 121 l 534 1429 l 542 1429 l 929 171 q 969 109 942 131 q 1028 87 996 87 l 1040 87 m 520 1010 l 369 458 l 688 458 l 520 1010 m 677 1637 l 433 1494 l 397 1544 l 615 1720 l 677 1637 z "},"Ă":{"ha":1109,"x_min":69,"x_max":1040,"o":"m 1040 87 l 1040 0 l 720 0 l 720 87 l 746 87 q 784 129 784 87 q 780 157 784 137 l 720 349 l 337 349 l 286 159 q 284 139 284 153 q 296 101 284 115 q 331 87 308 87 l 361 87 l 361 0 l 69 0 l 69 87 l 83 87 q 142 104 115 87 q 177 151 169 121 l 534 1429 l 542 1429 l 929 171 q 969 109 942 131 q 1028 87 996 87 l 1040 87 m 520 1010 l 369 458 l 688 458 l 520 1010 m 538 1494 q 423 1530 478 1494 q 349 1615 367 1565 l 379 1659 q 538 1595 435 1595 q 696 1659 643 1595 l 726 1615 q 650 1529 704 1563 q 538 1494 595 1494 z "},"Ắ":{"ha":1109,"x_min":69,"x_max":1040,"o":"m 1040 87 l 1040 0 l 720 0 l 720 87 l 746 87 q 784 129 784 87 q 780 157 784 137 l 720 349 l 337 349 l 286 159 q 284 139 284 153 q 296 101 284 115 q 331 87 308 87 l 361 87 l 361 0 l 69 0 l 69 87 l 83 87 q 142 104 115 87 q 177 151 169 121 l 534 1429 l 542 1429 l 929 171 q 969 109 942 131 q 1028 87 996 87 l 1040 87 m 520 1010 l 369 458 l 688 458 l 520 1010 z "},"Ặ":{"ha":1109,"x_min":69,"x_max":1040,"o":"m 1040 87 l 1040 0 l 720 0 l 720 87 l 746 87 q 784 129 784 87 q 780 157 784 137 l 720 349 l 337 349 l 286 159 q 284 139 284 153 q 296 101 284 115 q 331 87 308 87 l 361 87 l 361 0 l 69 0 l 69 87 l 83 87 q 142 104 115 87 q 177 151 169 121 l 534 1429 l 542 1429 l 929 171 q 969 109 942 131 q 1028 87 996 87 l 1040 87 m 520 1010 l 369 458 l 688 458 l 520 1010 m 538 -248 q 480 -223 504 -248 q 456 -165 456 -198 q 480 -108 456 -133 q 538 -83 504 -83 q 594 -108 569 -83 q 619 -165 619 -133 q 595 -223 619 -198 q 538 -248 571 -248 m 538 1494 q 423 1530 478 1494 q 349 1615 367 1565 l 379 1659 q 538 1595 435 1595 q 696 1659 643 1595 l 726 1615 q 650 1529 704 1563 q 538 1494 595 1494 z "},"Ằ":{"ha":1109,"x_min":69,"x_max":1040,"o":"m 1040 87 l 1040 0 l 720 0 l 720 87 l 746 87 q 784 129 784 87 q 780 157 784 137 l 720 349 l 337 349 l 286 159 q 284 139 284 153 q 296 101 284 115 q 331 87 308 87 l 361 87 l 361 0 l 69 0 l 69 87 l 83 87 q 142 104 115 87 q 177 151 169 121 l 534 1429 l 542 1429 l 929 171 q 969 109 942 131 q 1028 87 996 87 l 1040 87 m 520 1010 l 369 458 l 688 458 l 520 1010 z "},"Ẳ":{"ha":1109,"x_min":69,"x_max":1040,"o":"m 1040 87 l 1040 0 l 720 0 l 720 87 l 746 87 q 784 129 784 87 q 780 157 784 137 l 720 349 l 337 349 l 286 159 q 284 139 284 153 q 296 101 284 115 q 331 87 308 87 l 361 87 l 361 0 l 69 0 l 69 87 l 83 87 q 142 104 115 87 q 177 151 169 121 l 534 1429 l 542 1429 l 929 171 q 969 109 942 131 q 1028 87 996 87 l 1040 87 m 520 1010 l 369 458 l 688 458 l 520 1010 z "},"Ẵ":{"ha":1109,"x_min":69,"x_max":1040,"o":"m 1040 87 l 1040 0 l 720 0 l 720 87 l 746 87 q 784 129 784 87 q 780 157 784 137 l 720 349 l 337 349 l 286 159 q 284 139 284 153 q 296 101 284 115 q 331 87 308 87 l 361 87 l 361 0 l 69 0 l 69 87 l 83 87 q 142 104 115 87 q 177 151 169 121 l 534 1429 l 542 1429 l 929 171 q 969 109 942 131 q 1028 87 996 87 l 1040 87 m 520 1010 l 369 458 l 688 458 l 520 1010 z "},"Ǎ":{"ha":1109,"x_min":69,"x_max":1040,"o":"m 1040 87 l 1040 0 l 720 0 l 720 87 l 746 87 q 784 129 784 87 q 780 157 784 137 l 720 349 l 337 349 l 286 159 q 284 139 284 153 q 296 101 284 115 q 331 87 308 87 l 361 87 l 361 0 l 69 0 l 69 87 l 83 87 q 142 104 115 87 q 177 151 169 121 l 534 1429 l 542 1429 l 929 171 q 969 109 942 131 q 1028 87 996 87 l 1040 87 m 520 1010 l 369 458 l 688 458 l 520 1010 m 538 1605 l 736 1667 l 736 1603 l 538 1494 l 337 1603 l 337 1667 l 538 1605 z "},"Â":{"ha":1109,"x_min":69,"x_max":1040,"o":"m 1040 87 l 1040 0 l 720 0 l 720 87 l 746 87 q 784 129 784 87 q 780 157 784 137 l 720 349 l 337 349 l 286 159 q 284 139 284 153 q 296 101 284 115 q 331 87 308 87 l 361 87 l 361 0 l 69 0 l 69 87 l 83 87 q 142 104 115 87 q 177 151 169 121 l 534 1429 l 542 1429 l 929 171 q 969 109 942 131 q 1028 87 996 87 l 1040 87 m 520 1010 l 369 458 l 688 458 l 520 1010 m 538 1558 l 339 1496 l 339 1560 l 538 1669 l 738 1560 l 738 1496 l 538 1558 z "},"Ấ":{"ha":1109,"x_min":69,"x_max":1040,"o":"m 1040 87 l 1040 0 l 720 0 l 720 87 l 746 87 q 784 129 784 87 q 780 157 784 137 l 720 349 l 337 349 l 286 159 q 284 139 284 153 q 296 101 284 115 q 331 87 308 87 l 361 87 l 361 0 l 69 0 l 69 87 l 83 87 q 142 104 115 87 q 177 151 169 121 l 534 1429 l 542 1429 l 929 171 q 969 109 942 131 q 1028 87 996 87 l 1040 87 m 520 1010 l 369 458 l 688 458 l 520 1010 z "},"Ậ":{"ha":1109,"x_min":69,"x_max":1040,"o":"m 1040 87 l 1040 0 l 720 0 l 720 87 l 746 87 q 784 129 784 87 q 780 157 784 137 l 720 349 l 337 349 l 286 159 q 284 139 284 153 q 296 101 284 115 q 331 87 308 87 l 361 87 l 361 0 l 69 0 l 69 87 l 83 87 q 142 104 115 87 q 177 151 169 121 l 534 1429 l 542 1429 l 929 171 q 969 109 942 131 q 1028 87 996 87 l 1040 87 m 520 1010 l 369 458 l 688 458 l 520 1010 m 538 -248 q 480 -223 504 -248 q 456 -165 456 -198 q 480 -108 456 -133 q 538 -83 504 -83 q 594 -108 569 -83 q 619 -165 619 -133 q 595 -223 619 -198 q 538 -248 571 -248 m 538 1558 l 339 1496 l 339 1560 l 538 1669 l 738 1560 l 738 1496 l 538 1558 z "},"Ầ":{"ha":1109,"x_min":69,"x_max":1040,"o":"m 1040 87 l 1040 0 l 720 0 l 720 87 l 746 87 q 784 129 784 87 q 780 157 784 137 l 720 349 l 337 349 l 286 159 q 284 139 284 153 q 296 101 284 115 q 331 87 308 87 l 361 87 l 361 0 l 69 0 l 69 87 l 83 87 q 142 104 115 87 q 177 151 169 121 l 534 1429 l 542 1429 l 929 171 q 969 109 942 131 q 1028 87 996 87 l 1040 87 m 520 1010 l 369 458 l 688 458 l 520 1010 z "},"Ẩ":{"ha":1109,"x_min":69,"x_max":1040,"o":"m 1040 87 l 1040 0 l 720 0 l 720 87 l 746 87 q 784 129 784 87 q 780 157 784 137 l 720 349 l 337 349 l 286 159 q 284 139 284 153 q 296 101 284 115 q 331 87 308 87 l 361 87 l 361 0 l 69 0 l 69 87 l 83 87 q 142 104 115 87 q 177 151 169 121 l 534 1429 l 542 1429 l 929 171 q 969 109 942 131 q 1028 87 996 87 l 1040 87 m 520 1010 l 369 458 l 688 458 l 520 1010 z "},"Ẫ":{"ha":1109,"x_min":69,"x_max":1040,"o":"m 1040 87 l 1040 0 l 720 0 l 720 87 l 746 87 q 784 129 784 87 q 780 157 784 137 l 720 349 l 337 349 l 286 159 q 284 139 284 153 q 296 101 284 115 q 331 87 308 87 l 361 87 l 361 0 l 69 0 l 69 87 l 83 87 q 142 104 115 87 q 177 151 169 121 l 534 1429 l 542 1429 l 929 171 q 969 109 942 131 q 1028 87 996 87 l 1040 87 m 520 1010 l 369 458 l 688 458 l 520 1010 z "},"Ä":{"ha":1109,"x_min":69,"x_max":1040,"o":"m 1040 87 l 1040 0 l 720 0 l 720 87 l 746 87 q 784 129 784 87 q 780 157 784 137 l 720 349 l 337 349 l 286 159 q 284 139 284 153 q 296 101 284 115 q 331 87 308 87 l 361 87 l 361 0 l 69 0 l 69 87 l 83 87 q 142 104 115 87 q 177 151 169 121 l 534 1429 l 542 1429 l 929 171 q 969 109 942 131 q 1028 87 996 87 l 1040 87 m 520 1010 l 369 458 l 688 458 l 520 1010 m 397 1506 q 339 1531 363 1506 q 315 1589 315 1556 q 339 1647 315 1623 q 397 1671 363 1671 q 453 1647 429 1671 q 478 1589 478 1623 q 454 1531 478 1556 q 397 1506 431 1506 m 681 1506 q 623 1531 647 1506 q 599 1589 599 1556 q 623 1647 599 1623 q 681 1671 647 1671 q 737 1647 712 1671 q 762 1589 762 1623 q 738 1531 762 1556 q 681 1506 714 1506 z "},"Ạ":{"ha":1109,"x_min":69,"x_max":1040,"o":"m 1040 87 l 1040 0 l 720 0 l 720 87 l 746 87 q 784 129 784 87 q 780 157 784 137 l 720 349 l 337 349 l 286 159 q 284 139 284 153 q 296 101 284 115 q 331 87 308 87 l 361 87 l 361 0 l 69 0 l 69 87 l 83 87 q 142 104 115 87 q 177 151 169 121 l 534 1429 l 542 1429 l 929 171 q 969 109 942 131 q 1028 87 996 87 l 1040 87 m 520 1010 l 369 458 l 688 458 l 520 1010 m 538 -248 q 480 -223 504 -248 q 456 -165 456 -198 q 480 -108 456 -133 q 538 -83 504 -83 q 594 -108 569 -83 q 619 -165 619 -133 q 595 -223 619 -198 q 538 -248 571 -248 z "},"À":{"ha":1109,"x_min":69,"x_max":1040,"o":"m 1040 87 l 1040 0 l 720 0 l 720 87 l 746 87 q 784 129 784 87 q 780 157 784 137 l 720 349 l 337 349 l 286 159 q 284 139 284 153 q 296 101 284 115 q 331 87 308 87 l 361 87 l 361 0 l 69 0 l 69 87 l 83 87 q 142 104 115 87 q 177 151 169 121 l 534 1429 l 542 1429 l 929 171 q 969 109 942 131 q 1028 87 996 87 l 1040 87 m 520 1010 l 369 458 l 688 458 l 520 1010 m 677 1544 l 641 1494 l 397 1637 l 458 1720 l 677 1544 z "},"Ả":{"ha":1109,"x_min":69,"x_max":1040,"o":"m 1040 87 l 1040 0 l 720 0 l 720 87 l 746 87 q 784 129 784 87 q 780 157 784 137 l 720 349 l 337 349 l 286 159 q 284 139 284 153 q 296 101 284 115 q 331 87 308 87 l 361 87 l 361 0 l 69 0 l 69 87 l 83 87 q 142 104 115 87 q 177 151 169 121 l 534 1429 l 542 1429 l 929 171 q 969 109 942 131 q 1028 87 996 87 l 1040 87 m 520 1010 l 369 458 l 688 458 l 520 1010 m 510 1492 q 528 1546 514 1526 q 563 1585 542 1565 q 588 1612 579 1599 q 597 1643 597 1625 q 579 1688 597 1673 q 536 1704 562 1704 q 474 1677 496 1704 l 442 1728 q 495 1766 464 1752 q 558 1780 526 1780 q 647 1744 611 1780 q 679 1667 679 1712 q 660 1599 679 1633 q 607 1542 641 1565 q 578 1519 589 1530 q 565 1492 567 1508 l 510 1492 z "},"Ā":{"ha":1109,"x_min":69,"x_max":1040,"o":"m 1040 87 l 1040 0 l 720 0 l 720 87 l 746 87 q 784 129 784 87 q 780 157 784 137 l 720 349 l 337 349 l 286 159 q 284 139 284 153 q 296 101 284 115 q 331 87 308 87 l 361 87 l 361 0 l 69 0 l 69 87 l 83 87 q 142 104 115 87 q 177 151 169 121 l 534 1429 l 542 1429 l 929 171 q 969 109 942 131 q 1028 87 996 87 l 1040 87 m 520 1010 l 369 458 l 688 458 l 520 1010 m 722 1544 l 355 1544 l 355 1635 l 722 1635 l 722 1544 z "},"Ą":{"ha":1109,"x_min":69,"x_max":1040,"o":"m 907 0 q 838 -51 867 -18 q 810 -123 810 -83 q 827 -173 810 -155 q 875 -190 845 -190 q 937 -173 905 -190 l 960 -204 q 851 -260 917 -260 q 764 -228 800 -260 q 728 -143 728 -196 q 757 -54 728 -89 q 823 0 786 -18 l 720 0 l 720 87 l 746 87 q 784 129 784 87 q 780 157 784 137 l 720 349 l 337 349 l 286 159 q 284 139 284 153 q 296 101 284 115 q 331 87 308 87 l 361 87 l 361 0 l 69 0 l 69 87 l 83 87 q 142 104 115 87 q 177 151 169 121 l 534 1429 l 542 1429 l 929 171 q 969 109 942 131 q 1028 87 996 87 l 1040 87 l 1040 0 l 907 0 m 520 1010 l 369 458 l 688 458 l 520 1010 z "},"Å":{"ha":1109,"x_min":69,"x_max":1040,"o":"m 1040 87 l 1040 0 l 720 0 l 720 87 l 746 87 q 784 129 784 87 q 780 157 784 137 l 720 349 l 337 349 l 286 159 q 284 139 284 153 q 296 101 284 115 q 331 87 308 87 l 361 87 l 361 0 l 69 0 l 69 87 l 83 87 q 142 104 115 87 q 177 151 169 121 l 514 1357 q 412 1416 454 1367 q 369 1524 369 1464 q 421 1641 369 1591 q 538 1690 472 1690 q 653 1639 601 1690 q 704 1524 704 1587 q 663 1415 704 1462 q 563 1357 621 1367 l 929 171 q 969 109 942 131 q 1028 87 996 87 l 1040 87 m 446 1528 q 471 1460 446 1488 q 534 1433 496 1433 q 599 1457 571 1433 q 627 1520 627 1482 q 602 1585 627 1558 q 542 1613 577 1613 q 474 1588 502 1613 q 446 1528 446 1563 m 520 1010 l 369 458 l 688 458 l 520 1010 z "},"Ã":{"ha":1109,"x_min":69,"x_max":1040,"o":"m 1040 87 l 1040 0 l 720 0 l 720 87 l 746 87 q 784 129 784 87 q 780 157 784 137 l 720 349 l 337 349 l 286 159 q 284 139 284 153 q 296 101 284 115 q 331 87 308 87 l 361 87 l 361 0 l 69 0 l 69 87 l 83 87 q 142 104 115 87 q 177 151 169 121 l 534 1429 l 542 1429 l 929 171 q 969 109 942 131 q 1028 87 996 87 l 1040 87 m 520 1010 l 369 458 l 688 458 l 520 1010 m 331 1558 q 448 1621 357 1621 q 550 1603 498 1621 q 663 1577 627 1577 q 734 1611 708 1577 l 744 1556 q 692 1508 726 1524 q 615 1492 659 1492 q 522 1510 562 1492 q 415 1538 462 1538 q 341 1504 367 1538 l 331 1558 z "},"Æ":{"ha":1371,"x_min":79,"x_max":1276,"o":"m 1192 260 l 1276 260 l 1276 0 l 639 0 l 639 87 l 669 87 q 702 101 688 87 q 716 135 716 115 l 716 349 l 385 349 l 298 149 q 292 125 292 137 q 307 91 292 105 q 343 77 321 77 l 373 77 l 373 0 l 79 0 l 79 77 l 97 77 q 187 141 159 77 l 673 1242 q 687 1286 687 1278 q 679 1302 687 1294 l 629 1302 l 629 1389 l 1210 1389 l 1210 1139 l 1125 1139 l 1125 1192 q 1099 1255 1125 1230 q 1038 1280 1073 1280 l 873 1280 l 873 865 l 1010 865 q 1051 882 1034 865 q 1067 921 1067 899 l 1067 958 l 1153 958 l 1153 671 l 1067 671 l 1067 718 q 1055 751 1067 738 q 1022 764 1042 764 l 873 764 l 873 89 l 1087 89 q 1192 200 1192 89 l 1192 260 m 716 1101 l 435 458 l 716 458 l 716 1101 z "},"B":{"ha":942,"x_min":109,"x_max":873,"o":"m 556 889 q 789 725 704 847 q 861 431 873 603 q 722 103 845 206 q 433 0 599 0 l 109 0 l 109 87 l 141 87 q 179 104 163 87 q 194 143 194 121 l 194 1222 q 180 1283 194 1264 q 133 1302 165 1302 l 109 1302 l 109 1389 l 407 1389 q 633 1322 550 1389 q 716 1135 716 1256 q 672 982 716 1048 q 556 889 627 917 m 351 1292 l 351 946 l 381 946 q 542 1119 542 946 q 504 1250 542 1208 q 389 1292 466 1292 l 351 1292 m 401 105 q 604 188 526 105 q 683 482 683 270 q 603 745 683 655 q 401 835 524 835 l 351 835 l 351 105 l 401 105 z "},"C":{"ha":895,"x_min":79,"x_max":796,"o":"m 478 -46 q 263 58 353 -46 q 126 335 173 161 q 79 722 79 510 q 134 1111 79 950 q 278 1353 188 1272 q 466 1435 367 1435 q 544 1420 510 1435 q 627 1375 577 1405 q 669 1361 649 1361 q 716 1403 700 1361 l 786 1403 l 786 1044 l 704 1044 q 675 1175 704 1111 q 592 1279 645 1238 q 478 1319 540 1319 q 365 1259 417 1319 q 282 1067 313 1198 q 250 736 250 937 q 313 252 250 435 q 488 69 375 69 q 634 159 575 69 q 698 399 692 248 l 796 379 q 750 152 796 248 q 632 5 704 56 q 478 -46 560 -46 z "},"Ć":{"ha":895,"x_min":79,"x_max":796,"o":"m 478 -46 q 263 58 353 -46 q 126 335 173 161 q 79 722 79 510 q 134 1111 79 950 q 278 1353 188 1272 q 466 1435 367 1435 q 544 1420 510 1435 q 627 1375 577 1405 q 669 1361 649 1361 q 716 1403 700 1361 l 786 1403 l 786 1044 l 704 1044 q 675 1175 704 1111 q 592 1279 645 1238 q 478 1319 540 1319 q 365 1259 417 1319 q 282 1067 313 1198 q 250 736 250 937 q 313 252 250 435 q 488 69 375 69 q 634 159 575 69 q 698 399 692 248 l 796 379 q 750 152 796 248 q 632 5 704 56 q 478 -46 560 -46 m 617 1637 l 373 1494 l 337 1544 l 556 1720 l 617 1637 z "},"Č":{"ha":895,"x_min":79,"x_max":796,"o":"m 478 -46 q 263 58 353 -46 q 126 335 173 161 q 79 722 79 510 q 134 1111 79 950 q 278 1353 188 1272 q 466 1435 367 1435 q 544 1420 510 1435 q 627 1375 577 1405 q 669 1361 649 1361 q 716 1403 700 1361 l 786 1403 l 786 1044 l 704 1044 q 675 1175 704 1111 q 592 1279 645 1238 q 478 1319 540 1319 q 365 1259 417 1319 q 282 1067 313 1198 q 250 736 250 937 q 313 252 250 435 q 488 69 375 69 q 634 159 575 69 q 698 399 692 248 l 796 379 q 750 152 796 248 q 632 5 704 56 q 478 -46 560 -46 m 478 1605 l 677 1667 l 677 1603 l 478 1494 l 278 1603 l 278 1667 l 478 1605 z "},"Ç":{"ha":895,"x_min":79,"x_max":796,"o":"m 796 379 q 756 165 796 256 q 653 21 716 73 q 514 -44 589 -32 l 498 -75 q 558 -114 528 -85 q 587 -194 587 -143 q 551 -283 587 -250 q 462 -315 514 -315 q 402 -303 431 -315 q 355 -262 373 -290 l 383 -230 q 446 -250 417 -250 q 493 -233 476 -250 q 510 -187 510 -216 q 480 -131 510 -149 q 411 -109 450 -113 l 440 -44 q 244 78 325 -28 q 121 353 163 185 q 79 722 79 522 q 134 1111 79 950 q 278 1353 188 1272 q 466 1435 367 1435 q 544 1420 510 1435 q 627 1375 577 1405 q 669 1361 649 1361 q 716 1403 700 1361 l 786 1403 l 786 1044 l 704 1044 q 675 1175 704 1111 q 592 1279 645 1238 q 478 1319 540 1319 q 365 1259 417 1319 q 282 1067 313 1198 q 250 736 250 937 q 313 252 250 435 q 488 69 375 69 q 634 159 575 69 q 698 399 692 248 l 796 379 z "},"Ċ":{"ha":895,"x_min":79,"x_max":796,"o":"m 478 -46 q 263 58 353 -46 q 126 335 173 161 q 79 722 79 510 q 134 1111 79 950 q 278 1353 188 1272 q 466 1435 367 1435 q 544 1420 510 1435 q 627 1375 577 1405 q 669 1361 649 1361 q 716 1403 700 1361 l 786 1403 l 786 1044 l 704 1044 q 675 1175 704 1111 q 592 1279 645 1238 q 478 1319 540 1319 q 365 1259 417 1319 q 282 1067 313 1198 q 250 736 250 937 q 313 252 250 435 q 488 69 375 69 q 634 159 575 69 q 698 399 692 248 l 796 379 q 750 152 796 248 q 632 5 704 56 q 478 -46 560 -46 m 478 1506 q 421 1531 444 1506 q 397 1589 397 1556 q 421 1647 397 1623 q 478 1671 444 1671 q 535 1647 510 1671 q 560 1589 560 1623 q 536 1531 560 1556 q 478 1506 512 1506 z "},"D":{"ha":1028,"x_min":109,"x_max":952,"o":"m 452 1389 q 701 1312 587 1389 q 884 1079 815 1234 q 952 706 952 925 q 462 0 952 0 l 109 0 l 109 87 l 137 87 q 179 104 161 87 q 196 147 196 121 l 196 1258 q 184 1289 196 1276 q 151 1302 171 1302 l 109 1302 l 109 1389 l 452 1389 m 433 93 q 678 226 581 93 q 774 688 774 359 q 655 1177 774 1062 q 385 1292 536 1292 l 353 1292 l 353 105 q 433 93 379 93 z "},"Ð":{"ha":1028,"x_min":109,"x_max":952,"o":"m 452 1389 q 701 1312 587 1389 q 884 1079 815 1234 q 952 706 952 925 q 462 0 952 0 l 109 0 l 109 87 l 137 87 q 179 104 161 87 q 196 147 196 121 l 196 665 l 115 665 l 115 786 l 196 786 l 196 1258 q 184 1289 196 1276 q 151 1302 171 1302 l 109 1302 l 109 1389 l 452 1389 m 433 93 q 678 226 581 93 q 774 688 774 359 q 655 1177 774 1062 q 385 1292 536 1292 l 353 1292 l 353 786 l 522 786 l 522 665 l 353 665 l 353 105 q 433 93 379 93 z "},"Ď":{"ha":1028,"x_min":109,"x_max":952,"o":"m 452 1389 q 701 1312 587 1389 q 884 1079 815 1234 q 952 706 952 925 q 462 0 952 0 l 109 0 l 109 87 l 137 87 q 179 104 161 87 q 196 147 196 121 l 196 1258 q 184 1289 196 1276 q 151 1302 171 1302 l 109 1302 l 109 1389 l 452 1389 m 433 93 q 678 226 581 93 q 774 688 774 359 q 655 1177 774 1062 q 385 1292 536 1292 l 353 1292 l 353 105 q 433 93 379 93 m 464 1569 l 663 1631 l 663 1567 l 464 1458 l 264 1567 l 264 1631 l 464 1569 z "},"Đ":{"ha":1028,"x_min":109,"x_max":952,"o":"m 452 1389 q 701 1312 587 1389 q 884 1079 815 1234 q 952 706 952 925 q 462 0 952 0 l 109 0 l 109 87 l 137 87 q 179 104 161 87 q 196 147 196 121 l 196 665 l 115 665 l 115 786 l 196 786 l 196 1258 q 184 1289 196 1276 q 151 1302 171 1302 l 109 1302 l 109 1389 l 452 1389 m 433 93 q 678 226 581 93 q 774 688 774 359 q 655 1177 774 1062 q 385 1292 536 1292 l 353 1292 l 353 786 l 522 786 l 522 665 l 353 665 l 353 105 q 433 93 379 93 z "},"E":{"ha":851,"x_min":109,"x_max":756,"o":"m 673 260 l 756 260 l 756 0 l 119 0 l 119 87 l 149 87 q 183 101 169 87 q 196 135 196 115 l 196 1264 q 186 1291 196 1280 q 159 1302 175 1302 l 109 1302 l 109 1389 l 690 1389 l 690 1139 l 605 1139 l 605 1192 q 579 1255 605 1230 q 518 1280 554 1280 l 353 1280 l 353 865 l 490 865 q 531 882 514 865 q 548 921 548 899 l 548 958 l 633 958 l 633 671 l 548 671 l 548 718 q 535 751 548 738 q 502 764 522 764 l 353 764 l 353 89 l 567 89 q 673 200 673 89 l 673 260 z "},"É":{"ha":851,"x_min":109,"x_max":756,"o":"m 673 260 l 756 260 l 756 0 l 119 0 l 119 87 l 149 87 q 183 101 169 87 q 196 135 196 115 l 196 1264 q 186 1291 196 1280 q 159 1302 175 1302 l 109 1302 l 109 1389 l 690 1389 l 690 1139 l 605 1139 l 605 1192 q 579 1255 605 1230 q 518 1280 554 1280 l 353 1280 l 353 865 l 490 865 q 531 882 514 865 q 548 921 548 899 l 548 958 l 633 958 l 633 671 l 548 671 l 548 718 q 535 751 548 738 q 502 764 522 764 l 353 764 l 353 89 l 567 89 q 673 200 673 89 l 673 260 m 587 1601 l 343 1458 l 308 1508 l 526 1685 l 587 1601 z "},"Ě":{"ha":851,"x_min":109,"x_max":756,"o":"m 673 260 l 756 260 l 756 0 l 119 0 l 119 87 l 149 87 q 183 101 169 87 q 196 135 196 115 l 196 1264 q 186 1291 196 1280 q 159 1302 175 1302 l 109 1302 l 109 1389 l 690 1389 l 690 1139 l 605 1139 l 605 1192 q 579 1255 605 1230 q 518 1280 554 1280 l 353 1280 l 353 865 l 490 865 q 531 882 514 865 q 548 921 548 899 l 548 958 l 633 958 l 633 671 l 548 671 l 548 718 q 535 751 548 738 q 502 764 522 764 l 353 764 l 353 89 l 567 89 q 673 200 673 89 l 673 260 m 448 1569 l 647 1631 l 647 1567 l 448 1458 l 248 1567 l 248 1631 l 448 1569 z "},"Ê":{"ha":851,"x_min":109,"x_max":756,"o":"m 673 260 l 756 260 l 756 0 l 119 0 l 119 87 l 149 87 q 183 101 169 87 q 196 135 196 115 l 196 1264 q 186 1291 196 1280 q 159 1302 175 1302 l 109 1302 l 109 1389 l 690 1389 l 690 1139 l 605 1139 l 605 1192 q 579 1255 605 1230 q 518 1280 554 1280 l 353 1280 l 353 865 l 490 865 q 531 882 514 865 q 548 921 548 899 l 548 958 l 633 958 l 633 671 l 548 671 l 548 718 q 535 751 548 738 q 502 764 522 764 l 353 764 l 353 89 l 567 89 q 673 200 673 89 l 673 260 m 448 1522 l 250 1460 l 250 1524 l 448 1633 l 649 1524 l 649 1460 l 448 1522 z "},"Ế":{"ha":851,"x_min":109,"x_max":827,"o":"m 673 260 l 756 260 l 756 0 l 119 0 l 119 87 l 149 87 q 183 101 169 87 q 196 135 196 115 l 196 1264 q 186 1291 196 1280 q 159 1302 175 1302 l 109 1302 l 109 1389 l 690 1389 l 690 1139 l 605 1139 l 605 1192 q 579 1255 605 1230 q 518 1280 554 1280 l 353 1280 l 353 865 l 490 865 q 531 882 514 865 q 548 921 548 899 l 548 958 l 633 958 l 633 671 l 548 671 l 548 718 q 535 751 548 738 q 502 764 522 764 l 353 764 l 353 89 l 567 89 q 673 200 673 89 l 673 260 z "},"Ệ":{"ha":851,"x_min":109,"x_max":756,"o":"m 673 260 l 756 260 l 756 0 l 119 0 l 119 87 l 149 87 q 183 101 169 87 q 196 135 196 115 l 196 1264 q 186 1291 196 1280 q 159 1302 175 1302 l 109 1302 l 109 1389 l 690 1389 l 690 1139 l 605 1139 l 605 1192 q 579 1255 605 1230 q 518 1280 554 1280 l 353 1280 l 353 865 l 490 865 q 531 882 514 865 q 548 921 548 899 l 548 958 l 633 958 l 633 671 l 548 671 l 548 718 q 535 751 548 738 q 502 764 522 764 l 353 764 l 353 89 l 567 89 q 673 200 673 89 l 673 260 m 472 -248 q 415 -223 438 -248 q 391 -165 391 -198 q 415 -108 391 -133 q 472 -83 438 -83 q 529 -108 504 -83 q 554 -165 554 -133 q 530 -223 554 -198 q 472 -248 506 -248 m 448 1522 l 250 1460 l 250 1524 l 448 1633 l 649 1524 l 649 1460 l 448 1522 z "},"Ề":{"ha":851,"x_min":109,"x_max":756,"o":"m 673 260 l 756 260 l 756 0 l 119 0 l 119 87 l 149 87 q 183 101 169 87 q 196 135 196 115 l 196 1264 q 186 1291 196 1280 q 159 1302 175 1302 l 109 1302 l 109 1389 l 690 1389 l 690 1139 l 605 1139 l 605 1192 q 579 1255 605 1230 q 518 1280 554 1280 l 353 1280 l 353 865 l 490 865 q 531 882 514 865 q 548 921 548 899 l 548 958 l 633 958 l 633 671 l 548 671 l 548 718 q 535 751 548 738 q 502 764 522 764 l 353 764 l 353 89 l 567 89 q 673 200 673 89 l 673 260 z "},"Ể":{"ha":851,"x_min":109,"x_max":756,"o":"m 673 260 l 756 260 l 756 0 l 119 0 l 119 87 l 149 87 q 183 101 169 87 q 196 135 196 115 l 196 1264 q 186 1291 196 1280 q 159 1302 175 1302 l 109 1302 l 109 1389 l 690 1389 l 690 1139 l 605 1139 l 605 1192 q 579 1255 605 1230 q 518 1280 554 1280 l 353 1280 l 353 865 l 490 865 q 531 882 514 865 q 548 921 548 899 l 548 958 l 633 958 l 633 671 l 548 671 l 548 718 q 535 751 548 738 q 502 764 522 764 l 353 764 l 353 89 l 567 89 q 673 200 673 89 l 673 260 z "},"Ễ":{"ha":851,"x_min":109,"x_max":756,"o":"m 673 260 l 756 260 l 756 0 l 119 0 l 119 87 l 149 87 q 183 101 169 87 q 196 135 196 115 l 196 1264 q 186 1291 196 1280 q 159 1302 175 1302 l 109 1302 l 109 1389 l 690 1389 l 690 1139 l 605 1139 l 605 1192 q 579 1255 605 1230 q 518 1280 554 1280 l 353 1280 l 353 865 l 490 865 q 531 882 514 865 q 548 921 548 899 l 548 958 l 633 958 l 633 671 l 548 671 l 548 718 q 535 751 548 738 q 502 764 522 764 l 353 764 l 353 89 l 567 89 q 673 200 673 89 l 673 260 z "},"Ë":{"ha":851,"x_min":109,"x_max":756,"o":"m 673 260 l 756 260 l 756 0 l 119 0 l 119 87 l 149 87 q 183 101 169 87 q 196 135 196 115 l 196 1264 q 186 1291 196 1280 q 159 1302 175 1302 l 109 1302 l 109 1389 l 690 1389 l 690 1139 l 605 1139 l 605 1192 q 579 1255 605 1230 q 518 1280 554 1280 l 353 1280 l 353 865 l 490 865 q 531 882 514 865 q 548 921 548 899 l 548 958 l 633 958 l 633 671 l 548 671 l 548 718 q 535 751 548 738 q 502 764 522 764 l 353 764 l 353 89 l 567 89 q 673 200 673 89 l 673 260 m 308 1470 q 250 1495 274 1470 q 226 1554 226 1520 q 250 1611 226 1587 q 308 1635 274 1635 q 364 1611 339 1635 q 389 1554 389 1587 q 365 1495 389 1520 q 308 1470 341 1470 m 591 1470 q 534 1495 558 1470 q 510 1554 510 1520 q 534 1611 510 1587 q 591 1635 558 1635 q 648 1611 623 1635 q 673 1554 673 1587 q 649 1495 673 1520 q 591 1470 625 1470 z "},"Ė":{"ha":851,"x_min":109,"x_max":756,"o":"m 673 260 l 756 260 l 756 0 l 119 0 l 119 87 l 149 87 q 183 101 169 87 q 196 135 196 115 l 196 1264 q 186 1291 196 1280 q 159 1302 175 1302 l 109 1302 l 109 1389 l 690 1389 l 690 1139 l 605 1139 l 605 1192 q 579 1255 605 1230 q 518 1280 554 1280 l 353 1280 l 353 865 l 490 865 q 531 882 514 865 q 548 921 548 899 l 548 958 l 633 958 l 633 671 l 548 671 l 548 718 q 535 751 548 738 q 502 764 522 764 l 353 764 l 353 89 l 567 89 q 673 200 673 89 l 673 260 m 448 1470 q 391 1495 415 1470 q 367 1554 367 1520 q 391 1611 367 1587 q 448 1635 415 1635 q 505 1611 480 1635 q 530 1554 530 1587 q 506 1495 530 1520 q 448 1470 482 1470 z "},"Ẹ":{"ha":851,"x_min":109,"x_max":756,"o":"m 673 260 l 756 260 l 756 0 l 119 0 l 119 87 l 149 87 q 183 101 169 87 q 196 135 196 115 l 196 1264 q 186 1291 196 1280 q 159 1302 175 1302 l 109 1302 l 109 1389 l 690 1389 l 690 1139 l 605 1139 l 605 1192 q 579 1255 605 1230 q 518 1280 554 1280 l 353 1280 l 353 865 l 490 865 q 531 882 514 865 q 548 921 548 899 l 548 958 l 633 958 l 633 671 l 548 671 l 548 718 q 535 751 548 738 q 502 764 522 764 l 353 764 l 353 89 l 567 89 q 673 200 673 89 l 673 260 m 472 -248 q 415 -223 438 -248 q 391 -165 391 -198 q 415 -108 391 -133 q 472 -83 438 -83 q 529 -108 504 -83 q 554 -165 554 -133 q 530 -223 554 -198 q 472 -248 506 -248 z "},"È":{"ha":851,"x_min":109,"x_max":756,"o":"m 673 260 l 756 260 l 756 0 l 119 0 l 119 87 l 149 87 q 183 101 169 87 q 196 135 196 115 l 196 1264 q 186 1291 196 1280 q 159 1302 175 1302 l 109 1302 l 109 1389 l 690 1389 l 690 1139 l 605 1139 l 605 1192 q 579 1255 605 1230 q 518 1280 554 1280 l 353 1280 l 353 865 l 490 865 q 531 882 514 865 q 548 921 548 899 l 548 958 l 633 958 l 633 671 l 548 671 l 548 718 q 535 751 548 738 q 502 764 522 764 l 353 764 l 353 89 l 567 89 q 673 200 673 89 l 673 260 m 587 1508 l 552 1458 l 308 1601 l 369 1685 l 587 1508 z "},"Ẻ":{"ha":851,"x_min":109,"x_max":756,"o":"m 673 260 l 756 260 l 756 0 l 119 0 l 119 87 l 149 87 q 183 101 169 87 q 196 135 196 115 l 196 1264 q 186 1291 196 1280 q 159 1302 175 1302 l 109 1302 l 109 1389 l 690 1389 l 690 1139 l 605 1139 l 605 1192 q 579 1255 605 1230 q 518 1280 554 1280 l 353 1280 l 353 865 l 490 865 q 531 882 514 865 q 548 921 548 899 l 548 958 l 633 958 l 633 671 l 548 671 l 548 718 q 535 751 548 738 q 502 764 522 764 l 353 764 l 353 89 l 567 89 q 673 200 673 89 l 673 260 m 421 1456 q 438 1510 425 1490 q 474 1550 452 1530 q 499 1576 490 1563 q 508 1607 508 1589 q 490 1653 508 1637 q 446 1669 472 1669 q 385 1641 407 1669 l 353 1692 q 406 1730 375 1716 q 468 1744 437 1744 q 558 1708 522 1744 q 589 1631 589 1677 q 570 1563 589 1597 q 518 1506 552 1530 q 489 1483 500 1494 q 476 1456 478 1472 l 421 1456 z "},"Ē":{"ha":851,"x_min":109,"x_max":756,"o":"m 673 260 l 756 260 l 756 0 l 119 0 l 119 87 l 149 87 q 183 101 169 87 q 196 135 196 115 l 196 1264 q 186 1291 196 1280 q 159 1302 175 1302 l 109 1302 l 109 1389 l 690 1389 l 690 1139 l 605 1139 l 605 1192 q 579 1255 605 1230 q 518 1280 554 1280 l 353 1280 l 353 865 l 490 865 q 531 882 514 865 q 548 921 548 899 l 548 958 l 633 958 l 633 671 l 548 671 l 548 718 q 535 751 548 738 q 502 764 522 764 l 353 764 l 353 89 l 567 89 q 673 200 673 89 l 673 260 m 633 1508 l 266 1508 l 266 1599 l 633 1599 l 633 1508 z "},"Ę":{"ha":851,"x_min":109,"x_max":756,"o":"m 540 0 q 468 -51 498 -16 q 438 -125 438 -85 q 456 -175 438 -157 q 504 -192 474 -192 q 565 -175 534 -192 l 589 -206 q 480 -262 546 -262 q 393 -229 429 -262 q 357 -141 357 -196 q 388 -52 357 -87 q 456 0 419 -16 l 119 0 l 119 87 l 149 87 q 183 101 169 87 q 196 135 196 115 l 196 1264 q 186 1291 196 1280 q 159 1302 175 1302 l 109 1302 l 109 1389 l 690 1389 l 690 1139 l 605 1139 l 605 1192 q 579 1255 605 1230 q 518 1280 554 1280 l 353 1280 l 353 865 l 490 865 q 531 882 514 865 q 548 921 548 899 l 548 958 l 633 958 l 633 671 l 548 671 l 548 718 q 535 751 548 738 q 502 764 522 764 l 353 764 l 353 89 l 567 89 q 673 200 673 89 l 673 260 l 756 260 l 756 0 l 540 0 z "},"Ẽ":{"ha":851,"x_min":109,"x_max":756,"o":"m 673 260 l 756 260 l 756 0 l 119 0 l 119 87 l 149 87 q 183 101 169 87 q 196 135 196 115 l 196 1264 q 186 1291 196 1280 q 159 1302 175 1302 l 109 1302 l 109 1389 l 690 1389 l 690 1139 l 605 1139 l 605 1192 q 579 1255 605 1230 q 518 1280 554 1280 l 353 1280 l 353 865 l 490 865 q 531 882 514 865 q 548 921 548 899 l 548 958 l 633 958 l 633 671 l 548 671 l 548 718 q 535 751 548 738 q 502 764 522 764 l 353 764 l 353 89 l 567 89 q 673 200 673 89 l 673 260 m 242 1522 q 359 1585 268 1585 q 460 1567 409 1585 q 573 1542 538 1542 q 645 1575 619 1542 l 655 1520 q 603 1472 637 1488 q 526 1456 569 1456 q 433 1474 472 1456 q 325 1502 373 1502 q 252 1468 278 1502 l 242 1522 z "},"F":{"ha":786,"x_min":109,"x_max":690,"o":"m 690 1137 l 605 1137 l 605 1190 q 579 1254 605 1228 q 518 1280 554 1280 l 351 1280 l 351 863 l 490 863 q 531 880 514 863 q 548 921 548 897 l 548 956 l 633 956 l 633 669 l 548 669 l 548 716 q 535 749 548 736 q 502 762 522 762 l 351 762 l 351 137 q 366 104 351 117 q 403 91 381 91 l 446 91 l 446 0 l 109 0 l 109 91 l 149 91 q 182 104 169 91 q 194 137 194 117 l 194 1264 q 185 1291 194 1280 q 159 1302 175 1302 l 109 1302 l 109 1389 l 690 1389 l 690 1137 z "},"G":{"ha":982,"x_min":79,"x_max":919,"o":"m 569 567 l 919 567 l 919 480 l 873 480 q 838 466 853 480 q 823 433 823 452 l 823 0 l 732 0 q 717 35 728 22 q 690 48 706 48 q 667 40 677 48 q 628 15 651 30 q 585 -10 605 0 q 474 -36 534 -36 q 266 62 355 -36 q 128 326 177 159 q 79 700 79 494 q 133 1097 79 931 q 274 1349 187 1264 q 460 1435 361 1435 q 545 1420 508 1435 q 635 1373 581 1405 q 665 1363 655 1363 q 702 1403 692 1363 l 772 1403 l 772 1042 l 688 1042 q 657 1179 688 1109 q 572 1289 625 1248 q 460 1319 520 1329 q 363 1242 411 1312 q 284 1038 315 1173 q 252 706 252 903 q 281 375 252 516 q 360 158 310 234 q 474 73 411 81 l 494 71 q 602 119 552 71 q 663 282 653 167 l 663 433 q 649 466 663 452 q 615 480 635 480 l 569 480 l 569 567 z "},"Ğ":{"ha":982,"x_min":79,"x_max":919,"o":"m 569 567 l 919 567 l 919 480 l 873 480 q 838 466 853 480 q 823 433 823 452 l 823 0 l 732 0 q 717 35 728 22 q 690 48 706 48 q 667 40 677 48 q 628 15 651 30 q 585 -10 605 0 q 474 -36 534 -36 q 266 62 355 -36 q 128 326 177 159 q 79 700 79 494 q 133 1097 79 931 q 274 1349 187 1264 q 460 1435 361 1435 q 545 1420 508 1435 q 635 1373 581 1405 q 665 1363 655 1363 q 702 1403 692 1363 l 772 1403 l 772 1042 l 688 1042 q 657 1179 688 1109 q 572 1289 625 1248 q 460 1319 520 1329 q 363 1242 411 1312 q 284 1038 315 1173 q 252 706 252 903 q 281 375 252 516 q 360 158 310 234 q 474 73 411 81 l 494 71 q 602 119 552 71 q 663 282 653 167 l 663 433 q 649 466 663 452 q 615 480 635 480 l 569 480 l 569 567 m 476 1488 q 361 1524 417 1488 q 288 1609 306 1560 l 317 1653 q 476 1589 373 1589 q 635 1653 581 1589 l 665 1609 q 588 1523 643 1558 q 476 1488 534 1488 z "},"Ģ":{"ha":982,"x_min":79,"x_max":919,"o":"m 569 567 l 919 567 l 919 480 l 873 480 q 838 466 853 480 q 823 433 823 452 l 823 0 l 732 0 q 717 35 728 22 q 690 48 706 48 q 667 40 677 48 q 628 15 651 30 q 585 -10 605 0 q 474 -36 534 -36 q 266 62 355 -36 q 128 326 177 159 q 79 700 79 494 q 133 1097 79 931 q 274 1349 187 1264 q 460 1435 361 1435 q 545 1420 508 1435 q 635 1373 581 1405 q 665 1363 655 1363 q 702 1403 692 1363 l 772 1403 l 772 1042 l 688 1042 q 657 1179 688 1109 q 572 1289 625 1248 q 460 1319 520 1329 q 363 1242 411 1312 q 284 1038 315 1173 q 252 706 252 903 q 281 375 252 516 q 360 158 310 234 q 474 73 411 81 l 494 71 q 602 119 552 71 q 663 282 653 167 l 663 433 q 649 466 663 452 q 615 480 635 480 l 569 480 l 569 567 m 433 -347 q 462 -258 462 -298 q 422 -229 438 -250 q 405 -183 405 -208 q 428 -128 405 -151 q 480 -105 450 -105 q 538 -133 514 -105 q 562 -194 562 -161 q 540 -274 562 -238 q 488 -329 518 -310 q 433 -347 458 -349 z "},"Ġ":{"ha":982,"x_min":79,"x_max":919,"o":"m 569 567 l 919 567 l 919 480 l 873 480 q 838 466 853 480 q 823 433 823 452 l 823 0 l 732 0 q 717 35 728 22 q 690 48 706 48 q 667 40 677 48 q 628 15 651 30 q 585 -10 605 0 q 474 -36 534 -36 q 266 62 355 -36 q 128 326 177 159 q 79 700 79 494 q 133 1097 79 931 q 274 1349 187 1264 q 460 1435 361 1435 q 545 1420 508 1435 q 635 1373 581 1405 q 665 1363 655 1363 q 702 1403 692 1363 l 772 1403 l 772 1042 l 688 1042 q 657 1179 688 1109 q 572 1289 625 1248 q 460 1319 520 1329 q 363 1242 411 1312 q 284 1038 315 1173 q 252 706 252 903 q 281 375 252 516 q 360 158 310 234 q 474 73 411 81 l 494 71 q 602 119 552 71 q 663 282 653 167 l 663 433 q 649 466 663 452 q 615 480 635 480 l 569 480 l 569 567 m 476 1500 q 419 1525 442 1500 q 395 1583 395 1550 q 419 1641 395 1617 q 476 1665 442 1665 q 533 1641 508 1665 q 558 1583 558 1617 q 534 1525 558 1550 q 476 1500 510 1500 z "},"H":{"ha":1077,"x_min":109,"x_max":968,"o":"m 919 1298 q 888 1285 901 1298 q 875 1254 875 1272 l 875 137 q 888 105 875 119 q 919 91 901 91 l 968 91 l 968 0 l 627 0 l 627 91 l 675 91 q 705 105 692 91 q 718 137 718 119 l 718 845 l 357 845 l 357 137 q 370 105 357 119 q 401 91 383 91 l 450 91 l 450 0 l 109 0 l 109 91 l 157 91 q 188 105 175 91 q 200 137 200 119 l 200 1254 q 188 1285 200 1272 q 157 1298 175 1298 l 109 1298 l 109 1389 l 450 1389 l 450 1298 l 401 1298 q 370 1285 383 1298 q 357 1254 357 1272 l 357 940 l 718 940 l 718 1254 q 705 1285 718 1272 q 675 1298 692 1298 l 627 1298 l 627 1389 l 968 1389 l 968 1298 l 919 1298 z "},"Ħ":{"ha":1077,"x_min":109,"x_max":968,"o":"m 919 1298 q 888 1285 901 1298 q 875 1254 875 1272 l 875 1177 l 954 1177 l 954 1056 l 875 1056 l 875 137 q 888 105 875 119 q 919 91 901 91 l 968 91 l 968 0 l 627 0 l 627 91 l 675 91 q 705 105 692 91 q 718 137 718 119 l 718 845 l 357 845 l 357 137 q 370 105 357 119 q 401 91 383 91 l 450 91 l 450 0 l 109 0 l 109 91 l 157 91 q 188 105 175 91 q 200 137 200 119 l 200 1056 l 123 1056 l 123 1177 l 200 1177 l 200 1254 q 188 1285 200 1272 q 157 1298 175 1298 l 109 1298 l 109 1389 l 450 1389 l 450 1298 l 401 1298 q 370 1285 383 1298 q 357 1254 357 1272 l 357 1177 l 718 1177 l 718 1254 q 705 1285 718 1272 q 675 1298 692 1298 l 627 1298 l 627 1389 l 968 1389 l 968 1298 l 919 1298 m 357 940 l 718 940 l 718 1056 l 357 1056 l 357 940 z "},"I":{"ha":579,"x_min":119,"x_max":460,"o":"m 119 0 l 119 91 l 167 91 q 197 105 185 91 q 210 137 210 119 l 210 1254 q 197 1285 210 1272 q 167 1298 185 1298 l 119 1298 l 119 1389 l 460 1389 l 460 1298 l 411 1298 q 380 1285 393 1298 q 367 1254 367 1272 l 367 137 q 380 105 367 119 q 411 91 393 91 l 460 91 l 460 0 l 119 0 z "},"Í":{"ha":579,"x_min":119,"x_max":460,"o":"m 119 0 l 119 91 l 167 91 q 197 105 185 91 q 210 137 210 119 l 210 1254 q 197 1285 210 1272 q 167 1298 185 1298 l 119 1298 l 119 1389 l 460 1389 l 460 1298 l 411 1298 q 380 1285 393 1298 q 367 1254 367 1272 l 367 137 q 380 105 367 119 q 411 91 393 91 l 460 91 l 460 0 l 119 0 m 429 1601 l 185 1458 l 149 1508 l 367 1685 l 429 1601 z "},"Ǐ":{"ha":579,"x_min":89,"x_max":488,"o":"m 119 0 l 119 91 l 167 91 q 197 105 185 91 q 210 137 210 119 l 210 1254 q 197 1285 210 1272 q 167 1298 185 1298 l 119 1298 l 119 1389 l 460 1389 l 460 1298 l 411 1298 q 380 1285 393 1298 q 367 1254 367 1272 l 367 137 q 380 105 367 119 q 411 91 393 91 l 460 91 l 460 0 l 119 0 m 290 1569 l 488 1631 l 488 1567 l 290 1458 l 89 1567 l 89 1631 l 290 1569 z "},"Î":{"ha":579,"x_min":91,"x_max":490,"o":"m 119 0 l 119 91 l 167 91 q 197 105 185 91 q 210 137 210 119 l 210 1254 q 197 1285 210 1272 q 167 1298 185 1298 l 119 1298 l 119 1389 l 460 1389 l 460 1298 l 411 1298 q 380 1285 393 1298 q 367 1254 367 1272 l 367 137 q 380 105 367 119 q 411 91 393 91 l 460 91 l 460 0 l 119 0 m 290 1522 l 91 1460 l 91 1524 l 290 1633 l 490 1524 l 490 1460 l 290 1522 z "},"Ï":{"ha":579,"x_min":67,"x_max":514,"o":"m 119 0 l 119 91 l 167 91 q 197 105 185 91 q 210 137 210 119 l 210 1254 q 197 1285 210 1272 q 167 1298 185 1298 l 119 1298 l 119 1389 l 460 1389 l 460 1298 l 411 1298 q 380 1285 393 1298 q 367 1254 367 1272 l 367 137 q 380 105 367 119 q 411 91 393 91 l 460 91 l 460 0 l 119 0 m 149 1470 q 91 1495 115 1470 q 67 1554 67 1520 q 91 1611 67 1587 q 149 1635 115 1635 q 205 1611 181 1635 q 230 1554 230 1587 q 206 1495 230 1520 q 149 1470 183 1470 m 433 1470 q 375 1495 399 1470 q 351 1554 351 1520 q 375 1611 351 1587 q 433 1635 399 1635 q 489 1611 464 1635 q 514 1554 514 1587 q 490 1495 514 1520 q 433 1470 466 1470 z "},"İ":{"ha":579,"x_min":119,"x_max":460,"o":"m 119 0 l 119 91 l 167 91 q 197 105 185 91 q 210 137 210 119 l 210 1254 q 197 1285 210 1272 q 167 1298 185 1298 l 119 1298 l 119 1389 l 460 1389 l 460 1298 l 411 1298 q 380 1285 393 1298 q 367 1254 367 1272 l 367 137 q 380 105 367 119 q 411 91 393 91 l 460 91 l 460 0 l 119 0 m 290 1470 q 232 1495 256 1470 q 208 1554 208 1520 q 232 1611 208 1587 q 290 1635 256 1635 q 346 1611 321 1635 q 371 1554 371 1587 q 347 1495 371 1520 q 290 1470 323 1470 z "},"Ị":{"ha":579,"x_min":119,"x_max":460,"o":"m 119 0 l 119 91 l 167 91 q 197 105 185 91 q 210 137 210 119 l 210 1254 q 197 1285 210 1272 q 167 1298 185 1298 l 119 1298 l 119 1389 l 460 1389 l 460 1298 l 411 1298 q 380 1285 393 1298 q 367 1254 367 1272 l 367 137 q 380 105 367 119 q 411 91 393 91 l 460 91 l 460 0 l 119 0 m 290 -248 q 232 -223 256 -248 q 208 -165 208 -198 q 232 -108 208 -133 q 290 -83 256 -83 q 346 -108 321 -83 q 371 -165 371 -133 q 347 -223 371 -198 q 290 -248 323 -248 z "},"Ì":{"ha":579,"x_min":119,"x_max":460,"o":"m 119 0 l 119 91 l 167 91 q 197 105 185 91 q 210 137 210 119 l 210 1254 q 197 1285 210 1272 q 167 1298 185 1298 l 119 1298 l 119 1389 l 460 1389 l 460 1298 l 411 1298 q 380 1285 393 1298 q 367 1254 367 1272 l 367 137 q 380 105 367 119 q 411 91 393 91 l 460 91 l 460 0 l 119 0 m 429 1508 l 393 1458 l 149 1601 l 210 1685 l 429 1508 z "},"Ỉ":{"ha":579,"x_min":119,"x_max":460,"o":"m 119 0 l 119 91 l 167 91 q 197 105 185 91 q 210 137 210 119 l 210 1254 q 197 1285 210 1272 q 167 1298 185 1298 l 119 1298 l 119 1389 l 460 1389 l 460 1298 l 411 1298 q 380 1285 393 1298 q 367 1254 367 1272 l 367 137 q 380 105 367 119 q 411 91 393 91 l 460 91 l 460 0 l 119 0 m 262 1456 q 280 1510 266 1490 q 315 1550 294 1530 q 340 1576 331 1563 q 349 1607 349 1589 q 331 1653 349 1637 q 288 1669 313 1669 q 226 1641 248 1669 l 194 1692 q 247 1730 216 1716 q 310 1744 278 1744 q 399 1708 363 1744 q 431 1631 431 1677 q 412 1563 431 1597 q 359 1506 393 1530 q 330 1483 341 1494 q 317 1456 319 1472 l 262 1456 z "},"Ī":{"ha":579,"x_min":107,"x_max":474,"o":"m 119 0 l 119 91 l 167 91 q 197 105 185 91 q 210 137 210 119 l 210 1254 q 197 1285 210 1272 q 167 1298 185 1298 l 119 1298 l 119 1389 l 460 1389 l 460 1298 l 411 1298 q 380 1285 393 1298 q 367 1254 367 1272 l 367 137 q 380 105 367 119 q 411 91 393 91 l 460 91 l 460 0 l 119 0 m 474 1508 l 107 1508 l 107 1599 l 474 1599 l 474 1508 z "},"Į":{"ha":579,"x_min":119,"x_max":460,"o":"m 411 1298 q 380 1285 393 1298 q 367 1254 367 1272 l 367 137 q 380 105 367 119 q 411 91 393 91 l 460 91 l 460 0 l 357 0 q 286 -51 315 -16 q 256 -125 256 -85 q 274 -175 256 -157 q 321 -192 292 -192 q 383 -175 349 -192 l 407 -206 q 298 -262 363 -262 q 210 -229 246 -262 q 175 -141 175 -196 q 205 -52 175 -87 q 274 0 236 -16 l 119 0 l 119 91 l 167 91 q 197 105 185 91 q 210 137 210 119 l 210 1254 q 197 1285 210 1272 q 167 1298 185 1298 l 119 1298 l 119 1389 l 460 1389 l 460 1298 l 411 1298 z "},"Ĩ":{"ha":579,"x_min":93,"x_max":484,"o":"m 93 1522 q 204 1585 119 1585 q 300 1567 252 1585 q 407 1542 373 1542 q 476 1575 454 1542 l 484 1520 q 436 1472 468 1488 q 361 1456 403 1456 q 274 1474 310 1456 q 173 1502 218 1502 q 103 1468 125 1502 l 93 1522 m 119 0 l 119 91 l 167 91 q 197 105 185 91 q 210 137 210 119 l 210 1254 q 197 1285 210 1272 q 167 1298 185 1298 l 119 1298 l 119 1389 l 460 1389 l 460 1298 l 411 1298 q 380 1285 393 1298 q 367 1254 367 1272 l 367 137 q 380 105 367 119 q 411 91 393 91 l 460 91 l 460 0 l 119 0 z "},"J":{"ha":804,"x_min":69,"x_max":704,"o":"m 369 1389 l 704 1389 l 704 1298 l 669 1298 q 631 1282 647 1298 q 615 1244 615 1266 l 615 286 q 536 26 615 97 q 359 -46 456 -46 q 278 -35 310 -46 q 210 -6 246 -24 q 183 2 196 2 q 161 -8 169 2 q 151 -30 153 -18 l 69 -30 l 69 317 l 159 317 q 313 63 159 63 q 417 107 375 63 q 458 248 458 151 l 458 1244 q 442 1282 458 1266 q 405 1298 427 1298 l 369 1298 l 369 1389 z "},"K":{"ha":1030,"x_min":109,"x_max":950,"o":"m 950 91 l 950 0 l 629 0 l 629 91 l 655 91 q 686 107 675 91 q 688 141 696 123 l 452 671 l 359 496 l 359 135 q 372 104 359 117 q 403 91 385 91 l 450 91 l 450 0 l 109 0 l 109 91 l 159 91 q 189 104 177 91 q 202 135 202 117 l 202 1254 q 189 1285 202 1272 q 159 1298 177 1298 l 109 1298 l 109 1389 l 450 1389 l 450 1298 l 403 1298 q 372 1285 385 1298 q 359 1254 359 1272 l 359 694 l 655 1246 q 661 1266 661 1256 q 653 1289 661 1280 q 631 1298 645 1298 l 593 1298 l 593 1389 l 863 1389 l 863 1298 l 825 1298 q 768 1262 788 1298 l 540 835 l 855 127 q 878 101 863 111 q 911 91 893 91 l 950 91 z "},"Ķ":{"ha":1030,"x_min":109,"x_max":950,"o":"m 950 91 l 950 0 l 629 0 l 629 91 l 655 91 q 686 107 675 91 q 688 141 696 123 l 452 671 l 359 496 l 359 135 q 372 104 359 117 q 403 91 385 91 l 450 91 l 450 0 l 109 0 l 109 91 l 159 91 q 189 104 177 91 q 202 135 202 117 l 202 1254 q 189 1285 202 1272 q 159 1298 177 1298 l 109 1298 l 109 1389 l 450 1389 l 450 1298 l 403 1298 q 372 1285 385 1298 q 359 1254 359 1272 l 359 694 l 655 1246 q 661 1266 661 1256 q 653 1289 661 1280 q 631 1298 645 1298 l 593 1298 l 593 1389 l 863 1389 l 863 1298 l 825 1298 q 768 1262 788 1298 l 540 835 l 855 127 q 878 101 863 111 q 911 91 893 91 l 950 91 m 492 -323 q 522 -234 522 -274 q 481 -205 498 -226 q 464 -159 464 -185 q 487 -104 464 -127 q 540 -81 510 -81 q 597 -109 573 -81 q 621 -171 621 -137 q 599 -250 621 -214 q 548 -306 577 -286 q 492 -323 518 -325 z "},"L":{"ha":867,"x_min":109,"x_max":780,"o":"m 109 0 l 109 91 l 159 91 q 189 104 177 91 q 202 137 202 117 l 202 1254 q 189 1285 202 1272 q 159 1298 177 1298 l 109 1298 l 109 1389 l 450 1389 l 450 1298 l 403 1298 q 372 1285 385 1298 q 359 1254 359 1272 l 359 91 l 617 91 q 668 112 647 91 q 688 163 688 133 l 688 280 l 780 280 l 780 0 l 109 0 z "},"Ĺ":{"ha":867,"x_min":109,"x_max":780,"o":"m 109 0 l 109 91 l 159 91 q 189 104 177 91 q 202 137 202 117 l 202 1254 q 189 1285 202 1272 q 159 1298 177 1298 l 109 1298 l 109 1389 l 450 1389 l 450 1298 l 403 1298 q 372 1285 385 1298 q 359 1254 359 1272 l 359 91 l 617 91 q 668 112 647 91 q 688 163 688 133 l 688 280 l 780 280 l 780 0 l 109 0 m 613 1601 l 369 1458 l 333 1508 l 552 1685 l 613 1601 z "},"Ľ":{"ha":867,"x_min":109,"x_max":780,"o":"m 109 0 l 109 91 l 159 91 q 189 104 177 91 q 202 137 202 117 l 202 1254 q 189 1285 202 1272 q 159 1298 177 1298 l 109 1298 l 109 1389 l 450 1389 l 450 1298 l 403 1298 q 372 1285 385 1298 q 359 1254 359 1272 l 359 91 l 617 91 q 668 112 647 91 q 688 163 688 133 l 688 280 l 780 280 l 780 0 l 109 0 m 647 1165 q 663 1196 649 1169 q 677 1252 677 1224 q 636 1280 653 1260 q 619 1325 619 1300 q 641 1378 619 1355 q 692 1401 663 1401 q 749 1374 726 1401 q 772 1313 772 1347 q 751 1236 772 1270 q 700 1183 730 1202 q 647 1165 671 1163 z "},"Ļ":{"ha":867,"x_min":109,"x_max":780,"o":"m 109 0 l 109 91 l 159 91 q 189 104 177 91 q 202 137 202 117 l 202 1254 q 189 1285 202 1272 q 159 1298 177 1298 l 109 1298 l 109 1389 l 450 1389 l 450 1298 l 403 1298 q 372 1285 385 1298 q 359 1254 359 1272 l 359 91 l 617 91 q 668 112 647 91 q 688 163 688 133 l 688 280 l 780 280 l 780 0 l 109 0 m 409 -323 q 438 -234 438 -274 q 398 -205 415 -226 q 381 -159 381 -185 q 404 -104 381 -127 q 456 -81 427 -81 q 514 -109 490 -81 q 538 -171 538 -137 q 516 -250 538 -214 q 464 -306 494 -286 q 409 -323 435 -325 z "},"Ł":{"ha":881,"x_min":131,"x_max":802,"o":"m 710 280 l 802 280 l 802 0 l 131 0 l 131 91 l 181 91 q 211 104 198 91 q 224 137 224 117 l 224 651 l 131 605 l 131 714 l 224 760 l 224 1254 q 211 1285 224 1272 q 181 1298 198 1298 l 131 1298 l 131 1389 l 472 1389 l 472 1298 l 425 1298 q 394 1285 407 1298 q 381 1254 381 1272 l 381 839 l 474 885 l 474 774 l 381 728 l 381 91 l 639 91 q 689 112 669 91 q 710 163 710 133 l 710 280 z "},"M":{"ha":1242,"x_min":89,"x_max":1153,"o":"m 1153 87 l 1153 0 l 819 0 l 819 87 l 839 87 q 905 185 909 87 l 869 1058 l 581 -60 l 573 -60 l 298 1056 l 280 153 q 297 104 280 121 q 345 87 313 87 l 375 87 l 375 0 l 89 0 l 89 87 l 113 87 q 159 105 145 87 q 175 159 173 123 l 200 1216 q 180 1278 202 1254 q 117 1302 157 1302 l 105 1302 l 105 1389 l 375 1389 l 607 431 l 855 1389 l 1105 1389 l 1105 1302 l 1093 1302 q 1032 1285 1056 1302 q 1010 1232 1008 1268 l 1056 177 q 1078 112 1058 137 q 1135 87 1099 87 l 1153 87 z "},"N":{"ha":1058,"x_min":109,"x_max":958,"o":"m 690 1389 l 958 1389 l 958 1302 l 935 1302 q 885 1289 895 1302 q 875 1232 875 1276 l 875 -60 l 867 -60 l 296 1054 l 296 165 q 351 87 296 87 l 371 87 l 371 0 l 109 0 l 109 87 l 133 87 q 180 110 165 87 q 194 169 194 133 l 194 1216 q 184 1280 194 1258 q 141 1302 173 1302 l 109 1302 l 109 1389 l 294 1389 l 774 442 l 774 1232 q 763 1289 774 1276 q 712 1302 752 1302 l 690 1302 l 690 1389 z "},"Ń":{"ha":1058,"x_min":109,"x_max":958,"o":"m 690 1389 l 958 1389 l 958 1302 l 935 1302 q 885 1289 895 1302 q 875 1232 875 1276 l 875 -60 l 867 -60 l 296 1054 l 296 165 q 351 87 296 87 l 371 87 l 371 0 l 109 0 l 109 87 l 133 87 q 180 110 165 87 q 194 169 194 133 l 194 1216 q 184 1280 194 1258 q 141 1302 173 1302 l 109 1302 l 109 1389 l 294 1389 l 774 442 l 774 1232 q 763 1289 774 1276 q 712 1302 752 1302 l 690 1302 l 690 1389 m 657 1601 l 413 1458 l 377 1508 l 595 1685 l 657 1601 z "},"Ň":{"ha":1058,"x_min":109,"x_max":958,"o":"m 690 1389 l 958 1389 l 958 1302 l 935 1302 q 885 1289 895 1302 q 875 1232 875 1276 l 875 -60 l 867 -60 l 296 1054 l 296 165 q 351 87 296 87 l 371 87 l 371 0 l 109 0 l 109 87 l 133 87 q 180 110 165 87 q 194 169 194 133 l 194 1216 q 184 1280 194 1258 q 141 1302 173 1302 l 109 1302 l 109 1389 l 294 1389 l 774 442 l 774 1232 q 763 1289 774 1276 q 712 1302 752 1302 l 690 1302 l 690 1389 m 518 1569 l 716 1631 l 716 1567 l 518 1458 l 317 1567 l 317 1631 l 518 1569 z "},"Ņ":{"ha":1058,"x_min":109,"x_max":958,"o":"m 690 1389 l 958 1389 l 958 1302 l 935 1302 q 885 1289 895 1302 q 875 1232 875 1276 l 875 -60 l 867 -60 l 296 1054 l 296 165 q 351 87 296 87 l 371 87 l 371 0 l 109 0 l 109 87 l 133 87 q 180 110 165 87 q 194 169 194 133 l 194 1216 q 184 1280 194 1258 q 141 1302 173 1302 l 109 1302 l 109 1389 l 294 1389 l 774 442 l 774 1232 q 763 1289 774 1276 q 712 1302 752 1302 l 690 1302 l 690 1389 m 520 -323 q 550 -234 550 -274 q 509 -205 526 -226 q 492 -159 492 -185 q 515 -104 492 -127 q 567 -81 538 -81 q 625 -109 601 -81 q 649 -171 649 -137 q 627 -250 649 -214 q 575 -306 605 -286 q 520 -323 546 -325 z "},"Ñ":{"ha":1058,"x_min":109,"x_max":958,"o":"m 690 1389 l 958 1389 l 958 1302 l 935 1302 q 885 1289 895 1302 q 875 1232 875 1276 l 875 -60 l 867 -60 l 296 1054 l 296 165 q 351 87 296 87 l 371 87 l 371 0 l 109 0 l 109 87 l 133 87 q 180 110 165 87 q 194 169 194 133 l 194 1216 q 184 1280 194 1258 q 141 1302 173 1302 l 109 1302 l 109 1389 l 294 1389 l 774 442 l 774 1232 q 763 1289 774 1276 q 712 1302 752 1302 l 690 1302 l 690 1389 m 312 1522 q 429 1585 337 1585 q 530 1567 478 1585 q 643 1542 607 1542 q 714 1575 688 1542 l 724 1520 q 673 1472 706 1488 q 595 1456 639 1456 q 502 1474 542 1456 q 395 1502 442 1502 q 321 1468 347 1502 l 312 1522 z "},"O":{"ha":996,"x_min":75,"x_max":921,"o":"m 498 -48 q 286 47 383 -48 q 132 310 188 141 q 75 694 75 478 q 132 1079 75 911 q 286 1342 188 1248 q 498 1437 383 1437 q 711 1342 615 1437 q 864 1079 808 1248 q 921 694 921 911 q 864 310 921 478 q 711 47 808 141 q 498 -48 615 -48 m 498 48 q 622 130 563 48 q 715 360 681 212 q 750 694 750 508 q 715 1029 750 881 q 622 1259 681 1177 q 498 1341 563 1341 q 374 1259 433 1341 q 281 1029 315 1177 q 246 694 246 881 q 281 360 246 508 q 374 130 315 212 q 498 48 433 48 z "},"Ó":{"ha":996,"x_min":75,"x_max":921,"o":"m 498 -48 q 286 47 383 -48 q 132 310 188 141 q 75 694 75 478 q 132 1079 75 911 q 286 1342 188 1248 q 498 1437 383 1437 q 711 1342 615 1437 q 864 1079 808 1248 q 921 694 921 911 q 864 310 921 478 q 711 47 808 141 q 498 -48 615 -48 m 498 48 q 622 130 563 48 q 715 360 681 212 q 750 694 750 508 q 715 1029 750 881 q 622 1259 681 1177 q 498 1341 563 1341 q 374 1259 433 1341 q 281 1029 315 1177 q 246 694 246 881 q 281 360 246 508 q 374 130 315 212 q 498 48 433 48 m 637 1633 l 393 1490 l 357 1540 l 575 1716 l 637 1633 z "},"Ǒ":{"ha":996,"x_min":75,"x_max":921,"o":"m 498 -48 q 286 47 383 -48 q 132 310 188 141 q 75 694 75 478 q 132 1079 75 911 q 286 1342 188 1248 q 498 1437 383 1437 q 711 1342 615 1437 q 864 1079 808 1248 q 921 694 921 911 q 864 310 921 478 q 711 47 808 141 q 498 -48 615 -48 m 498 48 q 622 130 563 48 q 715 360 681 212 q 750 694 750 508 q 715 1029 750 881 q 622 1259 681 1177 q 498 1341 563 1341 q 374 1259 433 1341 q 281 1029 315 1177 q 246 694 246 881 q 281 360 246 508 q 374 130 315 212 q 498 48 433 48 m 498 1601 l 696 1663 l 696 1599 l 498 1490 l 298 1599 l 298 1663 l 498 1601 z "},"Ô":{"ha":996,"x_min":75,"x_max":921,"o":"m 498 -48 q 286 47 383 -48 q 132 310 188 141 q 75 694 75 478 q 132 1079 75 911 q 286 1342 188 1248 q 498 1437 383 1437 q 711 1342 615 1437 q 864 1079 808 1248 q 921 694 921 911 q 864 310 921 478 q 711 47 808 141 q 498 -48 615 -48 m 498 48 q 622 130 563 48 q 715 360 681 212 q 750 694 750 508 q 715 1029 750 881 q 622 1259 681 1177 q 498 1341 563 1341 q 374 1259 433 1341 q 281 1029 315 1177 q 246 694 246 881 q 281 360 246 508 q 374 130 315 212 q 498 48 433 48 m 498 1554 l 300 1492 l 300 1556 l 498 1665 l 698 1556 l 698 1492 l 498 1554 z "},"Ố":{"ha":996,"x_min":75,"x_max":921,"o":"m 498 -48 q 286 47 383 -48 q 132 310 188 141 q 75 694 75 478 q 132 1079 75 911 q 286 1342 188 1248 q 498 1437 383 1437 q 711 1342 615 1437 q 864 1079 808 1248 q 921 694 921 911 q 864 310 921 478 q 711 47 808 141 q 498 -48 615 -48 m 498 48 q 622 130 563 48 q 715 360 681 212 q 750 694 750 508 q 715 1029 750 881 q 622 1259 681 1177 q 498 1341 563 1341 q 374 1259 433 1341 q 281 1029 315 1177 q 246 694 246 881 q 281 360 246 508 q 374 130 315 212 q 498 48 433 48 z "},"Ộ":{"ha":996,"x_min":75,"x_max":921,"o":"m 498 -48 q 286 47 383 -48 q 132 310 188 141 q 75 694 75 478 q 132 1079 75 911 q 286 1342 188 1248 q 498 1437 383 1437 q 711 1342 615 1437 q 864 1079 808 1248 q 921 694 921 911 q 864 310 921 478 q 711 47 808 141 q 498 -48 615 -48 m 498 48 q 622 130 563 48 q 715 360 681 212 q 750 694 750 508 q 715 1029 750 881 q 622 1259 681 1177 q 498 1341 563 1341 q 374 1259 433 1341 q 281 1029 315 1177 q 246 694 246 881 q 281 360 246 508 q 374 130 315 212 q 498 48 433 48 m 498 -280 q 440 -255 464 -280 q 417 -196 417 -230 q 440 -140 417 -165 q 498 -115 464 -115 q 555 -140 530 -115 q 579 -196 579 -165 q 556 -255 579 -230 q 498 -280 532 -280 m 498 1554 l 300 1492 l 300 1556 l 498 1665 l 698 1556 l 698 1492 l 498 1554 z "},"Ồ":{"ha":996,"x_min":75,"x_max":921,"o":"m 498 -48 q 286 47 383 -48 q 132 310 188 141 q 75 694 75 478 q 132 1079 75 911 q 286 1342 188 1248 q 498 1437 383 1437 q 711 1342 615 1437 q 864 1079 808 1248 q 921 694 921 911 q 864 310 921 478 q 711 47 808 141 q 498 -48 615 -48 m 498 48 q 622 130 563 48 q 715 360 681 212 q 750 694 750 508 q 715 1029 750 881 q 622 1259 681 1177 q 498 1341 563 1341 q 374 1259 433 1341 q 281 1029 315 1177 q 246 694 246 881 q 281 360 246 508 q 374 130 315 212 q 498 48 433 48 z "},"Ổ":{"ha":996,"x_min":75,"x_max":921,"o":"m 498 -48 q 286 47 383 -48 q 132 310 188 141 q 75 694 75 478 q 132 1079 75 911 q 286 1342 188 1248 q 498 1437 383 1437 q 711 1342 615 1437 q 864 1079 808 1248 q 921 694 921 911 q 864 310 921 478 q 711 47 808 141 q 498 -48 615 -48 m 498 48 q 622 130 563 48 q 715 360 681 212 q 750 694 750 508 q 715 1029 750 881 q 622 1259 681 1177 q 498 1341 563 1341 q 374 1259 433 1341 q 281 1029 315 1177 q 246 694 246 881 q 281 360 246 508 q 374 130 315 212 q 498 48 433 48 z "},"Ỗ":{"ha":996,"x_min":75,"x_max":921,"o":"m 498 -48 q 286 47 383 -48 q 132 310 188 141 q 75 694 75 478 q 132 1079 75 911 q 286 1342 188 1248 q 498 1437 383 1437 q 711 1342 615 1437 q 864 1079 808 1248 q 921 694 921 911 q 864 310 921 478 q 711 47 808 141 q 498 -48 615 -48 m 498 48 q 622 130 563 48 q 715 360 681 212 q 750 694 750 508 q 715 1029 750 881 q 622 1259 681 1177 q 498 1341 563 1341 q 374 1259 433 1341 q 281 1029 315 1177 q 246 694 246 881 q 281 360 246 508 q 374 130 315 212 q 498 48 433 48 z "},"Ö":{"ha":996,"x_min":75,"x_max":921,"o":"m 498 -48 q 286 47 383 -48 q 132 310 188 141 q 75 694 75 478 q 132 1079 75 911 q 286 1342 188 1248 q 498 1437 383 1437 q 711 1342 615 1437 q 864 1079 808 1248 q 921 694 921 911 q 864 310 921 478 q 711 47 808 141 q 498 -48 615 -48 m 498 48 q 622 130 563 48 q 715 360 681 212 q 750 694 750 508 q 715 1029 750 881 q 622 1259 681 1177 q 498 1341 563 1341 q 374 1259 433 1341 q 281 1029 315 1177 q 246 694 246 881 q 281 360 246 508 q 374 130 315 212 q 498 48 433 48 m 357 1502 q 300 1527 323 1502 q 276 1585 276 1552 q 300 1643 276 1619 q 357 1667 323 1667 q 414 1643 389 1667 q 438 1585 438 1619 q 415 1527 438 1552 q 357 1502 391 1502 m 641 1502 q 583 1527 607 1502 q 560 1585 560 1552 q 583 1643 560 1619 q 641 1667 607 1667 q 697 1643 673 1667 q 722 1585 722 1619 q 698 1527 722 1552 q 641 1502 675 1502 z "},"Ọ":{"ha":996,"x_min":75,"x_max":921,"o":"m 498 -48 q 286 47 383 -48 q 132 310 188 141 q 75 694 75 478 q 132 1079 75 911 q 286 1342 188 1248 q 498 1437 383 1437 q 711 1342 615 1437 q 864 1079 808 1248 q 921 694 921 911 q 864 310 921 478 q 711 47 808 141 q 498 -48 615 -48 m 498 48 q 622 130 563 48 q 715 360 681 212 q 750 694 750 508 q 715 1029 750 881 q 622 1259 681 1177 q 498 1341 563 1341 q 374 1259 433 1341 q 281 1029 315 1177 q 246 694 246 881 q 281 360 246 508 q 374 130 315 212 q 498 48 433 48 m 498 -280 q 440 -255 464 -280 q 417 -196 417 -230 q 440 -140 417 -165 q 498 -115 464 -115 q 555 -140 530 -115 q 579 -196 579 -165 q 556 -255 579 -230 q 498 -280 532 -280 z "},"Ò":{"ha":996,"x_min":75,"x_max":921,"o":"m 498 -48 q 286 47 383 -48 q 132 310 188 141 q 75 694 75 478 q 132 1079 75 911 q 286 1342 188 1248 q 498 1437 383 1437 q 711 1342 615 1437 q 864 1079 808 1248 q 921 694 921 911 q 864 310 921 478 q 711 47 808 141 q 498 -48 615 -48 m 498 48 q 622 130 563 48 q 715 360 681 212 q 750 694 750 508 q 715 1029 750 881 q 622 1259 681 1177 q 498 1341 563 1341 q 374 1259 433 1341 q 281 1029 315 1177 q 246 694 246 881 q 281 360 246 508 q 374 130 315 212 q 498 48 433 48 m 637 1540 l 601 1490 l 357 1633 l 419 1716 l 637 1540 z "},"Ỏ":{"ha":996,"x_min":75,"x_max":921,"o":"m 498 -48 q 286 47 383 -48 q 132 310 188 141 q 75 694 75 478 q 132 1079 75 911 q 286 1342 188 1248 q 498 1437 383 1437 q 711 1342 615 1437 q 864 1079 808 1248 q 921 694 921 911 q 864 310 921 478 q 711 47 808 141 q 498 -48 615 -48 m 498 48 q 622 130 563 48 q 715 360 681 212 q 750 694 750 508 q 715 1029 750 881 q 622 1259 681 1177 q 498 1341 563 1341 q 374 1259 433 1341 q 281 1029 315 1177 q 246 694 246 881 q 281 360 246 508 q 374 130 315 212 q 498 48 433 48 m 470 1488 q 488 1542 474 1522 q 524 1581 502 1562 q 549 1608 540 1595 q 558 1639 558 1621 q 540 1685 558 1669 q 496 1700 522 1700 q 435 1673 456 1700 l 403 1724 q 455 1762 425 1748 q 518 1776 486 1776 q 607 1740 571 1776 q 639 1663 639 1708 q 620 1595 639 1629 q 567 1538 601 1562 q 539 1515 550 1526 q 526 1488 528 1504 l 470 1488 z "},"Ơ":{"ha":996,"x_min":75,"x_max":921,"o":"m 764 1284 q 879 1031 837 1183 q 921 694 921 879 q 864 310 921 478 q 711 47 808 141 q 498 -48 615 -48 q 286 47 383 -48 q 132 310 188 141 q 75 694 75 478 q 132 1079 75 911 q 286 1342 188 1248 q 498 1437 383 1437 q 722 1331 621 1437 q 770 1353 758 1345 q 764 1381 764 1369 q 794 1442 764 1419 q 837 1456 813 1456 q 899 1429 875 1456 q 913 1385 913 1409 q 902 1344 913 1365 q 873 1310 891 1323 q 764 1284 823 1276 m 498 48 q 622 130 563 48 q 715 360 681 212 q 750 694 750 508 q 715 1029 750 881 q 622 1259 681 1177 q 498 1341 563 1341 q 374 1259 433 1341 q 281 1029 315 1177 q 246 694 246 881 q 281 360 246 508 q 374 130 315 212 q 498 48 433 48 z "},"Ớ":{"ha":996,"x_min":75,"x_max":921,"o":"m 764 1284 q 879 1031 837 1183 q 921 694 921 879 q 864 310 921 478 q 711 47 808 141 q 498 -48 615 -48 q 286 47 383 -48 q 132 310 188 141 q 75 694 75 478 q 132 1079 75 911 q 286 1342 188 1248 q 498 1437 383 1437 q 722 1331 621 1437 q 770 1353 758 1345 q 764 1381 764 1369 q 794 1442 764 1419 q 837 1456 813 1456 q 899 1429 875 1456 q 913 1385 913 1409 q 902 1344 913 1365 q 873 1310 891 1323 q 764 1284 823 1276 m 498 48 q 622 130 563 48 q 715 360 681 212 q 750 694 750 508 q 715 1029 750 881 q 622 1259 681 1177 q 498 1341 563 1341 q 374 1259 433 1341 q 281 1029 315 1177 q 246 694 246 881 q 281 360 246 508 q 374 130 315 212 q 498 48 433 48 m 637 1633 l 393 1490 l 357 1540 l 575 1716 l 637 1633 z "},"Ợ":{"ha":996,"x_min":75,"x_max":921,"o":"m 764 1284 q 879 1031 837 1183 q 921 694 921 879 q 864 310 921 478 q 711 47 808 141 q 498 -48 615 -48 q 286 47 383 -48 q 132 310 188 141 q 75 694 75 478 q 132 1079 75 911 q 286 1342 188 1248 q 498 1437 383 1437 q 722 1331 621 1437 q 770 1353 758 1345 q 764 1381 764 1369 q 794 1442 764 1419 q 837 1456 813 1456 q 899 1429 875 1456 q 913 1385 913 1409 q 902 1344 913 1365 q 873 1310 891 1323 q 764 1284 823 1276 m 498 48 q 622 130 563 48 q 715 360 681 212 q 750 694 750 508 q 715 1029 750 881 q 622 1259 681 1177 q 498 1341 563 1341 q 374 1259 433 1341 q 281 1029 315 1177 q 246 694 246 881 q 281 360 246 508 q 374 130 315 212 q 498 48 433 48 m 498 -280 q 440 -255 464 -280 q 417 -196 417 -230 q 440 -140 417 -165 q 498 -115 464 -115 q 555 -140 530 -115 q 579 -196 579 -165 q 556 -255 579 -230 q 498 -280 532 -280 z "},"Ờ":{"ha":996,"x_min":75,"x_max":921,"o":"m 764 1284 q 879 1031 837 1183 q 921 694 921 879 q 864 310 921 478 q 711 47 808 141 q 498 -48 615 -48 q 286 47 383 -48 q 132 310 188 141 q 75 694 75 478 q 132 1079 75 911 q 286 1342 188 1248 q 498 1437 383 1437 q 722 1331 621 1437 q 770 1353 758 1345 q 764 1381 764 1369 q 794 1442 764 1419 q 837 1456 813 1456 q 899 1429 875 1456 q 913 1385 913 1409 q 902 1344 913 1365 q 873 1310 891 1323 q 764 1284 823 1276 m 498 48 q 622 130 563 48 q 715 360 681 212 q 750 694 750 508 q 715 1029 750 881 q 622 1259 681 1177 q 498 1341 563 1341 q 374 1259 433 1341 q 281 1029 315 1177 q 246 694 246 881 q 281 360 246 508 q 374 130 315 212 q 498 48 433 48 m 637 1540 l 601 1490 l 357 1633 l 419 1716 l 637 1540 z "},"Ở":{"ha":996,"x_min":75,"x_max":921,"o":"m 764 1284 q 879 1031 837 1183 q 921 694 921 879 q 864 310 921 478 q 711 47 808 141 q 498 -48 615 -48 q 286 47 383 -48 q 132 310 188 141 q 75 694 75 478 q 132 1079 75 911 q 286 1342 188 1248 q 498 1437 383 1437 q 722 1331 621 1437 q 770 1353 758 1345 q 764 1381 764 1369 q 794 1442 764 1419 q 837 1456 813 1456 q 899 1429 875 1456 q 913 1385 913 1409 q 902 1344 913 1365 q 873 1310 891 1323 q 764 1284 823 1276 m 498 48 q 622 130 563 48 q 715 360 681 212 q 750 694 750 508 q 715 1029 750 881 q 622 1259 681 1177 q 498 1341 563 1341 q 374 1259 433 1341 q 281 1029 315 1177 q 246 694 246 881 q 281 360 246 508 q 374 130 315 212 q 498 48 433 48 m 470 1488 q 488 1542 474 1522 q 524 1581 502 1562 q 549 1608 540 1595 q 558 1639 558 1621 q 540 1685 558 1669 q 496 1700 522 1700 q 435 1673 456 1700 l 403 1724 q 455 1762 425 1748 q 518 1776 486 1776 q 607 1740 571 1776 q 639 1663 639 1708 q 620 1595 639 1629 q 567 1538 601 1562 q 539 1515 550 1526 q 526 1488 528 1504 l 470 1488 z "},"Ỡ":{"ha":996,"x_min":75,"x_max":921,"o":"m 482 1506 q 381 1534 427 1534 q 310 1500 331 1534 l 300 1554 q 413 1617 325 1617 q 510 1599 462 1617 q 617 1573 583 1573 q 687 1607 665 1573 l 696 1552 q 647 1504 681 1520 q 571 1488 613 1488 q 482 1506 522 1488 m 764 1284 q 879 1031 837 1183 q 921 694 921 879 q 864 310 921 478 q 711 47 808 141 q 498 -48 615 -48 q 286 47 383 -48 q 132 310 188 141 q 75 694 75 478 q 132 1079 75 911 q 286 1342 188 1248 q 498 1437 383 1437 q 722 1331 621 1437 q 770 1353 758 1345 q 764 1381 764 1369 q 794 1442 764 1419 q 837 1456 813 1456 q 899 1429 875 1456 q 913 1385 913 1409 q 902 1344 913 1365 q 873 1310 891 1323 q 764 1284 823 1276 m 498 48 q 622 130 563 48 q 715 360 681 212 q 750 694 750 508 q 715 1029 750 881 q 622 1259 681 1177 q 498 1341 563 1341 q 374 1259 433 1341 q 281 1029 315 1177 q 246 694 246 881 q 281 360 246 508 q 374 130 315 212 q 498 48 433 48 z "},"Ő":{"ha":996,"x_min":75,"x_max":921,"o":"m 498 -48 q 286 47 383 -48 q 132 310 188 141 q 75 694 75 478 q 132 1079 75 911 q 286 1342 188 1248 q 498 1437 383 1437 q 711 1342 615 1437 q 864 1079 808 1248 q 921 694 921 911 q 864 310 921 478 q 711 47 808 141 q 498 -48 615 -48 m 498 48 q 622 130 563 48 q 715 360 681 212 q 750 694 750 508 q 715 1029 750 881 q 622 1259 681 1177 q 498 1341 563 1341 q 374 1259 433 1341 q 281 1029 315 1177 q 246 694 246 881 q 281 360 246 508 q 374 130 315 212 q 498 48 433 48 z "},"Ō":{"ha":996,"x_min":75,"x_max":921,"o":"m 498 -48 q 286 47 383 -48 q 132 310 188 141 q 75 694 75 478 q 132 1079 75 911 q 286 1342 188 1248 q 498 1437 383 1437 q 711 1342 615 1437 q 864 1079 808 1248 q 921 694 921 911 q 864 310 921 478 q 711 47 808 141 q 498 -48 615 -48 m 498 48 q 622 130 563 48 q 715 360 681 212 q 750 694 750 508 q 715 1029 750 881 q 622 1259 681 1177 q 498 1341 563 1341 q 374 1259 433 1341 q 281 1029 315 1177 q 246 694 246 881 q 281 360 246 508 q 374 130 315 212 q 498 48 433 48 m 683 1540 l 315 1540 l 315 1631 l 683 1631 l 683 1540 z "},"Ø":{"ha":996,"x_min":75,"x_max":921,"o":"m 760 1290 q 878 1035 835 1188 q 921 694 921 881 q 864 310 921 478 q 711 47 808 141 q 498 -48 615 -48 q 331 8 411 -48 l 317 -36 l 190 -36 l 236 101 q 118 355 161 202 q 75 694 75 508 q 132 1079 75 911 q 286 1342 188 1248 q 498 1437 383 1437 q 663 1383 589 1437 l 677 1423 l 804 1423 l 760 1290 m 246 694 q 300 292 246 462 l 621 1258 q 498 1341 565 1341 q 374 1259 433 1341 q 281 1029 315 1177 q 246 694 246 881 m 498 48 q 622 130 563 48 q 715 360 681 212 q 750 694 750 508 q 696 1099 750 929 l 373 131 q 498 48 433 48 z "},"Õ":{"ha":996,"x_min":75,"x_max":921,"o":"m 498 -48 q 286 47 383 -48 q 132 310 188 141 q 75 694 75 478 q 132 1079 75 911 q 286 1342 188 1248 q 498 1437 383 1437 q 711 1342 615 1437 q 864 1079 808 1248 q 921 694 921 911 q 864 310 921 478 q 711 47 808 141 q 498 -48 615 -48 m 498 48 q 622 130 563 48 q 715 360 681 212 q 750 694 750 508 q 715 1029 750 881 q 622 1259 681 1177 q 498 1341 563 1341 q 374 1259 433 1341 q 281 1029 315 1177 q 246 694 246 881 q 281 360 246 508 q 374 130 315 212 q 498 48 433 48 m 292 1554 q 409 1617 317 1617 q 510 1599 458 1617 q 623 1573 587 1573 q 694 1607 669 1573 l 704 1552 q 653 1504 687 1520 q 575 1488 619 1488 q 482 1506 522 1488 q 375 1534 423 1534 q 302 1500 327 1534 l 292 1554 z "},"Œ":{"ha":1429,"x_min":75,"x_max":1333,"o":"m 1250 260 l 1333 260 l 1333 0 l 776 0 l 776 123 q 649 -4 720 40 q 498 -48 577 -48 q 286 47 383 -48 q 132 310 188 141 q 75 694 75 478 q 132 1079 75 911 q 286 1342 188 1248 q 498 1437 383 1437 q 649 1393 577 1437 q 776 1266 720 1349 l 776 1389 l 1268 1389 l 1268 1139 l 1183 1139 l 1183 1192 q 1157 1255 1183 1230 q 1095 1280 1131 1280 l 931 1280 l 931 865 l 1067 865 q 1108 882 1091 865 q 1125 921 1125 899 l 1125 958 l 1210 958 l 1210 671 l 1125 671 l 1125 718 q 1112 751 1125 738 q 1079 764 1099 764 l 931 764 l 931 89 l 1145 89 q 1250 200 1250 89 l 1250 260 m 498 48 q 622 130 563 48 q 715 360 681 212 q 750 694 750 508 q 715 1029 750 881 q 622 1259 681 1177 q 498 1341 563 1341 q 374 1259 433 1341 q 281 1029 315 1177 q 246 694 246 881 q 281 360 246 508 q 374 130 315 212 q 498 48 433 48 z "},"P":{"ha":927,"x_min":109,"x_max":837,"o":"m 837 1004 q 793 802 837 895 q 665 653 748 708 q 472 597 581 597 q 359 615 407 597 l 359 135 q 372 104 359 117 q 403 91 385 91 l 450 91 l 450 0 l 109 0 l 109 91 l 159 91 q 189 104 177 91 q 202 135 202 117 l 202 1260 q 189 1291 202 1278 q 159 1304 177 1304 l 109 1304 l 109 1391 l 456 1391 q 638 1343 550 1391 q 782 1207 726 1296 q 837 1004 837 1119 m 359 722 q 431 706 395 706 q 546 740 490 706 q 637 837 601 774 q 673 988 673 901 q 587 1219 673 1151 q 379 1288 502 1288 l 359 1288 l 359 722 z "},"Q":{"ha":994,"x_min":75,"x_max":980,"o":"m 980 34 q 915 -22 954 -4 q 819 -46 863 -46 q 679 18 748 -46 q 498 -48 595 -48 q 286 47 383 -48 q 132 310 188 141 q 75 694 75 478 q 132 1079 75 911 q 286 1342 188 1248 q 498 1437 383 1437 q 711 1342 615 1437 q 864 1079 808 1248 q 921 694 921 911 q 881 368 921 516 q 772 119 841 220 q 859 87 813 87 q 896 92 883 87 q 929 109 909 97 l 980 34 m 498 48 q 599 101 552 48 q 539 143 563 133 q 488 153 514 153 q 444 139 472 153 l 399 206 q 454 254 425 240 q 532 272 490 272 q 669 214 601 272 q 728 427 706 304 q 750 694 750 550 q 715 1029 750 881 q 622 1259 681 1177 q 498 1341 563 1341 q 374 1259 433 1341 q 281 1029 315 1177 q 246 694 246 881 q 281 360 246 508 q 374 130 315 212 q 498 48 433 48 z "},"R":{"ha":1058,"x_min":109,"x_max":988,"o":"m 988 -38 q 941 -53 972 -50 q 887 -52 911 -56 q 617 179 726 -26 q 536 377 571 262 q 480 611 500 492 q 413 617 448 611 q 357 633 387 621 l 357 137 q 370 104 357 117 q 401 91 383 91 l 450 91 l 450 0 l 109 0 l 109 91 l 157 91 q 188 104 175 91 q 200 137 200 117 l 200 1256 q 188 1289 200 1276 q 157 1302 175 1302 l 109 1302 l 109 1389 l 454 1389 q 636 1342 548 1389 q 780 1208 724 1296 q 835 1006 835 1121 q 782 798 835 893 q 637 653 728 702 q 692 379 667 490 q 795 137 724 246 q 942 28 865 28 q 964 30 956 28 l 988 -38 m 357 736 q 448 710 397 710 q 563 749 508 710 q 647 859 617 788 q 669 1022 677 931 q 387 1278 647 1278 l 357 1278 l 357 736 z "},"Ŕ":{"ha":1058,"x_min":109,"x_max":988,"o":"m 988 -38 q 941 -53 972 -50 q 887 -52 911 -56 q 617 179 726 -26 q 536 377 571 262 q 480 611 500 492 q 413 617 448 611 q 357 633 387 621 l 357 137 q 370 104 357 117 q 401 91 383 91 l 450 91 l 450 0 l 109 0 l 109 91 l 157 91 q 188 104 175 91 q 200 137 200 117 l 200 1256 q 188 1289 200 1276 q 157 1302 175 1302 l 109 1302 l 109 1389 l 454 1389 q 636 1342 548 1389 q 780 1208 724 1296 q 835 1006 835 1121 q 782 798 835 893 q 637 653 728 702 q 692 379 667 490 q 795 137 724 246 q 942 28 865 28 q 964 30 956 28 l 988 -38 m 357 736 q 448 710 397 710 q 563 749 508 710 q 647 859 617 788 q 669 1022 677 931 q 387 1278 647 1278 l 357 1278 l 357 736 m 597 1601 l 353 1458 l 317 1508 l 536 1685 l 597 1601 z "},"Ř":{"ha":1058,"x_min":109,"x_max":988,"o":"m 988 -38 q 941 -53 972 -50 q 887 -52 911 -56 q 617 179 726 -26 q 536 377 571 262 q 480 611 500 492 q 413 617 448 611 q 357 633 387 621 l 357 137 q 370 104 357 117 q 401 91 383 91 l 450 91 l 450 0 l 109 0 l 109 91 l 157 91 q 188 104 175 91 q 200 137 200 117 l 200 1256 q 188 1289 200 1276 q 157 1302 175 1302 l 109 1302 l 109 1389 l 454 1389 q 636 1342 548 1389 q 780 1208 724 1296 q 835 1006 835 1121 q 782 798 835 893 q 637 653 728 702 q 692 379 667 490 q 795 137 724 246 q 942 28 865 28 q 964 30 956 28 l 988 -38 m 357 736 q 448 710 397 710 q 563 749 508 710 q 647 859 617 788 q 669 1022 677 931 q 387 1278 647 1278 l 357 1278 l 357 736 m 458 1569 l 657 1631 l 657 1567 l 458 1458 l 258 1567 l 258 1631 l 458 1569 z "},"Ŗ":{"ha":1058,"x_min":109,"x_max":988,"o":"m 988 -38 q 941 -53 972 -50 q 887 -52 911 -56 q 617 179 726 -26 q 536 377 571 262 q 480 611 500 492 q 413 617 448 611 q 357 633 387 621 l 357 137 q 370 104 357 117 q 401 91 383 91 l 450 91 l 450 0 l 109 0 l 109 91 l 157 91 q 188 104 175 91 q 200 137 200 117 l 200 1256 q 188 1289 200 1276 q 157 1302 175 1302 l 109 1302 l 109 1389 l 454 1389 q 636 1342 548 1389 q 780 1208 724 1296 q 835 1006 835 1121 q 782 798 835 893 q 637 653 728 702 q 692 379 667 490 q 795 137 724 246 q 942 28 865 28 q 964 30 956 28 l 988 -38 m 357 736 q 448 710 397 710 q 563 749 508 710 q 647 859 617 788 q 669 1022 677 931 q 387 1278 647 1278 l 357 1278 l 357 736 m 474 -323 q 504 -234 504 -274 q 463 -205 480 -226 q 446 -159 446 -185 q 469 -104 446 -127 q 522 -81 492 -81 q 579 -109 556 -81 q 603 -171 603 -137 q 581 -250 603 -214 q 530 -306 560 -286 q 474 -323 500 -325 z "},"S":{"ha":827,"x_min":103,"x_max":738,"o":"m 103 -46 l 103 347 l 208 347 q 262 156 208 238 q 407 73 315 73 q 485 93 444 73 q 554 156 526 113 q 581 262 581 198 q 550 408 581 335 q 477 539 518 480 q 353 706 437 597 q 179 960 234 863 q 123 1161 123 1058 q 188 1344 123 1284 q 335 1409 252 1405 q 416 1406 385 1413 q 465 1390 446 1399 q 492 1379 484 1381 q 520 1375 504 1375 q 577 1419 565 1375 l 645 1419 l 645 1073 l 563 1073 q 517 1235 563 1163 q 391 1308 470 1308 q 307 1273 337 1308 q 276 1183 276 1238 q 304 1066 276 1121 q 427 875 331 1012 q 502 772 450 837 q 677 509 615 621 q 738 274 738 397 q 732 204 738 240 q 663 59 716 117 q 542 -25 609 0 q 419 -44 474 -50 q 353 -31 379 -40 q 307 -12 327 -22 q 274 2 286 -2 q 248 8 260 8 q 214 -7 228 8 q 196 -46 200 -22 l 103 -46 z "},"Ś":{"ha":827,"x_min":103,"x_max":738,"o":"m 103 -46 l 103 347 l 208 347 q 262 156 208 238 q 407 73 315 73 q 485 93 444 73 q 554 156 526 113 q 581 262 581 198 q 550 408 581 335 q 477 539 518 480 q 353 706 437 597 q 179 960 234 863 q 123 1161 123 1058 q 188 1344 123 1284 q 335 1409 252 1405 q 416 1406 385 1413 q 465 1390 446 1399 q 492 1379 484 1381 q 520 1375 504 1375 q 577 1419 565 1375 l 645 1419 l 645 1073 l 563 1073 q 517 1235 563 1163 q 391 1308 470 1308 q 307 1273 337 1308 q 276 1183 276 1238 q 304 1066 276 1121 q 427 875 331 1012 q 502 772 450 837 q 677 509 615 621 q 738 274 738 397 q 732 204 738 240 q 663 59 716 117 q 542 -25 609 0 q 419 -44 474 -50 q 353 -31 379 -40 q 307 -12 327 -22 q 274 2 286 -2 q 248 8 260 8 q 214 -7 228 8 q 196 -46 200 -22 l 103 -46 m 532 1615 l 288 1472 l 252 1522 l 470 1698 l 532 1615 z "},"Š":{"ha":827,"x_min":103,"x_max":738,"o":"m 103 -46 l 103 347 l 208 347 q 262 156 208 238 q 407 73 315 73 q 485 93 444 73 q 554 156 526 113 q 581 262 581 198 q 550 408 581 335 q 477 539 518 480 q 353 706 437 597 q 179 960 234 863 q 123 1161 123 1058 q 188 1344 123 1284 q 335 1409 252 1405 q 416 1406 385 1413 q 465 1390 446 1399 q 492 1379 484 1381 q 520 1375 504 1375 q 577 1419 565 1375 l 645 1419 l 645 1073 l 563 1073 q 517 1235 563 1163 q 391 1308 470 1308 q 307 1273 337 1308 q 276 1183 276 1238 q 304 1066 276 1121 q 427 875 331 1012 q 502 772 450 837 q 677 509 615 621 q 738 274 738 397 q 732 204 738 240 q 663 59 716 117 q 542 -25 609 0 q 419 -44 474 -50 q 353 -31 379 -40 q 307 -12 327 -22 q 274 2 286 -2 q 248 8 260 8 q 214 -7 228 8 q 196 -46 200 -22 l 103 -46 m 393 1583 l 591 1645 l 591 1581 l 393 1472 l 192 1581 l 192 1645 l 393 1583 z "},"Ş":{"ha":827,"x_min":103,"x_max":738,"o":"m 427 875 q 502 772 450 837 q 677 509 615 621 q 738 274 738 397 q 732 204 738 240 q 668 63 718 119 q 554 -20 617 6 q 433 -44 490 -46 l 421 -69 q 480 -108 450 -79 q 510 -188 510 -137 q 473 -277 510 -244 q 385 -310 437 -310 q 324 -297 353 -310 q 278 -256 296 -284 l 306 -224 q 369 -244 339 -244 q 416 -227 399 -244 q 433 -181 433 -210 q 403 -125 433 -143 q 333 -103 373 -107 l 365 -34 q 310 -14 335 -26 q 274 2 284 -2 q 248 8 260 8 q 214 -7 228 8 q 196 -46 200 -22 l 103 -46 l 103 347 l 208 347 q 262 156 208 238 q 407 73 315 73 q 485 93 444 73 q 554 156 526 113 q 581 262 581 198 q 550 408 581 335 q 477 539 518 480 q 353 706 437 597 q 179 960 234 863 q 123 1161 123 1058 q 188 1344 123 1284 q 335 1409 252 1405 q 416 1406 385 1413 q 465 1390 446 1399 q 492 1379 484 1381 q 520 1375 504 1375 q 577 1419 565 1375 l 645 1419 l 645 1073 l 563 1073 q 517 1235 563 1163 q 391 1308 470 1308 q 307 1273 337 1308 q 276 1183 276 1238 q 304 1066 276 1121 q 427 875 331 1012 z "},"Ș":{"ha":827,"x_min":103,"x_max":738,"o":"m 103 -46 l 103 347 l 208 347 q 262 156 208 238 q 407 73 315 73 q 485 93 444 73 q 554 156 526 113 q 581 262 581 198 q 550 408 581 335 q 477 539 518 480 q 353 706 437 597 q 179 960 234 863 q 123 1161 123 1058 q 188 1344 123 1284 q 335 1409 252 1405 q 416 1406 385 1413 q 465 1390 446 1399 q 492 1379 484 1381 q 520 1375 504 1375 q 577 1419 565 1375 l 645 1419 l 645 1073 l 563 1073 q 517 1235 563 1163 q 391 1308 470 1308 q 307 1273 337 1308 q 276 1183 276 1238 q 304 1066 276 1121 q 427 875 331 1012 q 502 772 450 837 q 677 509 615 621 q 738 274 738 397 q 732 204 738 240 q 663 59 716 117 q 542 -25 609 0 q 419 -44 474 -50 q 353 -31 379 -40 q 307 -12 327 -22 q 274 2 286 -2 q 248 8 260 8 q 214 -7 228 8 q 196 -46 200 -22 l 103 -46 m 347 -355 q 377 -266 377 -306 q 336 -237 353 -258 q 319 -190 319 -216 q 342 -136 319 -159 q 395 -113 365 -113 q 452 -141 429 -113 q 476 -202 476 -169 q 454 -282 476 -246 q 403 -337 433 -317 q 347 -355 373 -357 z "},"T":{"ha":962,"x_min":95,"x_max":867,"o":"m 867 1133 l 770 1133 l 770 1161 q 748 1258 770 1228 q 663 1288 726 1288 l 554 1288 l 554 137 q 566 104 554 117 q 599 91 579 91 l 647 91 l 647 0 l 315 0 l 315 91 l 363 91 q 394 104 381 91 q 407 137 407 117 l 407 1288 l 296 1288 q 215 1257 238 1288 q 192 1161 192 1226 l 192 1133 l 95 1133 l 95 1389 l 867 1389 l 867 1133 z "},"Ŧ":{"ha":962,"x_min":95,"x_max":867,"o":"m 867 1133 l 770 1133 l 770 1161 q 748 1258 770 1228 q 663 1288 726 1288 l 554 1288 l 554 786 l 692 786 l 692 665 l 554 665 l 554 137 q 566 104 554 117 q 599 91 579 91 l 647 91 l 647 0 l 315 0 l 315 91 l 363 91 q 394 104 381 91 q 407 137 407 117 l 407 665 l 266 665 l 266 786 l 407 786 l 407 1288 l 296 1288 q 215 1257 238 1288 q 192 1161 192 1226 l 192 1133 l 95 1133 l 95 1389 l 867 1389 l 867 1133 z "},"Ť":{"ha":962,"x_min":95,"x_max":867,"o":"m 867 1133 l 770 1133 l 770 1161 q 748 1258 770 1228 q 663 1288 726 1288 l 554 1288 l 554 137 q 566 104 554 117 q 599 91 579 91 l 647 91 l 647 0 l 315 0 l 315 91 l 363 91 q 394 104 381 91 q 407 137 407 117 l 407 1288 l 296 1288 q 215 1257 238 1288 q 192 1161 192 1226 l 192 1133 l 95 1133 l 95 1389 l 867 1389 l 867 1133 m 478 1569 l 677 1631 l 677 1567 l 478 1458 l 278 1567 l 278 1631 l 478 1569 z "},"Ţ":{"ha":962,"x_min":95,"x_max":867,"o":"m 867 1133 l 770 1133 l 770 1161 q 748 1258 770 1228 q 663 1288 726 1288 l 554 1288 l 554 137 q 566 104 554 117 q 599 91 579 91 l 647 91 l 647 0 l 522 0 l 502 -38 q 562 -76 532 -48 q 591 -157 591 -105 q 555 -245 591 -212 q 466 -278 518 -278 q 406 -265 435 -278 q 359 -224 377 -252 l 387 -192 q 450 -212 421 -212 q 497 -195 480 -212 q 514 -149 514 -179 q 484 -93 514 -111 q 415 -71 454 -75 l 446 0 l 315 0 l 315 91 l 363 91 q 394 104 381 91 q 407 137 407 117 l 407 1288 l 296 1288 q 215 1257 238 1288 q 192 1161 192 1226 l 192 1133 l 95 1133 l 95 1389 l 867 1389 l 867 1133 z "},"Ț":{"ha":962,"x_min":95,"x_max":867,"o":"m 867 1133 l 770 1133 l 770 1161 q 748 1258 770 1228 q 663 1288 726 1288 l 554 1288 l 554 137 q 566 104 554 117 q 599 91 579 91 l 647 91 l 647 0 l 315 0 l 315 91 l 363 91 q 394 104 381 91 q 407 137 407 117 l 407 1288 l 296 1288 q 215 1257 238 1288 q 192 1161 192 1226 l 192 1133 l 95 1133 l 95 1389 l 867 1389 l 867 1133 m 429 -323 q 458 -234 458 -274 q 418 -205 435 -226 q 401 -159 401 -185 q 424 -104 401 -127 q 476 -81 446 -81 q 534 -109 510 -81 q 558 -171 558 -137 q 536 -250 558 -214 q 484 -306 514 -286 q 429 -323 454 -325 z "},"U":{"ha":1075,"x_min":99,"x_max":976,"o":"m 546 -40 q 370 6 452 -40 q 237 141 288 52 q 187 353 187 230 l 187 1224 q 170 1283 187 1264 q 115 1302 153 1302 l 99 1302 l 99 1389 l 429 1389 l 429 1302 l 417 1302 q 339 1224 339 1302 l 339 371 q 398 152 339 230 q 560 73 456 73 q 715 141 659 73 q 772 345 772 208 l 772 1224 q 757 1284 772 1266 q 706 1302 742 1302 l 692 1302 l 692 1389 l 976 1389 l 976 1302 l 962 1302 q 901 1283 921 1302 q 881 1224 881 1264 l 881 347 q 836 137 881 224 q 715 5 792 50 q 546 -40 639 -40 z "},"Ú":{"ha":1075,"x_min":99,"x_max":976,"o":"m 546 -40 q 370 6 452 -40 q 237 141 288 52 q 187 353 187 230 l 187 1224 q 170 1283 187 1264 q 115 1302 153 1302 l 99 1302 l 99 1389 l 429 1389 l 429 1302 l 417 1302 q 339 1224 339 1302 l 339 371 q 398 152 339 230 q 560 73 456 73 q 715 141 659 73 q 772 345 772 208 l 772 1224 q 757 1284 772 1266 q 706 1302 742 1302 l 692 1302 l 692 1389 l 976 1389 l 976 1302 l 962 1302 q 901 1283 921 1302 q 881 1224 881 1264 l 881 347 q 836 137 881 224 q 715 5 792 50 q 546 -40 639 -40 m 698 1601 l 454 1458 l 419 1508 l 637 1685 l 698 1601 z "},"Ǔ":{"ha":1075,"x_min":99,"x_max":976,"o":"m 546 -40 q 370 6 452 -40 q 237 141 288 52 q 187 353 187 230 l 187 1224 q 170 1283 187 1264 q 115 1302 153 1302 l 99 1302 l 99 1389 l 429 1389 l 429 1302 l 417 1302 q 339 1224 339 1302 l 339 371 q 398 152 339 230 q 560 73 456 73 q 715 141 659 73 q 772 345 772 208 l 772 1224 q 757 1284 772 1266 q 706 1302 742 1302 l 692 1302 l 692 1389 l 976 1389 l 976 1302 l 962 1302 q 901 1283 921 1302 q 881 1224 881 1264 l 881 347 q 836 137 881 224 q 715 5 792 50 q 546 -40 639 -40 m 560 1569 l 758 1631 l 758 1567 l 560 1458 l 359 1567 l 359 1631 l 560 1569 z "},"Û":{"ha":1075,"x_min":99,"x_max":976,"o":"m 546 -40 q 370 6 452 -40 q 237 141 288 52 q 187 353 187 230 l 187 1224 q 170 1283 187 1264 q 115 1302 153 1302 l 99 1302 l 99 1389 l 429 1389 l 429 1302 l 417 1302 q 339 1224 339 1302 l 339 371 q 398 152 339 230 q 560 73 456 73 q 715 141 659 73 q 772 345 772 208 l 772 1224 q 757 1284 772 1266 q 706 1302 742 1302 l 692 1302 l 692 1389 l 976 1389 l 976 1302 l 962 1302 q 901 1283 921 1302 q 881 1224 881 1264 l 881 347 q 836 137 881 224 q 715 5 792 50 q 546 -40 639 -40 m 560 1522 l 361 1460 l 361 1524 l 560 1633 l 760 1524 l 760 1460 l 560 1522 z "},"Ü":{"ha":1075,"x_min":99,"x_max":976,"o":"m 546 -40 q 370 6 452 -40 q 237 141 288 52 q 187 353 187 230 l 187 1224 q 170 1283 187 1264 q 115 1302 153 1302 l 99 1302 l 99 1389 l 429 1389 l 429 1302 l 417 1302 q 339 1224 339 1302 l 339 371 q 398 152 339 230 q 560 73 456 73 q 715 141 659 73 q 772 345 772 208 l 772 1224 q 757 1284 772 1266 q 706 1302 742 1302 l 692 1302 l 692 1389 l 976 1389 l 976 1302 l 962 1302 q 901 1283 921 1302 q 881 1224 881 1264 l 881 347 q 836 137 881 224 q 715 5 792 50 q 546 -40 639 -40 m 419 1470 q 361 1495 385 1470 q 337 1554 337 1520 q 361 1611 337 1587 q 419 1635 385 1635 q 475 1611 450 1635 q 500 1554 500 1587 q 476 1495 500 1520 q 419 1470 452 1470 m 702 1470 q 645 1495 669 1470 q 621 1554 621 1520 q 645 1611 621 1587 q 702 1635 669 1635 q 759 1611 734 1635 q 784 1554 784 1587 q 760 1495 784 1520 q 702 1470 736 1470 z "},"Ǘ":{"ha":1075,"x_min":99,"x_max":976,"o":"m 546 -40 q 370 6 452 -40 q 237 141 288 52 q 187 353 187 230 l 187 1224 q 170 1283 187 1264 q 115 1302 153 1302 l 99 1302 l 99 1389 l 429 1389 l 429 1302 l 417 1302 q 339 1224 339 1302 l 339 371 q 398 152 339 230 q 560 73 456 73 q 715 141 659 73 q 772 345 772 208 l 772 1224 q 757 1284 772 1266 q 706 1302 742 1302 l 692 1302 l 692 1389 l 976 1389 l 976 1302 l 962 1302 q 901 1283 921 1302 q 881 1224 881 1264 l 881 347 q 836 137 881 224 q 715 5 792 50 q 546 -40 639 -40 z "},"Ǚ":{"ha":1075,"x_min":99,"x_max":976,"o":"m 546 -40 q 370 6 452 -40 q 237 141 288 52 q 187 353 187 230 l 187 1224 q 170 1283 187 1264 q 115 1302 153 1302 l 99 1302 l 99 1389 l 429 1389 l 429 1302 l 417 1302 q 339 1224 339 1302 l 339 371 q 398 152 339 230 q 560 73 456 73 q 715 141 659 73 q 772 345 772 208 l 772 1224 q 757 1284 772 1266 q 706 1302 742 1302 l 692 1302 l 692 1389 l 976 1389 l 976 1302 l 962 1302 q 901 1283 921 1302 q 881 1224 881 1264 l 881 347 q 836 137 881 224 q 715 5 792 50 q 546 -40 639 -40 z "},"Ǜ":{"ha":1075,"x_min":99,"x_max":976,"o":"m 546 -40 q 370 6 452 -40 q 237 141 288 52 q 187 353 187 230 l 187 1224 q 170 1283 187 1264 q 115 1302 153 1302 l 99 1302 l 99 1389 l 429 1389 l 429 1302 l 417 1302 q 339 1224 339 1302 l 339 371 q 398 152 339 230 q 560 73 456 73 q 715 141 659 73 q 772 345 772 208 l 772 1224 q 757 1284 772 1266 q 706 1302 742 1302 l 692 1302 l 692 1389 l 976 1389 l 976 1302 l 962 1302 q 901 1283 921 1302 q 881 1224 881 1264 l 881 347 q 836 137 881 224 q 715 5 792 50 q 546 -40 639 -40 z "},"Ǖ":{"ha":1075,"x_min":99,"x_max":976,"o":"m 546 -40 q 370 6 452 -40 q 237 141 288 52 q 187 353 187 230 l 187 1224 q 170 1283 187 1264 q 115 1302 153 1302 l 99 1302 l 99 1389 l 429 1389 l 429 1302 l 417 1302 q 339 1224 339 1302 l 339 371 q 398 152 339 230 q 560 73 456 73 q 715 141 659 73 q 772 345 772 208 l 772 1224 q 757 1284 772 1266 q 706 1302 742 1302 l 692 1302 l 692 1389 l 976 1389 l 976 1302 l 962 1302 q 901 1283 921 1302 q 881 1224 881 1264 l 881 347 q 836 137 881 224 q 715 5 792 50 q 546 -40 639 -40 z "},"Ụ":{"ha":1075,"x_min":99,"x_max":976,"o":"m 546 -40 q 370 6 452 -40 q 237 141 288 52 q 187 353 187 230 l 187 1224 q 170 1283 187 1264 q 115 1302 153 1302 l 99 1302 l 99 1389 l 429 1389 l 429 1302 l 417 1302 q 339 1224 339 1302 l 339 371 q 398 152 339 230 q 560 73 456 73 q 715 141 659 73 q 772 345 772 208 l 772 1224 q 757 1284 772 1266 q 706 1302 742 1302 l 692 1302 l 692 1389 l 976 1389 l 976 1302 l 962 1302 q 901 1283 921 1302 q 881 1224 881 1264 l 881 347 q 836 137 881 224 q 715 5 792 50 q 546 -40 639 -40 m 560 -272 q 502 -247 526 -272 q 478 -188 478 -222 q 502 -132 478 -157 q 560 -107 526 -107 q 616 -132 591 -107 q 641 -188 641 -157 q 617 -247 641 -222 q 560 -272 593 -272 z "},"Ù":{"ha":1075,"x_min":99,"x_max":976,"o":"m 546 -40 q 370 6 452 -40 q 237 141 288 52 q 187 353 187 230 l 187 1224 q 170 1283 187 1264 q 115 1302 153 1302 l 99 1302 l 99 1389 l 429 1389 l 429 1302 l 417 1302 q 339 1224 339 1302 l 339 371 q 398 152 339 230 q 560 73 456 73 q 715 141 659 73 q 772 345 772 208 l 772 1224 q 757 1284 772 1266 q 706 1302 742 1302 l 692 1302 l 692 1389 l 976 1389 l 976 1302 l 962 1302 q 901 1283 921 1302 q 881 1224 881 1264 l 881 347 q 836 137 881 224 q 715 5 792 50 q 546 -40 639 -40 m 698 1508 l 663 1458 l 419 1601 l 480 1685 l 698 1508 z "},"Ủ":{"ha":1075,"x_min":99,"x_max":976,"o":"m 546 -40 q 370 6 452 -40 q 237 141 288 52 q 187 353 187 230 l 187 1224 q 170 1283 187 1264 q 115 1302 153 1302 l 99 1302 l 99 1389 l 429 1389 l 429 1302 l 417 1302 q 339 1224 339 1302 l 339 371 q 398 152 339 230 q 560 73 456 73 q 715 141 659 73 q 772 345 772 208 l 772 1224 q 757 1284 772 1266 q 706 1302 742 1302 l 692 1302 l 692 1389 l 976 1389 l 976 1302 l 962 1302 q 901 1283 921 1302 q 881 1224 881 1264 l 881 347 q 836 137 881 224 q 715 5 792 50 q 546 -40 639 -40 m 532 1456 q 550 1510 536 1490 q 585 1550 563 1530 q 610 1576 601 1563 q 619 1607 619 1589 q 601 1653 619 1637 q 558 1669 583 1669 q 496 1641 518 1669 l 464 1692 q 517 1730 486 1716 q 579 1744 548 1744 q 669 1708 633 1744 q 700 1631 700 1677 q 682 1563 700 1597 q 629 1506 663 1530 q 600 1483 611 1494 q 587 1456 589 1472 l 532 1456 z "},"Ư":{"ha":1075,"x_min":99,"x_max":1087,"o":"m 1073 1446 q 1087 1403 1087 1427 q 1076 1362 1087 1383 q 1048 1327 1065 1341 q 944 1300 1000 1296 q 881 1224 881 1294 l 881 347 q 836 137 881 224 q 715 5 792 50 q 546 -40 639 -40 q 370 6 452 -40 q 237 141 288 52 q 187 353 187 230 l 187 1224 q 170 1283 187 1264 q 115 1302 153 1302 l 99 1302 l 99 1389 l 429 1389 l 429 1302 l 417 1302 q 339 1224 339 1302 l 339 371 q 398 152 339 230 q 560 73 456 73 q 715 141 659 73 q 772 345 772 208 l 772 1224 q 757 1284 772 1266 q 706 1302 742 1302 l 692 1302 l 692 1389 l 940 1389 q 944 1428 937 1409 q 968 1460 952 1446 q 1012 1474 988 1474 q 1073 1446 1050 1474 z "},"Ứ":{"ha":1075,"x_min":99,"x_max":1087,"o":"m 1073 1446 q 1087 1403 1087 1427 q 1076 1362 1087 1383 q 1048 1327 1065 1341 q 944 1300 1000 1296 q 881 1224 881 1294 l 881 347 q 836 137 881 224 q 715 5 792 50 q 546 -40 639 -40 q 370 6 452 -40 q 237 141 288 52 q 187 353 187 230 l 187 1224 q 170 1283 187 1264 q 115 1302 153 1302 l 99 1302 l 99 1389 l 429 1389 l 429 1302 l 417 1302 q 339 1224 339 1302 l 339 371 q 398 152 339 230 q 560 73 456 73 q 715 141 659 73 q 772 345 772 208 l 772 1224 q 757 1284 772 1266 q 706 1302 742 1302 l 692 1302 l 692 1389 l 940 1389 q 944 1428 937 1409 q 968 1460 952 1446 q 1012 1474 988 1474 q 1073 1446 1050 1474 m 698 1601 l 454 1458 l 419 1508 l 637 1685 l 698 1601 z "},"Ự":{"ha":1075,"x_min":99,"x_max":1087,"o":"m 1073 1446 q 1087 1403 1087 1427 q 1076 1362 1087 1383 q 1048 1327 1065 1341 q 944 1300 1000 1296 q 881 1224 881 1294 l 881 347 q 836 137 881 224 q 715 5 792 50 q 546 -40 639 -40 q 370 6 452 -40 q 237 141 288 52 q 187 353 187 230 l 187 1224 q 170 1283 187 1264 q 115 1302 153 1302 l 99 1302 l 99 1389 l 429 1389 l 429 1302 l 417 1302 q 339 1224 339 1302 l 339 371 q 398 152 339 230 q 560 73 456 73 q 715 141 659 73 q 772 345 772 208 l 772 1224 q 757 1284 772 1266 q 706 1302 742 1302 l 692 1302 l 692 1389 l 940 1389 q 944 1428 937 1409 q 968 1460 952 1446 q 1012 1474 988 1474 q 1073 1446 1050 1474 m 560 -272 q 502 -247 526 -272 q 478 -188 478 -222 q 502 -132 478 -157 q 560 -107 526 -107 q 616 -132 591 -107 q 641 -188 641 -157 q 617 -247 641 -222 q 560 -272 593 -272 z "},"Ừ":{"ha":1075,"x_min":99,"x_max":1087,"o":"m 1073 1446 q 1087 1403 1087 1427 q 1076 1362 1087 1383 q 1048 1327 1065 1341 q 944 1300 1000 1296 q 881 1224 881 1294 l 881 347 q 836 137 881 224 q 715 5 792 50 q 546 -40 639 -40 q 370 6 452 -40 q 237 141 288 52 q 187 353 187 230 l 187 1224 q 170 1283 187 1264 q 115 1302 153 1302 l 99 1302 l 99 1389 l 429 1389 l 429 1302 l 417 1302 q 339 1224 339 1302 l 339 371 q 398 152 339 230 q 560 73 456 73 q 715 141 659 73 q 772 345 772 208 l 772 1224 q 757 1284 772 1266 q 706 1302 742 1302 l 692 1302 l 692 1389 l 940 1389 q 944 1428 937 1409 q 968 1460 952 1446 q 1012 1474 988 1474 q 1073 1446 1050 1474 m 698 1508 l 663 1458 l 419 1601 l 480 1685 l 698 1508 z "},"Ử":{"ha":1075,"x_min":99,"x_max":1087,"o":"m 1073 1446 q 1087 1403 1087 1427 q 1076 1362 1087 1383 q 1048 1327 1065 1341 q 944 1300 1000 1296 q 881 1224 881 1294 l 881 347 q 836 137 881 224 q 715 5 792 50 q 546 -40 639 -40 q 370 6 452 -40 q 237 141 288 52 q 187 353 187 230 l 187 1224 q 170 1283 187 1264 q 115 1302 153 1302 l 99 1302 l 99 1389 l 429 1389 l 429 1302 l 417 1302 q 339 1224 339 1302 l 339 371 q 398 152 339 230 q 560 73 456 73 q 715 141 659 73 q 772 345 772 208 l 772 1224 q 757 1284 772 1266 q 706 1302 742 1302 l 692 1302 l 692 1389 l 940 1389 q 944 1428 937 1409 q 968 1460 952 1446 q 1012 1474 988 1474 q 1073 1446 1050 1474 m 532 1456 q 550 1510 536 1490 q 585 1550 563 1530 q 610 1576 601 1563 q 619 1607 619 1589 q 601 1653 619 1637 q 558 1669 583 1669 q 496 1641 518 1669 l 464 1692 q 517 1730 486 1716 q 579 1744 548 1744 q 669 1708 633 1744 q 700 1631 700 1677 q 682 1563 700 1597 q 629 1506 663 1530 q 600 1483 611 1494 q 587 1456 589 1472 l 532 1456 z "},"Ữ":{"ha":1075,"x_min":99,"x_max":1087,"o":"m 1073 1446 q 1087 1403 1087 1427 q 1076 1362 1087 1383 q 1048 1327 1065 1341 q 944 1300 1000 1296 q 881 1224 881 1294 l 881 347 q 836 137 881 224 q 715 5 792 50 q 546 -40 639 -40 q 370 6 452 -40 q 237 141 288 52 q 187 353 187 230 l 187 1224 q 170 1283 187 1264 q 115 1302 153 1302 l 99 1302 l 99 1389 l 429 1389 l 429 1302 l 417 1302 q 339 1224 339 1302 l 339 371 q 398 152 339 230 q 560 73 456 73 q 715 141 659 73 q 772 345 772 208 l 772 1224 q 757 1284 772 1266 q 706 1302 742 1302 l 692 1302 l 692 1389 l 940 1389 q 944 1428 937 1409 q 968 1460 952 1446 q 1012 1474 988 1474 q 1073 1446 1050 1474 m 353 1522 q 470 1585 379 1585 q 571 1567 520 1585 q 685 1542 649 1542 q 756 1575 730 1542 l 766 1520 q 714 1472 748 1488 q 637 1456 681 1456 q 544 1474 583 1456 q 437 1502 484 1502 q 363 1468 389 1502 l 353 1522 z "},"Ű":{"ha":1075,"x_min":99,"x_max":976,"o":"m 546 -40 q 370 6 452 -40 q 237 141 288 52 q 187 353 187 230 l 187 1224 q 170 1283 187 1264 q 115 1302 153 1302 l 99 1302 l 99 1389 l 429 1389 l 429 1302 l 417 1302 q 339 1224 339 1302 l 339 371 q 398 152 339 230 q 560 73 456 73 q 715 141 659 73 q 772 345 772 208 l 772 1224 q 757 1284 772 1266 q 706 1302 742 1302 l 692 1302 l 692 1389 l 976 1389 l 976 1302 l 962 1302 q 901 1283 921 1302 q 881 1224 881 1264 l 881 347 q 836 137 881 224 q 715 5 792 50 q 546 -40 639 -40 z "},"Ū":{"ha":1075,"x_min":99,"x_max":976,"o":"m 546 -40 q 370 6 452 -40 q 237 141 288 52 q 187 353 187 230 l 187 1224 q 170 1283 187 1264 q 115 1302 153 1302 l 99 1302 l 99 1389 l 429 1389 l 429 1302 l 417 1302 q 339 1224 339 1302 l 339 371 q 398 152 339 230 q 560 73 456 73 q 715 141 659 73 q 772 345 772 208 l 772 1224 q 757 1284 772 1266 q 706 1302 742 1302 l 692 1302 l 692 1389 l 976 1389 l 976 1302 l 962 1302 q 901 1283 921 1302 q 881 1224 881 1264 l 881 347 q 836 137 881 224 q 715 5 792 50 q 546 -40 639 -40 m 744 1508 l 377 1508 l 377 1599 l 744 1599 l 744 1508 z "},"Ų":{"ha":1075,"x_min":99,"x_max":976,"o":"m 692 1389 l 976 1389 l 976 1302 l 962 1302 q 901 1283 921 1302 q 881 1224 881 1264 l 881 347 q 804 83 881 183 q 603 -36 726 -16 q 549 -83 571 -54 q 526 -149 526 -113 q 544 -198 526 -181 q 591 -216 562 -216 q 653 -198 621 -216 l 677 -230 q 567 -286 633 -286 q 480 -254 516 -286 q 444 -169 444 -222 q 516 -38 444 -87 q 353 16 429 -32 q 232 150 278 63 q 187 353 187 236 l 187 1224 q 170 1283 187 1264 q 115 1302 153 1302 l 99 1302 l 99 1389 l 429 1389 l 429 1302 l 417 1302 q 339 1224 339 1302 l 339 371 q 398 152 339 230 q 560 73 456 73 q 715 141 659 73 q 772 345 772 208 l 772 1224 q 757 1284 772 1266 q 706 1302 742 1302 l 692 1302 l 692 1389 z "},"Ů":{"ha":1075,"x_min":99,"x_max":976,"o":"m 546 -40 q 370 6 452 -40 q 237 141 288 52 q 187 353 187 230 l 187 1224 q 170 1283 187 1264 q 115 1302 153 1302 l 99 1302 l 99 1389 l 429 1389 l 429 1302 l 417 1302 q 339 1224 339 1302 l 339 371 q 398 152 339 230 q 560 73 456 73 q 715 141 659 73 q 772 345 772 208 l 772 1224 q 757 1284 772 1266 q 706 1302 742 1302 l 692 1302 l 692 1389 l 976 1389 l 976 1302 l 962 1302 q 901 1283 921 1302 q 881 1224 881 1264 l 881 347 q 836 137 881 224 q 715 5 792 50 q 546 -40 639 -40 m 560 1442 q 442 1494 494 1442 q 391 1611 391 1546 q 442 1728 391 1679 q 560 1778 494 1778 q 675 1726 623 1778 q 726 1611 726 1675 q 676 1492 726 1542 q 560 1442 625 1442 m 556 1520 q 621 1545 593 1520 q 649 1607 649 1569 q 624 1673 649 1645 q 563 1700 599 1700 q 496 1676 524 1700 q 468 1615 468 1651 q 493 1548 468 1575 q 556 1520 518 1520 z "},"Ũ":{"ha":1075,"x_min":99,"x_max":976,"o":"m 546 -40 q 370 6 452 -40 q 237 141 288 52 q 187 353 187 230 l 187 1224 q 170 1283 187 1264 q 115 1302 153 1302 l 99 1302 l 99 1389 l 429 1389 l 429 1302 l 417 1302 q 339 1224 339 1302 l 339 371 q 398 152 339 230 q 560 73 456 73 q 715 141 659 73 q 772 345 772 208 l 772 1224 q 757 1284 772 1266 q 706 1302 742 1302 l 692 1302 l 692 1389 l 976 1389 l 976 1302 l 962 1302 q 901 1283 921 1302 q 881 1224 881 1264 l 881 347 q 836 137 881 224 q 715 5 792 50 q 546 -40 639 -40 m 353 1522 q 470 1585 379 1585 q 571 1567 520 1585 q 685 1542 649 1542 q 756 1575 730 1542 l 766 1520 q 714 1472 748 1488 q 637 1456 681 1456 q 544 1474 583 1456 q 437 1502 484 1502 q 363 1468 389 1502 l 353 1522 z "},"V":{"ha":1093,"x_min":69,"x_max":1024,"o":"m 171 1240 q 138 1291 159 1280 q 83 1302 117 1302 l 69 1302 l 69 1389 l 415 1389 l 415 1302 l 367 1302 q 317 1268 317 1302 l 321 1244 l 573 397 l 802 1236 q 806 1258 806 1252 q 744 1302 806 1302 l 708 1302 l 708 1389 l 1024 1389 l 1024 1302 l 1008 1302 q 941 1294 960 1302 q 913 1250 923 1286 l 562 -36 l 554 -36 l 171 1240 z "},"W":{"ha":1437,"x_min":69,"x_max":1367,"o":"m 190 1212 q 163 1282 179 1262 q 119 1302 147 1302 l 69 1302 l 69 1389 l 419 1389 l 419 1302 l 365 1302 q 321 1268 321 1302 q 325 1248 321 1264 l 532 446 l 738 1391 l 746 1391 l 984 466 l 1159 1246 q 1152 1287 1165 1272 q 1109 1302 1139 1302 l 1063 1302 l 1063 1389 l 1367 1389 l 1367 1302 q 1293 1288 1319 1302 q 1258 1236 1266 1274 l 968 -48 l 960 -48 l 726 855 l 522 -58 l 514 -58 l 190 1212 z "},"Ẃ":{"ha":1437,"x_min":69,"x_max":1367,"o":"m 190 1212 q 163 1282 179 1262 q 119 1302 147 1302 l 69 1302 l 69 1389 l 419 1389 l 419 1302 l 365 1302 q 321 1268 321 1302 q 325 1248 321 1264 l 532 446 l 738 1391 l 746 1391 l 984 466 l 1159 1246 q 1152 1287 1165 1272 q 1109 1302 1139 1302 l 1063 1302 l 1063 1389 l 1367 1389 l 1367 1302 q 1293 1288 1319 1302 q 1258 1236 1266 1274 l 968 -48 l 960 -48 l 726 855 l 522 -58 l 514 -58 l 190 1212 m 881 1603 l 637 1460 l 601 1510 l 819 1687 l 881 1603 z "},"Ŵ":{"ha":1437,"x_min":69,"x_max":1367,"o":"m 190 1212 q 163 1282 179 1262 q 119 1302 147 1302 l 69 1302 l 69 1389 l 419 1389 l 419 1302 l 365 1302 q 321 1268 321 1302 q 325 1248 321 1264 l 532 446 l 738 1391 l 746 1391 l 984 466 l 1159 1246 q 1152 1287 1165 1272 q 1109 1302 1139 1302 l 1063 1302 l 1063 1389 l 1367 1389 l 1367 1302 q 1293 1288 1319 1302 q 1258 1236 1266 1274 l 968 -48 l 960 -48 l 726 855 l 522 -58 l 514 -58 l 190 1212 m 742 1524 l 544 1462 l 544 1526 l 742 1635 l 942 1526 l 942 1462 l 742 1524 z "},"Ẅ":{"ha":1437,"x_min":69,"x_max":1367,"o":"m 190 1212 q 163 1282 179 1262 q 119 1302 147 1302 l 69 1302 l 69 1389 l 419 1389 l 419 1302 l 365 1302 q 321 1268 321 1302 q 325 1248 321 1264 l 532 446 l 738 1391 l 746 1391 l 984 466 l 1159 1246 q 1152 1287 1165 1272 q 1109 1302 1139 1302 l 1063 1302 l 1063 1389 l 1367 1389 l 1367 1302 q 1293 1288 1319 1302 q 1258 1236 1266 1274 l 968 -48 l 960 -48 l 726 855 l 522 -58 l 514 -58 l 190 1212 m 601 1472 q 544 1497 567 1472 q 520 1556 520 1522 q 544 1613 520 1589 q 601 1637 567 1637 q 658 1613 633 1637 q 683 1556 683 1589 q 659 1497 683 1522 q 601 1472 635 1472 m 885 1472 q 827 1497 851 1472 q 804 1556 804 1522 q 827 1613 804 1589 q 885 1637 851 1637 q 941 1613 917 1637 q 966 1556 966 1589 q 942 1497 966 1522 q 885 1472 919 1472 z "},"Ẁ":{"ha":1437,"x_min":69,"x_max":1367,"o":"m 190 1212 q 163 1282 179 1262 q 119 1302 147 1302 l 69 1302 l 69 1389 l 419 1389 l 419 1302 l 365 1302 q 321 1268 321 1302 q 325 1248 321 1264 l 532 446 l 738 1391 l 746 1391 l 984 466 l 1159 1246 q 1152 1287 1165 1272 q 1109 1302 1139 1302 l 1063 1302 l 1063 1389 l 1367 1389 l 1367 1302 q 1293 1288 1319 1302 q 1258 1236 1266 1274 l 968 -48 l 960 -48 l 726 855 l 522 -58 l 514 -58 l 190 1212 m 881 1510 l 845 1460 l 601 1603 l 663 1687 l 881 1510 z "},"X":{"ha":1056,"x_min":89,"x_max":956,"o":"m 956 87 l 956 0 l 623 0 l 623 87 l 659 87 q 694 125 694 87 q 687 165 694 147 l 510 607 l 304 151 q 296 119 296 137 q 331 87 296 87 l 377 87 l 377 0 l 89 0 l 89 87 l 121 87 q 174 110 153 87 q 214 177 194 133 l 462 728 l 254 1254 q 227 1294 242 1286 q 179 1302 212 1302 l 151 1302 l 151 1389 l 480 1389 l 480 1302 l 450 1302 q 413 1268 413 1302 q 419 1236 413 1254 l 546 913 l 696 1246 q 702 1268 702 1258 q 689 1292 702 1282 q 655 1302 677 1302 l 629 1302 l 629 1389 l 911 1389 l 911 1302 l 889 1302 q 829 1286 849 1302 q 792 1228 810 1270 l 593 792 l 835 183 q 874 112 855 137 q 927 87 893 87 l 956 87 z "},"Y":{"ha":1065,"x_min":69,"x_max":996,"o":"m 387 0 l 387 91 l 407 91 q 462 111 446 91 q 478 173 478 131 l 478 653 l 194 1218 q 147 1283 171 1264 q 87 1302 123 1302 l 69 1302 l 69 1389 l 403 1389 l 403 1302 l 383 1302 q 337 1278 337 1302 q 347 1248 337 1268 l 571 788 l 788 1252 q 792 1270 792 1260 q 777 1294 792 1286 q 736 1302 762 1302 l 718 1302 l 718 1389 l 996 1389 l 996 1302 l 968 1302 q 918 1290 935 1302 q 889 1252 901 1278 l 625 667 l 625 169 q 639 109 625 127 q 690 91 653 91 l 716 91 l 716 0 l 387 0 z "},"Ý":{"ha":1065,"x_min":69,"x_max":996,"o":"m 387 0 l 387 91 l 407 91 q 462 111 446 91 q 478 173 478 131 l 478 653 l 194 1218 q 147 1283 171 1264 q 87 1302 123 1302 l 69 1302 l 69 1389 l 403 1389 l 403 1302 l 383 1302 q 337 1278 337 1302 q 347 1248 337 1268 l 571 788 l 788 1252 q 792 1270 792 1260 q 777 1294 792 1286 q 736 1302 762 1302 l 718 1302 l 718 1389 l 996 1389 l 996 1302 l 968 1302 q 918 1290 935 1302 q 889 1252 901 1278 l 625 667 l 625 169 q 639 109 625 127 q 690 91 653 91 l 716 91 l 716 0 l 387 0 m 706 1601 l 462 1458 l 427 1508 l 645 1685 l 706 1601 z "},"Ŷ":{"ha":1065,"x_min":69,"x_max":996,"o":"m 387 0 l 387 91 l 407 91 q 462 111 446 91 q 478 173 478 131 l 478 653 l 194 1218 q 147 1283 171 1264 q 87 1302 123 1302 l 69 1302 l 69 1389 l 403 1389 l 403 1302 l 383 1302 q 337 1278 337 1302 q 347 1248 337 1268 l 571 788 l 788 1252 q 792 1270 792 1260 q 777 1294 792 1286 q 736 1302 762 1302 l 718 1302 l 718 1389 l 996 1389 l 996 1302 l 968 1302 q 918 1290 935 1302 q 889 1252 901 1278 l 625 667 l 625 169 q 639 109 625 127 q 690 91 653 91 l 716 91 l 716 0 l 387 0 m 567 1522 l 369 1460 l 369 1524 l 567 1633 l 768 1524 l 768 1460 l 567 1522 z "},"Ÿ":{"ha":1065,"x_min":69,"x_max":996,"o":"m 387 0 l 387 91 l 407 91 q 462 111 446 91 q 478 173 478 131 l 478 653 l 194 1218 q 147 1283 171 1264 q 87 1302 123 1302 l 69 1302 l 69 1389 l 403 1389 l 403 1302 l 383 1302 q 337 1278 337 1302 q 347 1248 337 1268 l 571 788 l 788 1252 q 792 1270 792 1260 q 777 1294 792 1286 q 736 1302 762 1302 l 718 1302 l 718 1389 l 996 1389 l 996 1302 l 968 1302 q 918 1290 935 1302 q 889 1252 901 1278 l 625 667 l 625 169 q 639 109 625 127 q 690 91 653 91 l 716 91 l 716 0 l 387 0 m 427 1470 q 369 1495 393 1470 q 345 1554 345 1520 q 369 1611 345 1587 q 427 1635 393 1635 q 483 1611 458 1635 q 508 1554 508 1587 q 484 1495 508 1520 q 427 1470 460 1470 m 710 1470 q 653 1495 677 1470 q 629 1554 629 1520 q 653 1611 629 1587 q 710 1635 677 1635 q 767 1611 742 1635 q 792 1554 792 1587 q 768 1495 792 1520 q 710 1470 744 1470 z "},"Ỵ":{"ha":1065,"x_min":69,"x_max":996,"o":"m 387 0 l 387 91 l 407 91 q 462 111 446 91 q 478 173 478 131 l 478 653 l 194 1218 q 147 1283 171 1264 q 87 1302 123 1302 l 69 1302 l 69 1389 l 403 1389 l 403 1302 l 383 1302 q 337 1278 337 1302 q 347 1248 337 1268 l 571 788 l 788 1252 q 792 1270 792 1260 q 777 1294 792 1286 q 736 1302 762 1302 l 718 1302 l 718 1389 l 996 1389 l 996 1302 l 968 1302 q 918 1290 935 1302 q 889 1252 901 1278 l 625 667 l 625 169 q 639 109 625 127 q 690 91 653 91 l 716 91 l 716 0 l 387 0 m 558 -248 q 500 -223 524 -248 q 476 -165 476 -198 q 500 -108 476 -133 q 558 -83 524 -83 q 614 -108 589 -83 q 639 -165 639 -133 q 615 -223 639 -198 q 558 -248 591 -248 z "},"Ỳ":{"ha":1065,"x_min":69,"x_max":996,"o":"m 387 0 l 387 91 l 407 91 q 462 111 446 91 q 478 173 478 131 l 478 653 l 194 1218 q 147 1283 171 1264 q 87 1302 123 1302 l 69 1302 l 69 1389 l 403 1389 l 403 1302 l 383 1302 q 337 1278 337 1302 q 347 1248 337 1268 l 571 788 l 788 1252 q 792 1270 792 1260 q 777 1294 792 1286 q 736 1302 762 1302 l 718 1302 l 718 1389 l 996 1389 l 996 1302 l 968 1302 q 918 1290 935 1302 q 889 1252 901 1278 l 625 667 l 625 169 q 639 109 625 127 q 690 91 653 91 l 716 91 l 716 0 l 387 0 m 706 1508 l 671 1458 l 427 1601 l 488 1685 l 706 1508 z "},"Ỷ":{"ha":1065,"x_min":69,"x_max":996,"o":"m 387 0 l 387 91 l 407 91 q 462 111 446 91 q 478 173 478 131 l 478 653 l 194 1218 q 147 1283 171 1264 q 87 1302 123 1302 l 69 1302 l 69 1389 l 403 1389 l 403 1302 l 383 1302 q 337 1278 337 1302 q 347 1248 337 1268 l 571 788 l 788 1252 q 792 1270 792 1260 q 777 1294 792 1286 q 736 1302 762 1302 l 718 1302 l 718 1389 l 996 1389 l 996 1302 l 968 1302 q 918 1290 935 1302 q 889 1252 901 1278 l 625 667 l 625 169 q 639 109 625 127 q 690 91 653 91 l 716 91 l 716 0 l 387 0 m 540 1431 q 558 1484 544 1464 q 593 1524 571 1504 q 618 1551 609 1538 q 627 1581 627 1563 q 609 1627 627 1611 q 565 1643 591 1643 q 504 1615 526 1643 l 472 1667 q 525 1704 494 1690 q 587 1718 556 1718 q 677 1683 641 1718 q 708 1605 708 1651 q 689 1538 708 1571 q 637 1480 671 1504 q 608 1457 619 1468 q 595 1431 597 1446 l 540 1431 z "},"Ỹ":{"ha":1065,"x_min":69,"x_max":996,"o":"m 387 0 l 387 91 l 407 91 q 462 111 446 91 q 478 173 478 131 l 478 653 l 194 1218 q 147 1283 171 1264 q 87 1302 123 1302 l 69 1302 l 69 1389 l 403 1389 l 403 1302 l 383 1302 q 337 1278 337 1302 q 347 1248 337 1268 l 571 788 l 788 1252 q 792 1270 792 1260 q 777 1294 792 1286 q 736 1302 762 1302 l 718 1302 l 718 1389 l 996 1389 l 996 1302 l 968 1302 q 918 1290 935 1302 q 889 1252 901 1278 l 625 667 l 625 169 q 639 109 625 127 q 690 91 653 91 l 716 91 l 716 0 l 387 0 m 361 1522 q 478 1585 387 1585 q 579 1567 528 1585 q 692 1542 657 1542 q 764 1575 738 1542 l 774 1520 q 722 1472 756 1488 q 645 1456 688 1456 q 552 1474 591 1456 q 444 1502 492 1502 q 371 1468 397 1502 l 361 1522 z "},"Z":{"ha":893,"x_min":67,"x_max":804,"o":"m 67 0 l 548 1286 l 333 1286 q 271 1276 290 1286 q 246 1243 252 1266 q 240 1171 240 1220 l 240 1117 l 153 1117 l 153 1389 l 742 1389 l 272 99 l 607 99 q 691 138 667 99 q 716 252 716 177 l 716 280 l 804 280 l 804 0 l 67 0 z "},"Ź":{"ha":893,"x_min":67,"x_max":804,"o":"m 67 0 l 548 1286 l 333 1286 q 271 1276 290 1286 q 246 1243 252 1266 q 240 1171 240 1220 l 240 1117 l 153 1117 l 153 1389 l 742 1389 l 272 99 l 607 99 q 691 138 667 99 q 716 252 716 177 l 716 280 l 804 280 l 804 0 l 67 0 m 621 1601 l 377 1458 l 341 1508 l 560 1685 l 621 1601 z "},"Ž":{"ha":893,"x_min":67,"x_max":804,"o":"m 67 0 l 548 1286 l 333 1286 q 271 1276 290 1286 q 246 1243 252 1266 q 240 1171 240 1220 l 240 1117 l 153 1117 l 153 1389 l 742 1389 l 272 99 l 607 99 q 691 138 667 99 q 716 252 716 177 l 716 280 l 804 280 l 804 0 l 67 0 m 482 1569 l 681 1631 l 681 1567 l 482 1458 l 282 1567 l 282 1631 l 482 1569 z "},"Ż":{"ha":893,"x_min":67,"x_max":804,"o":"m 67 0 l 548 1286 l 333 1286 q 271 1276 290 1286 q 246 1243 252 1266 q 240 1171 240 1220 l 240 1117 l 153 1117 l 153 1389 l 742 1389 l 272 99 l 607 99 q 691 138 667 99 q 716 252 716 177 l 716 280 l 804 280 l 804 0 l 67 0 m 482 1470 q 425 1495 448 1470 q 401 1554 401 1520 q 425 1611 401 1587 q 482 1635 448 1635 q 539 1611 514 1635 q 563 1554 563 1587 q 540 1495 563 1520 q 482 1470 516 1470 z "},"a":{"ha":925,"x_min":58,"x_max":867,"o":"m 867 73 l 867 0 l 599 0 l 599 73 l 621 73 q 653 107 653 73 l 649 131 l 599 292 l 282 292 l 238 133 q 236 115 236 127 q 247 85 236 97 q 276 73 258 73 l 302 73 l 302 0 l 58 0 l 58 73 l 69 73 q 117 87 95 73 q 147 125 139 101 l 444 1190 l 450 1190 l 774 143 q 807 91 784 109 q 857 73 829 73 l 867 73 m 433 841 l 306 381 l 573 381 l 433 841 z "},"á":{"ha":925,"x_min":58,"x_max":867,"o":"m 867 73 l 867 0 l 599 0 l 599 73 l 621 73 q 653 107 653 73 l 649 131 l 599 292 l 282 292 l 238 133 q 236 115 236 127 q 247 85 236 97 q 276 73 258 73 l 302 73 l 302 0 l 58 0 l 58 73 l 69 73 q 117 87 95 73 q 147 125 139 101 l 444 1190 l 450 1190 l 774 143 q 807 91 784 109 q 857 73 829 73 l 867 73 m 433 841 l 306 381 l 573 381 l 433 841 m 587 1399 l 343 1256 l 308 1306 l 526 1482 l 587 1399 z "},"ă":{"ha":925,"x_min":58,"x_max":867,"o":"m 867 73 l 867 0 l 599 0 l 599 73 l 621 73 q 653 107 653 73 l 649 131 l 599 292 l 282 292 l 238 133 q 236 115 236 127 q 247 85 236 97 q 276 73 258 73 l 302 73 l 302 0 l 58 0 l 58 73 l 69 73 q 117 87 95 73 q 147 125 139 101 l 444 1190 l 450 1190 l 774 143 q 807 91 784 109 q 857 73 829 73 l 867 73 m 433 841 l 306 381 l 573 381 l 433 841 m 448 1256 q 333 1292 389 1256 q 260 1377 278 1327 l 290 1421 q 448 1357 345 1357 q 607 1421 554 1357 l 637 1377 q 561 1291 615 1325 q 448 1256 506 1256 z "},"ắ":{"ha":925,"x_min":58,"x_max":867,"o":"m 867 73 l 867 0 l 599 0 l 599 73 l 621 73 q 653 107 653 73 l 649 131 l 599 292 l 282 292 l 238 133 q 236 115 236 127 q 247 85 236 97 q 276 73 258 73 l 302 73 l 302 0 l 58 0 l 58 73 l 69 73 q 117 87 95 73 q 147 125 139 101 l 444 1190 l 450 1190 l 774 143 q 807 91 784 109 q 857 73 829 73 l 867 73 m 433 841 l 306 381 l 573 381 l 433 841 z "},"ặ":{"ha":925,"x_min":58,"x_max":867,"o":"m 867 73 l 867 0 l 599 0 l 599 73 l 621 73 q 653 107 653 73 l 649 131 l 599 292 l 282 292 l 238 133 q 236 115 236 127 q 247 85 236 97 q 276 73 258 73 l 302 73 l 302 0 l 58 0 l 58 73 l 69 73 q 117 87 95 73 q 147 125 139 101 l 444 1190 l 450 1190 l 774 143 q 807 91 784 109 q 857 73 829 73 l 867 73 m 433 841 l 306 381 l 573 381 l 433 841 m 448 -248 q 391 -223 415 -248 q 367 -165 367 -198 q 391 -108 367 -133 q 448 -83 415 -83 q 505 -108 480 -83 q 530 -165 530 -133 q 506 -223 530 -198 q 448 -248 482 -248 m 448 1256 q 333 1292 389 1256 q 260 1377 278 1327 l 290 1421 q 448 1357 345 1357 q 607 1421 554 1357 l 637 1377 q 561 1291 615 1325 q 448 1256 506 1256 z "},"ằ":{"ha":925,"x_min":58,"x_max":867,"o":"m 867 73 l 867 0 l 599 0 l 599 73 l 621 73 q 653 107 653 73 l 649 131 l 599 292 l 282 292 l 238 133 q 236 115 236 127 q 247 85 236 97 q 276 73 258 73 l 302 73 l 302 0 l 58 0 l 58 73 l 69 73 q 117 87 95 73 q 147 125 139 101 l 444 1190 l 450 1190 l 774 143 q 807 91 784 109 q 857 73 829 73 l 867 73 m 433 841 l 306 381 l 573 381 l 433 841 z "},"ẳ":{"ha":925,"x_min":58,"x_max":867,"o":"m 867 73 l 867 0 l 599 0 l 599 73 l 621 73 q 653 107 653 73 l 649 131 l 599 292 l 282 292 l 238 133 q 236 115 236 127 q 247 85 236 97 q 276 73 258 73 l 302 73 l 302 0 l 58 0 l 58 73 l 69 73 q 117 87 95 73 q 147 125 139 101 l 444 1190 l 450 1190 l 774 143 q 807 91 784 109 q 857 73 829 73 l 867 73 m 433 841 l 306 381 l 573 381 l 433 841 z "},"ẵ":{"ha":925,"x_min":58,"x_max":867,"o":"m 867 73 l 867 0 l 599 0 l 599 73 l 621 73 q 653 107 653 73 l 649 131 l 599 292 l 282 292 l 238 133 q 236 115 236 127 q 247 85 236 97 q 276 73 258 73 l 302 73 l 302 0 l 58 0 l 58 73 l 69 73 q 117 87 95 73 q 147 125 139 101 l 444 1190 l 450 1190 l 774 143 q 807 91 784 109 q 857 73 829 73 l 867 73 m 433 841 l 306 381 l 573 381 l 433 841 z "},"ǎ":{"ha":925,"x_min":58,"x_max":867,"o":"m 867 73 l 867 0 l 599 0 l 599 73 l 621 73 q 653 107 653 73 l 649 131 l 599 292 l 282 292 l 238 133 q 236 115 236 127 q 247 85 236 97 q 276 73 258 73 l 302 73 l 302 0 l 58 0 l 58 73 l 69 73 q 117 87 95 73 q 147 125 139 101 l 444 1190 l 450 1190 l 774 143 q 807 91 784 109 q 857 73 829 73 l 867 73 m 433 841 l 306 381 l 573 381 l 433 841 m 448 1367 l 647 1429 l 647 1365 l 448 1256 l 248 1365 l 248 1429 l 448 1367 z "},"â":{"ha":925,"x_min":58,"x_max":867,"o":"m 867 73 l 867 0 l 599 0 l 599 73 l 621 73 q 653 107 653 73 l 649 131 l 599 292 l 282 292 l 238 133 q 236 115 236 127 q 247 85 236 97 q 276 73 258 73 l 302 73 l 302 0 l 58 0 l 58 73 l 69 73 q 117 87 95 73 q 147 125 139 101 l 444 1190 l 450 1190 l 774 143 q 807 91 784 109 q 857 73 829 73 l 867 73 m 433 841 l 306 381 l 573 381 l 433 841 m 448 1319 l 250 1258 l 250 1321 l 448 1431 l 649 1321 l 649 1258 l 448 1319 z "},"ấ":{"ha":925,"x_min":58,"x_max":867,"o":"m 867 73 l 867 0 l 599 0 l 599 73 l 621 73 q 653 107 653 73 l 649 131 l 599 292 l 282 292 l 238 133 q 236 115 236 127 q 247 85 236 97 q 276 73 258 73 l 302 73 l 302 0 l 58 0 l 58 73 l 69 73 q 117 87 95 73 q 147 125 139 101 l 444 1190 l 450 1190 l 774 143 q 807 91 784 109 q 857 73 829 73 l 867 73 m 433 841 l 306 381 l 573 381 l 433 841 z "},"ậ":{"ha":925,"x_min":58,"x_max":867,"o":"m 867 73 l 867 0 l 599 0 l 599 73 l 621 73 q 653 107 653 73 l 649 131 l 599 292 l 282 292 l 238 133 q 236 115 236 127 q 247 85 236 97 q 276 73 258 73 l 302 73 l 302 0 l 58 0 l 58 73 l 69 73 q 117 87 95 73 q 147 125 139 101 l 444 1190 l 450 1190 l 774 143 q 807 91 784 109 q 857 73 829 73 l 867 73 m 433 841 l 306 381 l 573 381 l 433 841 m 448 -248 q 391 -223 415 -248 q 367 -165 367 -198 q 391 -108 367 -133 q 448 -83 415 -83 q 505 -108 480 -83 q 530 -165 530 -133 q 506 -223 530 -198 q 448 -248 482 -248 m 448 1319 l 250 1258 l 250 1321 l 448 1431 l 649 1321 l 649 1258 l 448 1319 z "},"ầ":{"ha":925,"x_min":58,"x_max":867,"o":"m 867 73 l 867 0 l 599 0 l 599 73 l 621 73 q 653 107 653 73 l 649 131 l 599 292 l 282 292 l 238 133 q 236 115 236 127 q 247 85 236 97 q 276 73 258 73 l 302 73 l 302 0 l 58 0 l 58 73 l 69 73 q 117 87 95 73 q 147 125 139 101 l 444 1190 l 450 1190 l 774 143 q 807 91 784 109 q 857 73 829 73 l 867 73 m 433 841 l 306 381 l 573 381 l 433 841 z "},"ẩ":{"ha":925,"x_min":58,"x_max":867,"o":"m 867 73 l 867 0 l 599 0 l 599 73 l 621 73 q 653 107 653 73 l 649 131 l 599 292 l 282 292 l 238 133 q 236 115 236 127 q 247 85 236 97 q 276 73 258 73 l 302 73 l 302 0 l 58 0 l 58 73 l 69 73 q 117 87 95 73 q 147 125 139 101 l 444 1190 l 450 1190 l 774 143 q 807 91 784 109 q 857 73 829 73 l 867 73 m 433 841 l 306 381 l 573 381 l 433 841 z "},"ẫ":{"ha":925,"x_min":58,"x_max":867,"o":"m 867 73 l 867 0 l 599 0 l 599 73 l 621 73 q 653 107 653 73 l 649 131 l 599 292 l 282 292 l 238 133 q 236 115 236 127 q 247 85 236 97 q 276 73 258 73 l 302 73 l 302 0 l 58 0 l 58 73 l 69 73 q 117 87 95 73 q 147 125 139 101 l 444 1190 l 450 1190 l 774 143 q 807 91 784 109 q 857 73 829 73 l 867 73 m 433 841 l 306 381 l 573 381 l 433 841 z "},"ä":{"ha":925,"x_min":58,"x_max":867,"o":"m 867 73 l 867 0 l 599 0 l 599 73 l 621 73 q 653 107 653 73 l 649 131 l 599 292 l 282 292 l 238 133 q 236 115 236 127 q 247 85 236 97 q 276 73 258 73 l 302 73 l 302 0 l 58 0 l 58 73 l 69 73 q 117 87 95 73 q 147 125 139 101 l 444 1190 l 450 1190 l 774 143 q 807 91 784 109 q 857 73 829 73 l 867 73 m 433 841 l 306 381 l 573 381 l 433 841 m 308 1268 q 250 1293 274 1268 q 226 1351 226 1317 q 250 1409 226 1385 q 308 1433 274 1433 q 364 1409 339 1433 q 389 1351 389 1385 q 365 1293 389 1317 q 308 1268 341 1268 m 591 1268 q 534 1293 558 1268 q 510 1351 510 1317 q 534 1409 510 1385 q 591 1433 558 1433 q 648 1409 623 1433 q 673 1351 673 1385 q 649 1293 673 1317 q 591 1268 625 1268 z "},"ạ":{"ha":925,"x_min":58,"x_max":867,"o":"m 867 73 l 867 0 l 599 0 l 599 73 l 621 73 q 653 107 653 73 l 649 131 l 599 292 l 282 292 l 238 133 q 236 115 236 127 q 247 85 236 97 q 276 73 258 73 l 302 73 l 302 0 l 58 0 l 58 73 l 69 73 q 117 87 95 73 q 147 125 139 101 l 444 1190 l 450 1190 l 774 143 q 807 91 784 109 q 857 73 829 73 l 867 73 m 433 841 l 306 381 l 573 381 l 433 841 m 448 -248 q 391 -223 415 -248 q 367 -165 367 -198 q 391 -108 367 -133 q 448 -83 415 -83 q 505 -108 480 -83 q 530 -165 530 -133 q 506 -223 530 -198 q 448 -248 482 -248 z "},"à":{"ha":925,"x_min":58,"x_max":867,"o":"m 867 73 l 867 0 l 599 0 l 599 73 l 621 73 q 653 107 653 73 l 649 131 l 599 292 l 282 292 l 238 133 q 236 115 236 127 q 247 85 236 97 q 276 73 258 73 l 302 73 l 302 0 l 58 0 l 58 73 l 69 73 q 117 87 95 73 q 147 125 139 101 l 444 1190 l 450 1190 l 774 143 q 807 91 784 109 q 857 73 829 73 l 867 73 m 433 841 l 306 381 l 573 381 l 433 841 m 587 1306 l 552 1256 l 308 1399 l 369 1482 l 587 1306 z "},"ả":{"ha":925,"x_min":58,"x_max":867,"o":"m 867 73 l 867 0 l 599 0 l 599 73 l 621 73 q 653 107 653 73 l 649 131 l 599 292 l 282 292 l 238 133 q 236 115 236 127 q 247 85 236 97 q 276 73 258 73 l 302 73 l 302 0 l 58 0 l 58 73 l 69 73 q 117 87 95 73 q 147 125 139 101 l 444 1190 l 450 1190 l 774 143 q 807 91 784 109 q 857 73 829 73 l 867 73 m 433 841 l 306 381 l 573 381 l 433 841 m 421 1254 q 438 1308 425 1288 q 474 1347 452 1327 q 499 1374 490 1361 q 508 1405 508 1387 q 490 1450 508 1435 q 446 1466 472 1466 q 385 1438 407 1466 l 353 1490 q 406 1528 375 1514 q 468 1542 437 1542 q 558 1506 522 1542 q 589 1429 589 1474 q 570 1361 589 1395 q 518 1304 552 1327 q 489 1281 500 1292 q 476 1254 478 1270 l 421 1254 z "},"ā":{"ha":925,"x_min":58,"x_max":867,"o":"m 867 73 l 867 0 l 599 0 l 599 73 l 621 73 q 653 107 653 73 l 649 131 l 599 292 l 282 292 l 238 133 q 236 115 236 127 q 247 85 236 97 q 276 73 258 73 l 302 73 l 302 0 l 58 0 l 58 73 l 69 73 q 117 87 95 73 q 147 125 139 101 l 444 1190 l 450 1190 l 774 143 q 807 91 784 109 q 857 73 829 73 l 867 73 m 433 841 l 306 381 l 573 381 l 433 841 m 633 1306 l 266 1306 l 266 1397 l 633 1397 l 633 1306 z "},"ą":{"ha":925,"x_min":58,"x_max":867,"o":"m 766 0 q 697 -51 726 -18 q 669 -123 669 -83 q 687 -173 669 -155 q 734 -190 704 -190 q 796 -173 764 -190 l 819 -204 q 710 -260 776 -260 q 623 -228 659 -260 q 587 -143 587 -196 q 616 -54 587 -89 q 683 0 645 -18 l 599 0 l 599 73 l 621 73 q 653 107 653 73 l 649 131 l 599 292 l 282 292 l 238 133 q 236 115 236 127 q 247 85 236 97 q 276 73 258 73 l 302 73 l 302 0 l 58 0 l 58 73 l 69 73 q 117 87 95 73 q 147 125 139 101 l 444 1190 l 450 1190 l 774 143 q 807 91 784 109 q 857 73 829 73 l 867 73 l 867 0 l 766 0 m 433 841 l 306 381 l 573 381 l 433 841 z "},"å":{"ha":925,"x_min":58,"x_max":867,"o":"m 867 73 l 867 0 l 599 0 l 599 73 l 621 73 q 653 107 653 73 l 649 131 l 599 292 l 282 292 l 238 133 q 236 115 236 127 q 247 85 236 97 q 276 73 258 73 l 302 73 l 302 0 l 58 0 l 58 73 l 69 73 q 117 87 95 73 q 147 125 139 101 l 429 1131 q 342 1179 379 1139 q 306 1268 306 1218 q 348 1366 306 1325 q 446 1407 391 1407 q 543 1364 500 1407 q 585 1268 585 1321 q 552 1179 585 1216 q 468 1131 518 1141 l 774 143 q 807 91 784 109 q 857 73 829 73 l 867 73 m 371 1272 q 392 1216 371 1240 q 442 1192 413 1192 q 498 1213 474 1192 q 522 1264 522 1234 q 501 1319 522 1296 q 450 1343 480 1343 q 395 1322 419 1343 q 371 1272 371 1302 m 433 841 l 306 381 l 573 381 l 433 841 z "},"ã":{"ha":925,"x_min":58,"x_max":867,"o":"m 867 73 l 867 0 l 599 0 l 599 73 l 621 73 q 653 107 653 73 l 649 131 l 599 292 l 282 292 l 238 133 q 236 115 236 127 q 247 85 236 97 q 276 73 258 73 l 302 73 l 302 0 l 58 0 l 58 73 l 69 73 q 117 87 95 73 q 147 125 139 101 l 444 1190 l 450 1190 l 774 143 q 807 91 784 109 q 857 73 829 73 l 867 73 m 433 841 l 306 381 l 573 381 l 433 841 m 242 1319 q 359 1383 268 1383 q 460 1365 409 1383 q 573 1339 538 1339 q 645 1373 619 1339 l 655 1317 q 603 1270 637 1286 q 526 1254 569 1254 q 433 1272 472 1254 q 325 1300 373 1300 q 252 1266 278 1300 l 242 1319 z "},"æ":{"ha":1143,"x_min":65,"x_max":1063,"o":"m 994 216 l 1063 216 l 1063 0 l 532 0 l 532 73 l 558 73 q 585 85 573 73 q 597 113 597 97 l 597 292 l 321 292 l 248 123 q 244 103 244 117 q 256 75 244 87 q 286 63 268 63 l 312 63 l 312 0 l 65 0 l 65 63 l 81 63 q 155 117 133 63 l 560 1036 q 571 1071 571 1060 q 563 1085 571 1083 l 524 1085 l 524 1157 l 1008 1157 l 1008 948 l 937 948 l 937 994 q 916 1046 937 1026 q 865 1065 895 1065 l 728 1065 l 728 720 l 841 720 q 875 734 861 720 q 889 768 889 748 l 889 798 l 960 798 l 960 560 l 889 560 l 889 599 q 878 626 889 615 q 851 637 867 637 l 728 637 l 728 73 l 907 73 q 994 167 994 73 l 994 216 m 597 919 l 361 381 l 597 381 l 597 919 z "},"b":{"ha":786,"x_min":91,"x_max":728,"o":"m 462 740 q 657 605 585 706 q 718 359 728 504 q 601 86 704 173 q 361 0 498 0 l 91 0 l 91 73 l 117 73 q 150 86 137 73 q 163 119 163 99 l 163 1018 q 151 1067 163 1052 q 111 1083 139 1083 l 91 1083 l 91 1157 l 339 1157 q 528 1101 458 1157 q 597 944 597 1046 q 560 818 597 873 q 462 740 522 764 m 292 1075 l 292 788 l 317 788 q 450 933 450 788 q 420 1042 450 1008 q 323 1075 389 1075 l 292 1075 m 333 87 q 504 156 438 87 q 569 401 569 224 q 502 621 569 546 q 333 696 435 696 l 292 696 l 292 87 l 333 87 z "},"c":{"ha":746,"x_min":65,"x_max":663,"o":"m 399 -38 q 218 49 294 -38 q 104 280 143 135 q 65 601 65 425 q 111 926 65 792 q 231 1127 157 1060 q 389 1194 306 1194 q 454 1182 425 1194 q 522 1145 484 1169 q 556 1133 542 1133 q 597 1169 583 1133 l 655 1169 l 655 869 l 587 869 q 563 978 587 925 q 494 1065 538 1032 q 399 1099 450 1099 q 306 1049 349 1099 q 235 889 262 998 q 208 613 208 780 q 261 209 208 361 q 407 58 313 58 q 528 132 478 58 q 581 331 577 206 l 663 315 q 625 126 663 206 q 527 4 587 46 q 399 -38 466 -38 z "},"ć":{"ha":746,"x_min":65,"x_max":663,"o":"m 399 -38 q 218 49 294 -38 q 104 280 143 135 q 65 601 65 425 q 111 926 65 792 q 231 1127 157 1060 q 389 1194 306 1194 q 454 1182 425 1194 q 522 1145 484 1169 q 556 1133 542 1133 q 597 1169 583 1133 l 655 1169 l 655 869 l 587 869 q 563 978 587 925 q 494 1065 538 1032 q 399 1099 450 1099 q 306 1049 349 1099 q 235 889 262 998 q 208 613 208 780 q 261 209 208 361 q 407 58 313 58 q 528 132 478 58 q 581 331 577 206 l 663 315 q 625 126 663 206 q 527 4 587 46 q 399 -38 466 -38 m 538 1399 l 294 1256 l 258 1306 l 476 1482 l 538 1399 z "},"č":{"ha":746,"x_min":65,"x_max":663,"o":"m 399 -38 q 218 49 294 -38 q 104 280 143 135 q 65 601 65 425 q 111 926 65 792 q 231 1127 157 1060 q 389 1194 306 1194 q 454 1182 425 1194 q 522 1145 484 1169 q 556 1133 542 1133 q 597 1169 583 1133 l 655 1169 l 655 869 l 587 869 q 563 978 587 925 q 494 1065 538 1032 q 399 1099 450 1099 q 306 1049 349 1099 q 235 889 262 998 q 208 613 208 780 q 261 209 208 361 q 407 58 313 58 q 528 132 478 58 q 581 331 577 206 l 663 315 q 625 126 663 206 q 527 4 587 46 q 399 -38 466 -38 m 399 1367 l 597 1429 l 597 1365 l 399 1256 l 198 1365 l 198 1429 l 399 1367 z "},"ç":{"ha":746,"x_min":65,"x_max":663,"o":"m 663 315 q 595 76 661 169 q 437 -34 530 -16 l 419 -69 q 478 -108 448 -79 q 508 -188 508 -137 q 471 -277 508 -244 q 383 -310 435 -310 q 322 -297 351 -310 q 276 -256 294 -284 l 304 -224 q 367 -244 337 -244 q 414 -227 397 -244 q 431 -181 431 -210 q 401 -125 431 -143 q 331 -103 371 -107 l 363 -36 q 144 167 222 -12 q 65 601 65 345 q 111 926 65 792 q 231 1127 157 1060 q 389 1194 306 1194 q 454 1182 425 1194 q 522 1145 484 1169 q 556 1133 542 1133 q 597 1169 583 1133 l 655 1169 l 655 869 l 587 869 q 563 978 587 925 q 494 1065 538 1032 q 399 1099 450 1099 q 306 1049 349 1099 q 235 889 262 998 q 208 613 208 780 q 261 209 208 361 q 407 58 313 58 q 528 132 478 58 q 581 331 577 206 l 663 315 z "},"ċ":{"ha":746,"x_min":65,"x_max":663,"o":"m 399 -38 q 218 49 294 -38 q 104 280 143 135 q 65 601 65 425 q 111 926 65 792 q 231 1127 157 1060 q 389 1194 306 1194 q 454 1182 425 1194 q 522 1145 484 1169 q 556 1133 542 1133 q 597 1169 583 1133 l 655 1169 l 655 869 l 587 869 q 563 978 587 925 q 494 1065 538 1032 q 399 1099 450 1099 q 306 1049 349 1099 q 235 889 262 998 q 208 613 208 780 q 261 209 208 361 q 407 58 313 58 q 528 132 478 58 q 581 331 577 206 l 663 315 q 625 126 663 206 q 527 4 587 46 q 399 -38 466 -38 m 399 1268 q 341 1293 365 1268 q 317 1351 317 1317 q 341 1409 317 1385 q 399 1433 365 1433 q 455 1409 431 1433 q 480 1351 480 1385 q 456 1293 480 1317 q 399 1268 433 1268 z "},"d":{"ha":855,"x_min":91,"x_max":794,"o":"m 377 1157 q 584 1092 490 1157 q 736 900 679 1028 q 794 589 794 772 q 385 0 794 0 l 91 0 l 91 73 l 113 73 q 149 87 135 73 q 163 123 163 101 l 163 1048 q 152 1073 163 1063 q 125 1083 141 1083 l 91 1083 l 91 1157 l 377 1157 m 361 77 q 564 188 484 77 q 645 573 645 300 q 321 1075 645 1075 l 294 1075 l 294 87 q 361 77 319 77 z "},"ð":{"ha":855,"x_min":91,"x_max":794,"o":"m 377 1157 q 584 1092 490 1157 q 736 900 679 1028 q 794 589 794 772 q 385 0 794 0 l 91 0 l 91 73 l 113 73 q 149 87 135 73 q 163 123 163 101 l 163 554 l 97 554 l 97 655 l 163 655 l 163 1048 q 152 1073 163 1063 q 125 1083 141 1083 l 91 1083 l 91 1157 l 377 1157 m 361 77 q 564 188 484 77 q 645 573 645 300 q 321 1075 645 1075 l 294 1075 l 294 655 l 435 655 l 435 554 l 294 554 l 294 87 q 361 77 319 77 z "},"ď":{"ha":970,"x_min":91,"x_max":942,"o":"m 377 1157 q 584 1092 490 1157 q 736 900 679 1028 q 794 589 794 772 q 385 0 794 0 l 91 0 l 91 73 l 113 73 q 149 87 135 73 q 163 123 163 101 l 163 1048 q 152 1073 163 1063 q 125 1083 141 1083 l 91 1083 l 91 1157 l 377 1157 m 361 77 q 564 188 484 77 q 645 573 645 300 q 321 1075 645 1075 l 294 1075 l 294 87 q 361 77 319 77 m 817 933 q 833 964 819 937 q 847 1020 847 992 q 807 1048 823 1028 q 790 1093 790 1067 q 812 1146 790 1123 q 863 1169 833 1169 q 920 1142 897 1169 q 942 1081 942 1115 q 922 1004 942 1038 q 871 950 901 970 q 817 933 841 931 z "},"đ":{"ha":855,"x_min":91,"x_max":794,"o":"m 377 1157 q 584 1092 490 1157 q 736 900 679 1028 q 794 589 794 772 q 385 0 794 0 l 91 0 l 91 73 l 113 73 q 149 87 135 73 q 163 123 163 101 l 163 554 l 97 554 l 97 655 l 163 655 l 163 1048 q 152 1073 163 1063 q 125 1083 141 1083 l 91 1083 l 91 1157 l 377 1157 m 361 77 q 564 188 484 77 q 645 573 645 300 q 321 1075 645 1075 l 294 1075 l 294 655 l 435 655 l 435 554 l 294 554 l 294 87 q 361 77 319 77 z "},"e":{"ha":708,"x_min":91,"x_max":629,"o":"m 560 216 l 629 216 l 629 0 l 99 0 l 99 73 l 123 73 q 151 85 139 73 q 163 113 163 97 l 163 1054 q 154 1074 163 1065 q 133 1083 145 1083 l 91 1083 l 91 1157 l 575 1157 l 575 948 l 504 948 l 504 994 q 482 1045 504 1024 q 431 1065 460 1065 l 294 1065 l 294 720 l 409 720 q 442 734 429 720 q 456 768 456 748 l 456 798 l 528 798 l 528 560 l 456 560 l 456 599 q 445 626 456 615 q 419 637 435 637 l 294 637 l 294 73 l 472 73 q 560 167 560 73 l 560 216 z "},"é":{"ha":708,"x_min":91,"x_max":629,"o":"m 560 216 l 629 216 l 629 0 l 99 0 l 99 73 l 123 73 q 151 85 139 73 q 163 113 163 97 l 163 1054 q 154 1074 163 1065 q 133 1083 145 1083 l 91 1083 l 91 1157 l 575 1157 l 575 948 l 504 948 l 504 994 q 482 1045 504 1024 q 431 1065 460 1065 l 294 1065 l 294 720 l 409 720 q 442 734 429 720 q 456 768 456 748 l 456 798 l 528 798 l 528 560 l 456 560 l 456 599 q 445 626 456 615 q 419 637 435 637 l 294 637 l 294 73 l 472 73 q 560 167 560 73 l 560 216 m 512 1369 l 268 1226 l 232 1276 l 450 1452 l 512 1369 z "},"ě":{"ha":708,"x_min":91,"x_max":629,"o":"m 560 216 l 629 216 l 629 0 l 99 0 l 99 73 l 123 73 q 151 85 139 73 q 163 113 163 97 l 163 1054 q 154 1074 163 1065 q 133 1083 145 1083 l 91 1083 l 91 1157 l 575 1157 l 575 948 l 504 948 l 504 994 q 482 1045 504 1024 q 431 1065 460 1065 l 294 1065 l 294 720 l 409 720 q 442 734 429 720 q 456 768 456 748 l 456 798 l 528 798 l 528 560 l 456 560 l 456 599 q 445 626 456 615 q 419 637 435 637 l 294 637 l 294 73 l 472 73 q 560 167 560 73 l 560 216 m 373 1337 l 571 1399 l 571 1335 l 373 1226 l 173 1335 l 173 1399 l 373 1337 z "},"ê":{"ha":708,"x_min":91,"x_max":629,"o":"m 560 216 l 629 216 l 629 0 l 99 0 l 99 73 l 123 73 q 151 85 139 73 q 163 113 163 97 l 163 1054 q 154 1074 163 1065 q 133 1083 145 1083 l 91 1083 l 91 1157 l 575 1157 l 575 948 l 504 948 l 504 994 q 482 1045 504 1024 q 431 1065 460 1065 l 294 1065 l 294 720 l 409 720 q 442 734 429 720 q 456 768 456 748 l 456 798 l 528 798 l 528 560 l 456 560 l 456 599 q 445 626 456 615 q 419 637 435 637 l 294 637 l 294 73 l 472 73 q 560 167 560 73 l 560 216 m 373 1290 l 175 1228 l 175 1292 l 373 1401 l 573 1292 l 573 1228 l 373 1290 z "},"ế":{"ha":708,"x_min":91,"x_max":752,"o":"m 560 216 l 629 216 l 629 0 l 99 0 l 99 73 l 123 73 q 151 85 139 73 q 163 113 163 97 l 163 1054 q 154 1074 163 1065 q 133 1083 145 1083 l 91 1083 l 91 1157 l 575 1157 l 575 948 l 504 948 l 504 994 q 482 1045 504 1024 q 431 1065 460 1065 l 294 1065 l 294 720 l 409 720 q 442 734 429 720 q 456 768 456 748 l 456 798 l 528 798 l 528 560 l 456 560 l 456 599 q 445 626 456 615 q 419 637 435 637 l 294 637 l 294 73 l 472 73 q 560 167 560 73 l 560 216 z "},"ệ":{"ha":708,"x_min":91,"x_max":629,"o":"m 560 216 l 629 216 l 629 0 l 99 0 l 99 73 l 123 73 q 151 85 139 73 q 163 113 163 97 l 163 1054 q 154 1074 163 1065 q 133 1083 145 1083 l 91 1083 l 91 1157 l 575 1157 l 575 948 l 504 948 l 504 994 q 482 1045 504 1024 q 431 1065 460 1065 l 294 1065 l 294 720 l 409 720 q 442 734 429 720 q 456 768 456 748 l 456 798 l 528 798 l 528 560 l 456 560 l 456 599 q 445 626 456 615 q 419 637 435 637 l 294 637 l 294 73 l 472 73 q 560 167 560 73 l 560 216 m 393 -248 q 335 -223 359 -248 q 312 -165 312 -198 q 335 -108 312 -133 q 393 -83 359 -83 q 449 -108 425 -83 q 474 -165 474 -133 q 450 -223 474 -198 q 393 -248 427 -248 m 373 1290 l 175 1228 l 175 1292 l 373 1401 l 573 1292 l 573 1228 l 373 1290 z "},"ề":{"ha":708,"x_min":91,"x_max":631,"o":"m 560 216 l 629 216 l 629 0 l 99 0 l 99 73 l 123 73 q 151 85 139 73 q 163 113 163 97 l 163 1054 q 154 1074 163 1065 q 133 1083 145 1083 l 91 1083 l 91 1157 l 575 1157 l 575 948 l 504 948 l 504 994 q 482 1045 504 1024 q 431 1065 460 1065 l 294 1065 l 294 720 l 409 720 q 442 734 429 720 q 456 768 456 748 l 456 798 l 528 798 l 528 560 l 456 560 l 456 599 q 445 626 456 615 q 419 637 435 637 l 294 637 l 294 73 l 472 73 q 560 167 560 73 l 560 216 z "},"ể":{"ha":708,"x_min":91,"x_max":649,"o":"m 560 216 l 629 216 l 629 0 l 99 0 l 99 73 l 123 73 q 151 85 139 73 q 163 113 163 97 l 163 1054 q 154 1074 163 1065 q 133 1083 145 1083 l 91 1083 l 91 1157 l 575 1157 l 575 948 l 504 948 l 504 994 q 482 1045 504 1024 q 431 1065 460 1065 l 294 1065 l 294 720 l 409 720 q 442 734 429 720 q 456 768 456 748 l 456 798 l 528 798 l 528 560 l 456 560 l 456 599 q 445 626 456 615 q 419 637 435 637 l 294 637 l 294 73 l 472 73 q 560 167 560 73 l 560 216 z "},"ễ":{"ha":708,"x_min":91,"x_max":629,"o":"m 560 216 l 629 216 l 629 0 l 99 0 l 99 73 l 123 73 q 151 85 139 73 q 163 113 163 97 l 163 1054 q 154 1074 163 1065 q 133 1083 145 1083 l 91 1083 l 91 1157 l 575 1157 l 575 948 l 504 948 l 504 994 q 482 1045 504 1024 q 431 1065 460 1065 l 294 1065 l 294 720 l 409 720 q 442 734 429 720 q 456 768 456 748 l 456 798 l 528 798 l 528 560 l 456 560 l 456 599 q 445 626 456 615 q 419 637 435 637 l 294 637 l 294 73 l 472 73 q 560 167 560 73 l 560 216 z "},"ë":{"ha":708,"x_min":91,"x_max":629,"o":"m 560 216 l 629 216 l 629 0 l 99 0 l 99 73 l 123 73 q 151 85 139 73 q 163 113 163 97 l 163 1054 q 154 1074 163 1065 q 133 1083 145 1083 l 91 1083 l 91 1157 l 575 1157 l 575 948 l 504 948 l 504 994 q 482 1045 504 1024 q 431 1065 460 1065 l 294 1065 l 294 720 l 409 720 q 442 734 429 720 q 456 768 456 748 l 456 798 l 528 798 l 528 560 l 456 560 l 456 599 q 445 626 456 615 q 419 637 435 637 l 294 637 l 294 73 l 472 73 q 560 167 560 73 l 560 216 m 232 1238 q 175 1263 198 1238 q 151 1321 151 1288 q 175 1379 151 1355 q 232 1403 198 1403 q 289 1379 264 1403 q 313 1321 313 1355 q 290 1263 313 1288 q 232 1238 266 1238 m 516 1238 q 458 1263 482 1238 q 435 1321 435 1288 q 458 1379 435 1355 q 516 1403 482 1403 q 572 1379 548 1403 q 597 1321 597 1355 q 573 1263 597 1288 q 516 1238 550 1238 z "},"ė":{"ha":708,"x_min":91,"x_max":629,"o":"m 560 216 l 629 216 l 629 0 l 99 0 l 99 73 l 123 73 q 151 85 139 73 q 163 113 163 97 l 163 1054 q 154 1074 163 1065 q 133 1083 145 1083 l 91 1083 l 91 1157 l 575 1157 l 575 948 l 504 948 l 504 994 q 482 1045 504 1024 q 431 1065 460 1065 l 294 1065 l 294 720 l 409 720 q 442 734 429 720 q 456 768 456 748 l 456 798 l 528 798 l 528 560 l 456 560 l 456 599 q 445 626 456 615 q 419 637 435 637 l 294 637 l 294 73 l 472 73 q 560 167 560 73 l 560 216 m 373 1238 q 315 1263 339 1238 q 292 1321 292 1288 q 315 1379 292 1355 q 373 1403 339 1403 q 430 1379 405 1403 q 454 1321 454 1355 q 431 1263 454 1288 q 373 1238 407 1238 z "},"ẹ":{"ha":708,"x_min":91,"x_max":629,"o":"m 560 216 l 629 216 l 629 0 l 99 0 l 99 73 l 123 73 q 151 85 139 73 q 163 113 163 97 l 163 1054 q 154 1074 163 1065 q 133 1083 145 1083 l 91 1083 l 91 1157 l 575 1157 l 575 948 l 504 948 l 504 994 q 482 1045 504 1024 q 431 1065 460 1065 l 294 1065 l 294 720 l 409 720 q 442 734 429 720 q 456 768 456 748 l 456 798 l 528 798 l 528 560 l 456 560 l 456 599 q 445 626 456 615 q 419 637 435 637 l 294 637 l 294 73 l 472 73 q 560 167 560 73 l 560 216 m 393 -248 q 335 -223 359 -248 q 312 -165 312 -198 q 335 -108 312 -133 q 393 -83 359 -83 q 449 -108 425 -83 q 474 -165 474 -133 q 450 -223 474 -198 q 393 -248 427 -248 z "},"è":{"ha":708,"x_min":91,"x_max":629,"o":"m 560 216 l 629 216 l 629 0 l 99 0 l 99 73 l 123 73 q 151 85 139 73 q 163 113 163 97 l 163 1054 q 154 1074 163 1065 q 133 1083 145 1083 l 91 1083 l 91 1157 l 575 1157 l 575 948 l 504 948 l 504 994 q 482 1045 504 1024 q 431 1065 460 1065 l 294 1065 l 294 720 l 409 720 q 442 734 429 720 q 456 768 456 748 l 456 798 l 528 798 l 528 560 l 456 560 l 456 599 q 445 626 456 615 q 419 637 435 637 l 294 637 l 294 73 l 472 73 q 560 167 560 73 l 560 216 m 512 1276 l 476 1226 l 232 1369 l 294 1452 l 512 1276 z "},"ẻ":{"ha":708,"x_min":91,"x_max":629,"o":"m 560 216 l 629 216 l 629 0 l 99 0 l 99 73 l 123 73 q 151 85 139 73 q 163 113 163 97 l 163 1054 q 154 1074 163 1065 q 133 1083 145 1083 l 91 1083 l 91 1157 l 575 1157 l 575 948 l 504 948 l 504 994 q 482 1045 504 1024 q 431 1065 460 1065 l 294 1065 l 294 720 l 409 720 q 442 734 429 720 q 456 768 456 748 l 456 798 l 528 798 l 528 560 l 456 560 l 456 599 q 445 626 456 615 q 419 637 435 637 l 294 637 l 294 73 l 472 73 q 560 167 560 73 l 560 216 m 345 1224 q 363 1278 349 1258 q 399 1317 377 1298 q 424 1344 415 1331 q 433 1375 433 1357 q 415 1421 433 1405 q 371 1437 397 1437 q 310 1409 331 1437 l 278 1460 q 330 1498 300 1484 q 393 1512 361 1512 q 482 1476 446 1512 q 514 1399 514 1444 q 495 1331 514 1365 q 442 1274 476 1298 q 414 1251 425 1262 q 401 1224 403 1240 l 345 1224 z "},"ē":{"ha":708,"x_min":91,"x_max":629,"o":"m 560 216 l 629 216 l 629 0 l 99 0 l 99 73 l 123 73 q 151 85 139 73 q 163 113 163 97 l 163 1054 q 154 1074 163 1065 q 133 1083 145 1083 l 91 1083 l 91 1157 l 575 1157 l 575 948 l 504 948 l 504 994 q 482 1045 504 1024 q 431 1065 460 1065 l 294 1065 l 294 720 l 409 720 q 442 734 429 720 q 456 768 456 748 l 456 798 l 528 798 l 528 560 l 456 560 l 456 599 q 445 626 456 615 q 419 637 435 637 l 294 637 l 294 73 l 472 73 q 560 167 560 73 l 560 216 m 558 1276 l 190 1276 l 190 1367 l 558 1367 l 558 1276 z "},"ę":{"ha":708,"x_min":91,"x_max":629,"o":"m 460 0 q 389 -51 419 -16 q 359 -125 359 -85 q 377 -175 359 -157 q 425 -192 395 -192 q 486 -175 454 -192 l 510 -206 q 401 -262 466 -262 q 313 -229 349 -262 q 278 -141 278 -196 q 309 -52 278 -87 q 377 0 339 -16 l 99 0 l 99 73 l 123 73 q 151 85 139 73 q 163 113 163 97 l 163 1054 q 154 1074 163 1065 q 133 1083 145 1083 l 91 1083 l 91 1157 l 575 1157 l 575 948 l 504 948 l 504 994 q 482 1045 504 1024 q 431 1065 460 1065 l 294 1065 l 294 720 l 409 720 q 442 734 429 720 q 456 768 456 748 l 456 798 l 528 798 l 528 560 l 456 560 l 456 599 q 445 626 456 615 q 419 637 435 637 l 294 637 l 294 73 l 472 73 q 560 167 560 73 l 560 216 l 629 216 l 629 0 l 460 0 z "},"ẽ":{"ha":708,"x_min":91,"x_max":629,"o":"m 560 216 l 629 216 l 629 0 l 99 0 l 99 73 l 123 73 q 151 85 139 73 q 163 113 163 97 l 163 1054 q 154 1074 163 1065 q 133 1083 145 1083 l 91 1083 l 91 1157 l 575 1157 l 575 948 l 504 948 l 504 994 q 482 1045 504 1024 q 431 1065 460 1065 l 294 1065 l 294 720 l 409 720 q 442 734 429 720 q 456 768 456 748 l 456 798 l 528 798 l 528 560 l 456 560 l 456 599 q 445 626 456 615 q 419 637 435 637 l 294 637 l 294 73 l 472 73 q 560 167 560 73 l 560 216 m 167 1290 q 284 1353 192 1353 q 385 1335 333 1353 q 498 1310 462 1310 q 569 1343 544 1310 l 579 1288 q 528 1240 562 1256 q 450 1224 494 1224 q 357 1242 397 1224 q 250 1270 298 1270 q 177 1236 202 1270 l 167 1290 z "},"f":{"ha":655,"x_min":91,"x_max":575,"o":"m 575 946 l 504 946 l 504 992 q 482 1045 504 1024 q 431 1065 460 1065 l 292 1065 l 292 718 l 409 718 q 442 733 429 718 q 456 768 456 748 l 456 798 l 528 798 l 528 558 l 456 558 l 456 597 q 445 624 456 613 q 419 635 435 635 l 292 635 l 292 113 q 305 86 292 97 q 335 75 317 75 l 371 75 l 371 0 l 91 0 l 91 75 l 123 75 q 151 86 139 75 q 163 113 163 97 l 163 1054 q 154 1075 163 1067 q 133 1083 145 1083 l 91 1083 l 91 1157 l 575 1157 l 575 946 z "},"g":{"ha":817,"x_min":65,"x_max":766,"o":"m 474 472 l 766 472 l 766 401 l 728 401 q 698 389 710 401 q 687 361 687 377 l 687 0 l 609 0 q 597 29 607 18 q 575 40 587 40 q 556 34 565 40 q 529 16 548 28 q 492 -4 510 4 q 395 -30 448 -30 q 221 51 296 -30 q 106 271 147 131 q 65 583 65 411 q 110 914 65 776 q 227 1123 155 1052 q 383 1194 300 1194 q 456 1182 425 1194 q 530 1143 488 1169 q 554 1135 544 1135 q 585 1169 575 1135 l 643 1169 l 643 867 l 573 867 q 548 982 573 925 q 477 1073 522 1040 q 383 1099 433 1107 q 302 1034 341 1091 q 236 864 262 976 q 210 589 210 752 q 263 211 210 351 q 395 62 315 71 l 413 60 q 503 98 462 60 q 552 230 544 137 l 552 361 q 540 389 552 377 q 512 401 528 401 l 474 401 l 474 472 z "},"ğ":{"ha":817,"x_min":65,"x_max":766,"o":"m 474 472 l 766 472 l 766 401 l 728 401 q 698 389 710 401 q 687 361 687 377 l 687 0 l 609 0 q 597 29 607 18 q 575 40 587 40 q 556 34 565 40 q 529 16 548 28 q 492 -4 510 4 q 395 -30 448 -30 q 221 51 296 -30 q 106 271 147 131 q 65 583 65 411 q 110 914 65 776 q 227 1123 155 1052 q 383 1194 300 1194 q 456 1182 425 1194 q 530 1143 488 1169 q 554 1135 544 1135 q 585 1169 575 1135 l 643 1169 l 643 867 l 573 867 q 548 982 573 925 q 477 1073 522 1040 q 383 1099 433 1107 q 302 1034 341 1091 q 236 864 262 976 q 210 589 210 752 q 263 211 210 351 q 395 62 315 71 l 413 60 q 503 98 462 60 q 552 230 544 137 l 552 361 q 540 389 552 377 q 512 401 528 401 l 474 401 l 474 472 m 397 1252 q 282 1288 337 1252 q 208 1373 226 1323 l 238 1417 q 397 1353 294 1353 q 556 1417 502 1353 l 585 1373 q 509 1287 563 1321 q 397 1252 454 1252 z "},"ģ":{"ha":817,"x_min":65,"x_max":766,"o":"m 474 472 l 766 472 l 766 401 l 728 401 q 698 389 710 401 q 687 361 687 377 l 687 0 l 609 0 q 597 29 607 18 q 575 40 587 40 q 556 34 565 40 q 529 16 548 28 q 492 -4 510 4 q 395 -30 448 -30 q 221 51 296 -30 q 106 271 147 131 q 65 583 65 411 q 110 914 65 776 q 227 1123 155 1052 q 383 1194 300 1194 q 456 1182 425 1194 q 530 1143 488 1169 q 554 1135 544 1135 q 585 1169 575 1135 l 643 1169 l 643 867 l 573 867 q 548 982 573 925 q 477 1073 522 1040 q 383 1099 433 1107 q 302 1034 341 1091 q 236 864 262 976 q 210 589 210 752 q 263 211 210 351 q 395 62 315 71 l 413 60 q 503 98 462 60 q 552 230 544 137 l 552 361 q 540 389 552 377 q 512 401 528 401 l 474 401 l 474 472 m 446 1506 q 431 1474 444 1502 q 417 1417 417 1446 q 459 1388 442 1409 q 476 1341 476 1367 q 453 1287 476 1310 q 399 1264 431 1264 q 342 1292 365 1264 q 319 1353 319 1319 q 340 1433 319 1397 q 391 1488 361 1468 q 446 1506 421 1508 z "},"ġ":{"ha":817,"x_min":65,"x_max":766,"o":"m 474 472 l 766 472 l 766 401 l 728 401 q 698 389 710 401 q 687 361 687 377 l 687 0 l 609 0 q 597 29 607 18 q 575 40 587 40 q 556 34 565 40 q 529 16 548 28 q 492 -4 510 4 q 395 -30 448 -30 q 221 51 296 -30 q 106 271 147 131 q 65 583 65 411 q 110 914 65 776 q 227 1123 155 1052 q 383 1194 300 1194 q 456 1182 425 1194 q 530 1143 488 1169 q 554 1135 544 1135 q 585 1169 575 1135 l 643 1169 l 643 867 l 573 867 q 548 982 573 925 q 477 1073 522 1040 q 383 1099 433 1107 q 302 1034 341 1091 q 236 864 262 976 q 210 589 210 752 q 263 211 210 351 q 395 62 315 71 l 413 60 q 503 98 462 60 q 552 230 544 137 l 552 361 q 540 389 552 377 q 512 401 528 401 l 474 401 l 474 472 m 397 1264 q 339 1289 363 1264 q 315 1347 315 1313 q 339 1405 315 1381 q 397 1429 363 1429 q 453 1405 429 1429 q 478 1347 478 1381 q 454 1289 478 1313 q 397 1264 431 1264 z "},"h":{"ha":897,"x_min":91,"x_max":808,"o":"m 766 1081 q 740 1070 752 1081 q 728 1044 728 1060 l 728 113 q 740 87 728 99 q 766 75 752 75 l 808 75 l 808 0 l 522 0 l 522 75 l 562 75 q 588 87 577 75 q 599 113 599 99 l 599 704 l 298 704 l 298 113 q 309 86 298 97 q 333 75 319 75 l 375 75 l 375 0 l 91 0 l 91 75 l 131 75 q 156 86 145 75 q 167 113 167 97 l 167 1044 q 156 1070 167 1060 q 131 1081 145 1081 l 91 1081 l 91 1157 l 375 1157 l 375 1081 l 333 1081 q 309 1070 319 1081 q 298 1044 298 1060 l 298 784 l 599 784 l 599 1044 q 588 1070 599 1060 q 562 1081 577 1081 l 522 1081 l 522 1157 l 808 1157 l 808 1081 l 766 1081 z "},"ħ":{"ha":897,"x_min":91,"x_max":808,"o":"m 766 1081 q 739 1070 750 1081 q 728 1046 728 1060 l 728 980 l 794 980 l 794 879 l 728 879 l 728 113 q 740 87 728 99 q 766 75 752 75 l 808 75 l 808 0 l 522 0 l 522 75 l 562 75 q 588 87 577 75 q 599 113 599 99 l 599 704 l 298 704 l 298 113 q 309 86 298 97 q 333 75 319 75 l 375 75 l 375 0 l 91 0 l 91 75 l 131 75 q 156 86 145 75 q 167 113 167 97 l 167 879 l 103 879 l 103 980 l 167 980 l 167 1046 q 157 1071 167 1062 q 131 1081 147 1081 l 91 1081 l 91 1157 l 375 1157 l 375 1081 l 333 1081 q 309 1071 319 1081 q 298 1046 298 1062 l 298 980 l 599 980 l 599 1046 q 588 1070 599 1060 q 562 1081 577 1081 l 522 1081 l 522 1157 l 808 1157 l 808 1081 l 766 1081 m 298 784 l 599 784 l 599 879 l 298 879 l 298 784 z "},"i":{"ha":482,"x_min":99,"x_max":383,"o":"m 99 0 l 99 75 l 139 75 q 164 86 153 75 q 175 113 175 97 l 175 1044 q 164 1070 175 1060 q 139 1081 153 1081 l 99 1081 l 99 1157 l 383 1157 l 383 1081 l 341 1081 q 316 1070 327 1081 q 306 1044 306 1060 l 306 113 q 316 86 306 97 q 341 75 327 75 l 383 75 l 383 0 l 99 0 z "},"ı":{"ha":482,"x_min":99,"x_max":383,"o":"m 99 0 l 99 75 l 139 75 q 164 86 153 75 q 175 113 175 97 l 175 1044 q 164 1070 175 1060 q 139 1081 153 1081 l 99 1081 l 99 1157 l 383 1157 l 383 1081 l 341 1081 q 316 1070 327 1081 q 306 1044 306 1060 l 306 113 q 316 86 306 97 q 341 75 327 75 l 383 75 l 383 0 l 99 0 z "},"í":{"ha":482,"x_min":99,"x_max":383,"o":"m 99 0 l 99 75 l 139 75 q 164 86 153 75 q 175 113 175 97 l 175 1044 q 164 1070 175 1060 q 139 1081 153 1081 l 99 1081 l 99 1157 l 383 1157 l 383 1081 l 341 1081 q 316 1070 327 1081 q 306 1044 306 1060 l 306 113 q 316 86 306 97 q 341 75 327 75 l 383 75 l 383 0 l 99 0 m 381 1369 l 137 1226 l 101 1276 l 319 1452 l 381 1369 z "},"ǐ":{"ha":482,"x_min":42,"x_max":440,"o":"m 99 0 l 99 75 l 139 75 q 164 86 153 75 q 175 113 175 97 l 175 1044 q 164 1070 175 1060 q 139 1081 153 1081 l 99 1081 l 99 1157 l 383 1157 l 383 1081 l 341 1081 q 316 1070 327 1081 q 306 1044 306 1060 l 306 113 q 316 86 306 97 q 341 75 327 75 l 383 75 l 383 0 l 99 0 m 242 1337 l 440 1399 l 440 1335 l 242 1226 l 42 1335 l 42 1399 l 242 1337 z "},"î":{"ha":482,"x_min":44,"x_max":442,"o":"m 99 0 l 99 75 l 139 75 q 164 86 153 75 q 175 113 175 97 l 175 1044 q 164 1070 175 1060 q 139 1081 153 1081 l 99 1081 l 99 1157 l 383 1157 l 383 1081 l 341 1081 q 316 1070 327 1081 q 306 1044 306 1060 l 306 113 q 316 86 306 97 q 341 75 327 75 l 383 75 l 383 0 l 99 0 m 242 1290 l 44 1228 l 44 1292 l 242 1401 l 442 1292 l 442 1228 l 242 1290 z "},"ï":{"ha":482,"x_min":20,"x_max":466,"o":"m 99 0 l 99 75 l 139 75 q 164 86 153 75 q 175 113 175 97 l 175 1044 q 164 1070 175 1060 q 139 1081 153 1081 l 99 1081 l 99 1157 l 383 1157 l 383 1081 l 341 1081 q 316 1070 327 1081 q 306 1044 306 1060 l 306 113 q 316 86 306 97 q 341 75 327 75 l 383 75 l 383 0 l 99 0 m 101 1238 q 44 1263 67 1238 q 20 1321 20 1288 q 44 1379 20 1355 q 101 1403 67 1403 q 158 1379 133 1403 q 183 1321 183 1355 q 159 1263 183 1288 q 101 1238 135 1238 m 385 1238 q 327 1263 351 1238 q 304 1321 304 1288 q 327 1379 304 1355 q 385 1403 351 1403 q 441 1379 417 1403 q 466 1321 466 1355 q 442 1263 466 1288 q 385 1238 419 1238 z "},"ị":{"ha":482,"x_min":99,"x_max":383,"o":"m 99 0 l 99 75 l 139 75 q 164 86 153 75 q 175 113 175 97 l 175 1044 q 164 1070 175 1060 q 139 1081 153 1081 l 99 1081 l 99 1157 l 383 1157 l 383 1081 l 341 1081 q 316 1070 327 1081 q 306 1044 306 1060 l 306 113 q 316 86 306 97 q 341 75 327 75 l 383 75 l 383 0 l 99 0 m 242 -248 q 185 -223 208 -248 q 161 -165 161 -198 q 185 -108 161 -133 q 242 -83 208 -83 q 299 -108 274 -83 q 323 -165 323 -133 q 300 -223 323 -198 q 242 -248 276 -248 z "},"ì":{"ha":482,"x_min":99,"x_max":383,"o":"m 99 0 l 99 75 l 139 75 q 164 86 153 75 q 175 113 175 97 l 175 1044 q 164 1070 175 1060 q 139 1081 153 1081 l 99 1081 l 99 1157 l 383 1157 l 383 1081 l 341 1081 q 316 1070 327 1081 q 306 1044 306 1060 l 306 113 q 316 86 306 97 q 341 75 327 75 l 383 75 l 383 0 l 99 0 m 381 1276 l 345 1226 l 101 1369 l 163 1452 l 381 1276 z "},"ỉ":{"ha":482,"x_min":99,"x_max":383,"o":"m 99 0 l 99 75 l 139 75 q 164 86 153 75 q 175 113 175 97 l 175 1044 q 164 1070 175 1060 q 139 1081 153 1081 l 99 1081 l 99 1157 l 383 1157 l 383 1081 l 341 1081 q 316 1070 327 1081 q 306 1044 306 1060 l 306 113 q 316 86 306 97 q 341 75 327 75 l 383 75 l 383 0 l 99 0 m 214 1224 q 232 1278 218 1258 q 268 1317 246 1298 q 293 1344 284 1331 q 302 1375 302 1357 q 284 1421 302 1405 q 240 1437 266 1437 q 179 1409 200 1437 l 147 1460 q 199 1498 169 1484 q 262 1512 230 1512 q 351 1476 315 1512 q 383 1399 383 1444 q 364 1331 383 1365 q 312 1274 345 1298 q 283 1251 294 1262 q 270 1224 272 1240 l 214 1224 z "},"ī":{"ha":482,"x_min":60,"x_max":427,"o":"m 99 0 l 99 75 l 139 75 q 164 86 153 75 q 175 113 175 97 l 175 1044 q 164 1070 175 1060 q 139 1081 153 1081 l 99 1081 l 99 1157 l 383 1157 l 383 1081 l 341 1081 q 316 1070 327 1081 q 306 1044 306 1060 l 306 113 q 316 86 306 97 q 341 75 327 75 l 383 75 l 383 0 l 99 0 m 427 1276 l 60 1276 l 60 1367 l 427 1367 l 427 1276 z "},"į":{"ha":482,"x_min":99,"x_max":383,"o":"m 242 1238 q 185 1263 208 1238 q 161 1321 161 1288 q 186 1379 161 1355 q 242 1403 210 1403 q 300 1379 276 1403 q 323 1321 323 1355 q 300 1263 323 1288 q 242 1238 276 1238 m 341 1081 q 316 1070 327 1081 q 306 1044 306 1060 l 306 113 q 316 86 306 97 q 341 75 327 75 l 383 75 l 383 0 l 310 0 q 238 -51 268 -16 q 208 -125 208 -85 q 226 -175 208 -157 q 274 -192 244 -192 q 335 -175 304 -192 l 359 -206 q 250 -262 315 -262 q 163 -229 198 -262 q 127 -141 127 -196 q 158 -52 127 -87 q 226 0 188 -16 l 99 0 l 99 75 l 139 75 q 164 86 153 75 q 175 113 175 97 l 175 1044 q 164 1070 175 1060 q 139 1081 153 1081 l 99 1081 l 99 1157 l 383 1157 l 383 1081 l 341 1081 z "},"ĩ":{"ha":482,"x_min":36,"x_max":448,"o":"m 99 0 l 99 75 l 139 75 q 164 86 153 75 q 175 113 175 97 l 175 1044 q 164 1070 175 1060 q 139 1081 153 1081 l 99 1081 l 99 1157 l 383 1157 l 383 1081 l 341 1081 q 316 1070 327 1081 q 306 1044 306 1060 l 306 113 q 316 86 306 97 q 341 75 327 75 l 383 75 l 383 0 l 99 0 m 36 1290 q 153 1353 62 1353 q 254 1335 202 1353 q 367 1310 331 1310 q 438 1343 413 1310 l 448 1288 q 397 1240 431 1256 q 319 1224 363 1224 q 226 1242 266 1224 q 119 1270 167 1270 q 46 1236 71 1270 l 36 1290 z "},"j":{"ha":669,"x_min":58,"x_max":587,"o":"m 308 1157 l 587 1157 l 587 1081 l 558 1081 q 525 1068 538 1081 q 512 1036 512 1056 l 512 238 q 446 22 512 81 q 300 -38 381 -38 q 230 -29 256 -38 q 175 -4 204 -20 q 153 2 163 2 q 134 -6 141 2 q 125 -24 127 -14 l 58 -24 l 58 264 l 133 264 q 262 54 133 54 q 347 90 313 54 q 381 206 381 127 l 381 1036 q 368 1068 381 1056 q 337 1081 355 1081 l 308 1081 l 308 1157 z "},"k":{"ha":857,"x_min":91,"x_max":792,"o":"m 792 75 l 792 0 l 524 0 l 524 75 l 546 75 q 571 88 563 75 q 573 117 579 101 l 377 562 l 300 415 l 300 113 q 311 86 300 97 q 335 75 321 75 l 375 75 l 375 0 l 91 0 l 91 75 l 133 75 q 158 86 147 75 q 169 113 169 97 l 169 1044 q 158 1070 169 1060 q 133 1081 147 1081 l 91 1081 l 91 1157 l 375 1157 l 375 1081 l 335 1081 q 311 1070 321 1081 q 300 1044 300 1060 l 300 577 l 546 1038 q 552 1056 552 1048 q 545 1073 552 1065 q 526 1081 538 1081 l 494 1081 l 494 1157 l 718 1157 l 718 1081 l 688 1081 q 639 1052 655 1081 l 450 696 l 712 105 q 731 83 718 91 q 758 75 744 75 l 792 75 z "},"ķ":{"ha":857,"x_min":91,"x_max":792,"o":"m 792 75 l 792 0 l 524 0 l 524 75 l 546 75 q 571 88 563 75 q 573 117 579 101 l 377 562 l 300 415 l 300 113 q 311 86 300 97 q 335 75 321 75 l 375 75 l 375 0 l 91 0 l 91 75 l 133 75 q 158 86 147 75 q 169 113 169 97 l 169 1044 q 158 1070 169 1060 q 133 1081 147 1081 l 91 1081 l 91 1157 l 375 1157 l 375 1081 l 335 1081 q 311 1070 321 1081 q 300 1044 300 1060 l 300 577 l 546 1038 q 552 1056 552 1048 q 545 1073 552 1065 q 526 1081 538 1081 l 494 1081 l 494 1157 l 718 1157 l 718 1081 l 688 1081 q 639 1052 655 1081 l 450 696 l 712 105 q 731 83 718 91 q 758 75 744 75 l 792 75 m 401 -323 q 431 -234 431 -274 q 390 -205 407 -226 q 373 -159 373 -185 q 396 -104 373 -127 q 448 -81 419 -81 q 506 -109 482 -81 q 530 -171 530 -137 q 508 -250 530 -214 q 456 -306 486 -286 q 401 -323 427 -325 z "},"l":{"ha":722,"x_min":91,"x_max":649,"o":"m 91 0 l 91 75 l 133 75 q 158 86 147 75 q 169 113 169 97 l 169 1044 q 158 1070 169 1060 q 133 1081 147 1081 l 91 1081 l 91 1157 l 375 1157 l 375 1081 l 335 1081 q 311 1070 321 1081 q 300 1044 300 1060 l 300 75 l 514 75 q 557 93 540 75 q 573 135 573 111 l 573 232 l 649 232 l 649 0 l 91 0 z "},"ĺ":{"ha":722,"x_min":91,"x_max":649,"o":"m 91 0 l 91 75 l 133 75 q 158 86 147 75 q 169 113 169 97 l 169 1044 q 158 1070 169 1060 q 133 1081 147 1081 l 91 1081 l 91 1157 l 375 1157 l 375 1081 l 335 1081 q 311 1070 321 1081 q 300 1044 300 1060 l 300 75 l 514 75 q 557 93 540 75 q 573 135 573 111 l 573 232 l 649 232 l 649 0 l 91 0 m 534 1369 l 290 1226 l 254 1276 l 472 1452 l 534 1369 z "},"ľ":{"ha":722,"x_min":91,"x_max":649,"o":"m 91 0 l 91 75 l 133 75 q 158 86 147 75 q 169 113 169 97 l 169 1044 q 158 1070 169 1060 q 133 1081 147 1081 l 91 1081 l 91 1157 l 375 1157 l 375 1081 l 335 1081 q 311 1070 321 1081 q 300 1044 300 1060 l 300 75 l 514 75 q 557 93 540 75 q 573 135 573 111 l 573 232 l 649 232 l 649 0 l 91 0 m 524 931 q 540 962 526 935 q 554 1018 554 990 q 513 1046 530 1026 q 496 1091 496 1065 q 518 1144 496 1121 q 569 1167 540 1167 q 626 1140 603 1167 q 649 1079 649 1113 q 628 1002 649 1036 q 577 948 607 968 q 524 931 548 929 z "},"ļ":{"ha":722,"x_min":91,"x_max":649,"o":"m 91 0 l 91 75 l 133 75 q 158 86 147 75 q 169 113 169 97 l 169 1044 q 158 1070 169 1060 q 133 1081 147 1081 l 91 1081 l 91 1157 l 375 1157 l 375 1081 l 335 1081 q 311 1070 321 1081 q 300 1044 300 1060 l 300 75 l 514 75 q 557 93 540 75 q 573 135 573 111 l 573 232 l 649 232 l 649 0 l 91 0 m 331 -323 q 361 -234 361 -274 q 320 -205 337 -226 q 304 -159 304 -185 q 326 -104 304 -127 q 379 -81 349 -81 q 437 -109 413 -81 q 460 -171 460 -137 q 438 -250 460 -214 q 387 -306 417 -286 q 331 -323 357 -325 z "},"ł":{"ha":734,"x_min":109,"x_max":669,"o":"m 591 232 l 669 232 l 669 0 l 109 0 l 109 75 l 151 75 q 176 86 165 75 q 187 113 187 97 l 187 542 l 109 504 l 109 595 l 187 635 l 187 1044 q 176 1070 187 1060 q 151 1081 165 1081 l 109 1081 l 109 1157 l 393 1157 l 393 1081 l 353 1081 q 328 1070 339 1081 q 317 1044 317 1060 l 317 700 l 395 738 l 395 645 l 317 607 l 317 75 l 532 75 q 574 93 558 75 q 591 135 591 111 l 591 232 z "},"m":{"ha":1034,"x_min":73,"x_max":960,"o":"m 960 73 l 960 0 l 683 0 l 683 73 l 698 73 q 754 153 758 73 l 724 879 l 484 -50 l 478 -50 l 246 883 l 232 127 q 247 87 232 101 q 288 73 262 73 l 312 73 l 312 0 l 73 0 l 73 73 l 93 73 q 132 87 121 73 q 145 133 143 101 l 167 1014 q 150 1063 169 1044 q 97 1083 131 1083 l 87 1083 l 87 1157 l 312 1157 l 506 359 l 712 1157 l 921 1157 l 921 1083 l 911 1083 q 860 1069 881 1083 q 841 1026 839 1056 l 879 147 q 898 94 881 115 q 944 73 915 73 l 960 73 z "},"n":{"ha":881,"x_min":91,"x_max":798,"o":"m 575 1157 l 798 1157 l 798 1083 l 778 1083 q 737 1072 746 1083 q 728 1026 728 1062 l 728 -50 l 722 -50 l 246 877 l 246 137 q 292 73 246 73 l 310 73 l 310 0 l 91 0 l 91 73 l 111 73 q 163 141 163 73 l 163 1014 q 153 1065 163 1048 q 117 1083 143 1083 l 91 1083 l 91 1157 l 244 1157 l 645 367 l 645 1026 q 636 1072 645 1062 q 593 1083 627 1083 l 575 1083 l 575 1157 z "},"ń":{"ha":881,"x_min":91,"x_max":798,"o":"m 575 1157 l 798 1157 l 798 1083 l 778 1083 q 737 1072 746 1083 q 728 1026 728 1062 l 728 -50 l 722 -50 l 246 877 l 246 137 q 292 73 246 73 l 310 73 l 310 0 l 91 0 l 91 73 l 111 73 q 163 141 163 73 l 163 1014 q 153 1065 163 1048 q 117 1083 143 1083 l 91 1083 l 91 1157 l 244 1157 l 645 367 l 645 1026 q 636 1072 645 1062 q 593 1083 627 1083 l 575 1083 l 575 1157 m 569 1369 l 325 1226 l 290 1276 l 508 1452 l 569 1369 z "},"ň":{"ha":881,"x_min":91,"x_max":798,"o":"m 575 1157 l 798 1157 l 798 1083 l 778 1083 q 737 1072 746 1083 q 728 1026 728 1062 l 728 -50 l 722 -50 l 246 877 l 246 137 q 292 73 246 73 l 310 73 l 310 0 l 91 0 l 91 73 l 111 73 q 163 141 163 73 l 163 1014 q 153 1065 163 1048 q 117 1083 143 1083 l 91 1083 l 91 1157 l 244 1157 l 645 367 l 645 1026 q 636 1072 645 1062 q 593 1083 627 1083 l 575 1083 l 575 1157 m 431 1337 l 629 1399 l 629 1335 l 431 1226 l 230 1335 l 230 1399 l 431 1337 z "},"ņ":{"ha":881,"x_min":91,"x_max":798,"o":"m 575 1157 l 798 1157 l 798 1083 l 778 1083 q 737 1072 746 1083 q 728 1026 728 1062 l 728 -50 l 722 -50 l 246 877 l 246 137 q 292 73 246 73 l 310 73 l 310 0 l 91 0 l 91 73 l 111 73 q 163 141 163 73 l 163 1014 q 153 1065 163 1048 q 117 1083 143 1083 l 91 1083 l 91 1157 l 244 1157 l 645 367 l 645 1026 q 636 1072 645 1062 q 593 1083 627 1083 l 575 1083 l 575 1157 m 425 -323 q 454 -234 454 -274 q 414 -205 431 -226 q 397 -159 397 -185 q 420 -104 397 -127 q 472 -81 442 -81 q 530 -109 506 -81 q 554 -171 554 -137 q 532 -250 554 -214 q 480 -306 510 -286 q 425 -323 450 -325 z "},"ñ":{"ha":881,"x_min":91,"x_max":798,"o":"m 575 1157 l 798 1157 l 798 1083 l 778 1083 q 737 1072 746 1083 q 728 1026 728 1062 l 728 -50 l 722 -50 l 246 877 l 246 137 q 292 73 246 73 l 310 73 l 310 0 l 91 0 l 91 73 l 111 73 q 163 141 163 73 l 163 1014 q 153 1065 163 1048 q 117 1083 143 1083 l 91 1083 l 91 1157 l 244 1157 l 645 367 l 645 1026 q 636 1072 645 1062 q 593 1083 627 1083 l 575 1083 l 575 1157 m 224 1290 q 341 1353 250 1353 q 442 1335 391 1353 q 556 1310 520 1310 q 627 1343 601 1310 l 637 1288 q 585 1240 619 1256 q 508 1224 552 1224 q 415 1242 454 1224 q 308 1270 355 1270 q 234 1236 260 1270 l 224 1290 z "},"o":{"ha":829,"x_min":63,"x_max":768,"o":"m 415 -40 q 239 39 319 -40 q 111 258 159 117 q 63 579 63 399 q 111 899 63 758 q 239 1118 159 1040 q 415 1196 319 1196 q 592 1118 512 1196 q 720 899 673 1040 q 768 579 768 758 q 720 258 768 399 q 592 39 673 117 q 415 -40 512 -40 m 415 40 q 518 108 470 40 q 595 301 565 177 q 625 579 625 425 q 595 857 625 734 q 518 1049 565 980 q 415 1117 470 1117 q 312 1049 359 1117 q 234 857 264 980 q 204 579 204 734 q 234 301 204 425 q 312 108 264 177 q 415 40 359 40 z "},"ó":{"ha":829,"x_min":63,"x_max":768,"o":"m 415 -40 q 239 39 319 -40 q 111 258 159 117 q 63 579 63 399 q 111 899 63 758 q 239 1118 159 1040 q 415 1196 319 1196 q 592 1118 512 1196 q 720 899 673 1040 q 768 579 768 758 q 720 258 768 399 q 592 39 673 117 q 415 -40 512 -40 m 415 40 q 518 108 470 40 q 595 301 565 177 q 625 579 625 425 q 595 857 625 734 q 518 1049 565 980 q 415 1117 470 1117 q 312 1049 359 1117 q 234 857 264 980 q 204 579 204 734 q 234 301 204 425 q 312 108 264 177 q 415 40 359 40 m 554 1395 l 310 1252 l 274 1302 l 492 1478 l 554 1395 z "},"ǒ":{"ha":829,"x_min":63,"x_max":768,"o":"m 415 -40 q 239 39 319 -40 q 111 258 159 117 q 63 579 63 399 q 111 899 63 758 q 239 1118 159 1040 q 415 1196 319 1196 q 592 1118 512 1196 q 720 899 673 1040 q 768 579 768 758 q 720 258 768 399 q 592 39 673 117 q 415 -40 512 -40 m 415 40 q 518 108 470 40 q 595 301 565 177 q 625 579 625 425 q 595 857 625 734 q 518 1049 565 980 q 415 1117 470 1117 q 312 1049 359 1117 q 234 857 264 980 q 204 579 204 734 q 234 301 204 425 q 312 108 264 177 q 415 40 359 40 m 415 1363 l 613 1425 l 613 1361 l 415 1252 l 214 1361 l 214 1425 l 415 1363 z "},"ô":{"ha":829,"x_min":63,"x_max":768,"o":"m 415 -40 q 239 39 319 -40 q 111 258 159 117 q 63 579 63 399 q 111 899 63 758 q 239 1118 159 1040 q 415 1196 319 1196 q 592 1118 512 1196 q 720 899 673 1040 q 768 579 768 758 q 720 258 768 399 q 592 39 673 117 q 415 -40 512 -40 m 415 40 q 518 108 470 40 q 595 301 565 177 q 625 579 625 425 q 595 857 625 734 q 518 1049 565 980 q 415 1117 470 1117 q 312 1049 359 1117 q 234 857 264 980 q 204 579 204 734 q 234 301 204 425 q 312 108 264 177 q 415 40 359 40 m 415 1315 l 216 1254 l 216 1317 l 415 1427 l 615 1317 l 615 1254 l 415 1315 z "},"ố":{"ha":829,"x_min":63,"x_max":794,"o":"m 415 -40 q 239 39 319 -40 q 111 258 159 117 q 63 579 63 399 q 111 899 63 758 q 239 1118 159 1040 q 415 1196 319 1196 q 592 1118 512 1196 q 720 899 673 1040 q 768 579 768 758 q 720 258 768 399 q 592 39 673 117 q 415 -40 512 -40 m 415 40 q 518 108 470 40 q 595 301 565 177 q 625 579 625 425 q 595 857 625 734 q 518 1049 565 980 q 415 1117 470 1117 q 312 1049 359 1117 q 234 857 264 980 q 204 579 204 734 q 234 301 204 425 q 312 108 264 177 q 415 40 359 40 z "},"ộ":{"ha":829,"x_min":63,"x_max":768,"o":"m 415 -40 q 239 39 319 -40 q 111 258 159 117 q 63 579 63 399 q 111 899 63 758 q 239 1118 159 1040 q 415 1196 319 1196 q 592 1118 512 1196 q 720 899 673 1040 q 768 579 768 758 q 720 258 768 399 q 592 39 673 117 q 415 -40 512 -40 m 415 40 q 518 108 470 40 q 595 301 565 177 q 625 579 625 425 q 595 857 625 734 q 518 1049 565 980 q 415 1117 470 1117 q 312 1049 359 1117 q 234 857 264 980 q 204 579 204 734 q 234 301 204 425 q 312 108 264 177 q 415 40 359 40 m 415 -274 q 357 -249 381 -274 q 333 -190 333 -224 q 357 -134 333 -159 q 415 -109 381 -109 q 471 -134 446 -109 q 496 -190 496 -159 q 472 -249 496 -224 q 415 -274 448 -274 m 415 1315 l 216 1254 l 216 1317 l 415 1427 l 615 1317 l 615 1254 l 415 1315 z "},"ồ":{"ha":829,"x_min":63,"x_max":768,"o":"m 415 -40 q 239 39 319 -40 q 111 258 159 117 q 63 579 63 399 q 111 899 63 758 q 239 1118 159 1040 q 415 1196 319 1196 q 592 1118 512 1196 q 720 899 673 1040 q 768 579 768 758 q 720 258 768 399 q 592 39 673 117 q 415 -40 512 -40 m 415 40 q 518 108 470 40 q 595 301 565 177 q 625 579 625 425 q 595 857 625 734 q 518 1049 565 980 q 415 1117 470 1117 q 312 1049 359 1117 q 234 857 264 980 q 204 579 204 734 q 234 301 204 425 q 312 108 264 177 q 415 40 359 40 z "},"ổ":{"ha":829,"x_min":63,"x_max":768,"o":"m 415 -40 q 239 39 319 -40 q 111 258 159 117 q 63 579 63 399 q 111 899 63 758 q 239 1118 159 1040 q 415 1196 319 1196 q 592 1118 512 1196 q 720 899 673 1040 q 768 579 768 758 q 720 258 768 399 q 592 39 673 117 q 415 -40 512 -40 m 415 40 q 518 108 470 40 q 595 301 565 177 q 625 579 625 425 q 595 857 625 734 q 518 1049 565 980 q 415 1117 470 1117 q 312 1049 359 1117 q 234 857 264 980 q 204 579 204 734 q 234 301 204 425 q 312 108 264 177 q 415 40 359 40 z "},"ỗ":{"ha":829,"x_min":63,"x_max":768,"o":"m 415 -40 q 239 39 319 -40 q 111 258 159 117 q 63 579 63 399 q 111 899 63 758 q 239 1118 159 1040 q 415 1196 319 1196 q 592 1118 512 1196 q 720 899 673 1040 q 768 579 768 758 q 720 258 768 399 q 592 39 673 117 q 415 -40 512 -40 m 415 40 q 518 108 470 40 q 595 301 565 177 q 625 579 625 425 q 595 857 625 734 q 518 1049 565 980 q 415 1117 470 1117 q 312 1049 359 1117 q 234 857 264 980 q 204 579 204 734 q 234 301 204 425 q 312 108 264 177 q 415 40 359 40 z "},"ö":{"ha":829,"x_min":63,"x_max":768,"o":"m 415 -40 q 239 39 319 -40 q 111 258 159 117 q 63 579 63 399 q 111 899 63 758 q 239 1118 159 1040 q 415 1196 319 1196 q 592 1118 512 1196 q 720 899 673 1040 q 768 579 768 758 q 720 258 768 399 q 592 39 673 117 q 415 -40 512 -40 m 415 40 q 518 108 470 40 q 595 301 565 177 q 625 579 625 425 q 595 857 625 734 q 518 1049 565 980 q 415 1117 470 1117 q 312 1049 359 1117 q 234 857 264 980 q 204 579 204 734 q 234 301 204 425 q 312 108 264 177 q 415 40 359 40 m 274 1264 q 216 1289 240 1264 q 192 1347 192 1313 q 216 1405 192 1381 q 274 1429 240 1429 q 330 1405 306 1429 q 355 1347 355 1381 q 331 1289 355 1313 q 274 1264 308 1264 m 558 1264 q 500 1289 524 1264 q 476 1347 476 1313 q 500 1405 476 1381 q 558 1429 524 1429 q 614 1405 589 1429 q 639 1347 639 1381 q 615 1289 639 1313 q 558 1264 591 1264 z "},"ọ":{"ha":829,"x_min":63,"x_max":768,"o":"m 415 -40 q 239 39 319 -40 q 111 258 159 117 q 63 579 63 399 q 111 899 63 758 q 239 1118 159 1040 q 415 1196 319 1196 q 592 1118 512 1196 q 720 899 673 1040 q 768 579 768 758 q 720 258 768 399 q 592 39 673 117 q 415 -40 512 -40 m 415 40 q 518 108 470 40 q 595 301 565 177 q 625 579 625 425 q 595 857 625 734 q 518 1049 565 980 q 415 1117 470 1117 q 312 1049 359 1117 q 234 857 264 980 q 204 579 204 734 q 234 301 204 425 q 312 108 264 177 q 415 40 359 40 m 415 -274 q 357 -249 381 -274 q 333 -190 333 -224 q 357 -134 333 -159 q 415 -109 381 -109 q 471 -134 446 -109 q 496 -190 496 -159 q 472 -249 496 -224 q 415 -274 448 -274 z "},"ò":{"ha":829,"x_min":63,"x_max":768,"o":"m 415 -40 q 239 39 319 -40 q 111 258 159 117 q 63 579 63 399 q 111 899 63 758 q 239 1118 159 1040 q 415 1196 319 1196 q 592 1118 512 1196 q 720 899 673 1040 q 768 579 768 758 q 720 258 768 399 q 592 39 673 117 q 415 -40 512 -40 m 415 40 q 518 108 470 40 q 595 301 565 177 q 625 579 625 425 q 595 857 625 734 q 518 1049 565 980 q 415 1117 470 1117 q 312 1049 359 1117 q 234 857 264 980 q 204 579 204 734 q 234 301 204 425 q 312 108 264 177 q 415 40 359 40 m 554 1302 l 518 1252 l 274 1395 l 335 1478 l 554 1302 z "},"ỏ":{"ha":829,"x_min":63,"x_max":768,"o":"m 415 -40 q 239 39 319 -40 q 111 258 159 117 q 63 579 63 399 q 111 899 63 758 q 239 1118 159 1040 q 415 1196 319 1196 q 592 1118 512 1196 q 720 899 673 1040 q 768 579 768 758 q 720 258 768 399 q 592 39 673 117 q 415 -40 512 -40 m 415 40 q 518 108 470 40 q 595 301 565 177 q 625 579 625 425 q 595 857 625 734 q 518 1049 565 980 q 415 1117 470 1117 q 312 1049 359 1117 q 234 857 264 980 q 204 579 204 734 q 234 301 204 425 q 312 108 264 177 q 415 40 359 40 m 387 1250 q 405 1304 391 1284 q 440 1343 419 1323 q 465 1370 456 1357 q 474 1401 474 1383 q 456 1446 474 1431 q 413 1462 438 1462 q 351 1435 373 1462 l 319 1486 q 372 1524 341 1510 q 435 1538 403 1538 q 524 1502 488 1538 q 556 1425 556 1470 q 537 1357 556 1391 q 484 1300 518 1323 q 455 1277 466 1288 q 442 1250 444 1266 l 387 1250 z "},"ơ":{"ha":829,"x_min":63,"x_max":798,"o":"m 758 1077 q 649 1052 708 1044 q 736 847 704 968 q 768 579 768 726 q 720 258 768 399 q 592 39 673 117 q 415 -40 512 -40 q 239 39 319 -40 q 111 258 159 117 q 63 579 63 399 q 111 899 63 758 q 239 1118 159 1040 q 415 1196 319 1196 q 609 1101 524 1196 q 655 1121 637 1107 q 649 1149 649 1137 q 679 1210 649 1187 q 722 1224 698 1224 q 784 1196 760 1224 q 798 1153 798 1177 q 787 1112 798 1133 q 758 1077 776 1091 m 415 40 q 518 108 470 40 q 595 301 565 177 q 625 579 625 425 q 595 857 625 734 q 518 1049 565 980 q 415 1117 470 1117 q 312 1049 359 1117 q 234 857 264 980 q 204 579 204 734 q 234 301 204 425 q 312 108 264 177 q 415 40 359 40 z "},"ớ":{"ha":829,"x_min":63,"x_max":798,"o":"m 758 1077 q 649 1052 708 1044 q 736 847 704 968 q 768 579 768 726 q 720 258 768 399 q 592 39 673 117 q 415 -40 512 -40 q 239 39 319 -40 q 111 258 159 117 q 63 579 63 399 q 111 899 63 758 q 239 1118 159 1040 q 415 1196 319 1196 q 609 1101 524 1196 q 655 1121 637 1107 q 649 1149 649 1137 q 679 1210 649 1187 q 722 1224 698 1224 q 784 1196 760 1224 q 798 1153 798 1177 q 787 1112 798 1133 q 758 1077 776 1091 m 415 40 q 518 108 470 40 q 595 301 565 177 q 625 579 625 425 q 595 857 625 734 q 518 1049 565 980 q 415 1117 470 1117 q 312 1049 359 1117 q 234 857 264 980 q 204 579 204 734 q 234 301 204 425 q 312 108 264 177 q 415 40 359 40 m 554 1395 l 310 1252 l 274 1302 l 492 1478 l 554 1395 z "},"ợ":{"ha":829,"x_min":63,"x_max":798,"o":"m 758 1077 q 649 1052 708 1044 q 736 847 704 968 q 768 579 768 726 q 720 258 768 399 q 592 39 673 117 q 415 -40 512 -40 q 239 39 319 -40 q 111 258 159 117 q 63 579 63 399 q 111 899 63 758 q 239 1118 159 1040 q 415 1196 319 1196 q 609 1101 524 1196 q 655 1121 637 1107 q 649 1149 649 1137 q 679 1210 649 1187 q 722 1224 698 1224 q 784 1196 760 1224 q 798 1153 798 1177 q 787 1112 798 1133 q 758 1077 776 1091 m 415 40 q 518 108 470 40 q 595 301 565 177 q 625 579 625 425 q 595 857 625 734 q 518 1049 565 980 q 415 1117 470 1117 q 312 1049 359 1117 q 234 857 264 980 q 204 579 204 734 q 234 301 204 425 q 312 108 264 177 q 415 40 359 40 m 415 -274 q 357 -249 381 -274 q 333 -190 333 -224 q 357 -134 333 -159 q 415 -109 381 -109 q 471 -134 446 -109 q 496 -190 496 -159 q 472 -249 496 -224 q 415 -274 448 -274 z "},"ờ":{"ha":829,"x_min":63,"x_max":798,"o":"m 758 1077 q 649 1052 708 1044 q 736 847 704 968 q 768 579 768 726 q 720 258 768 399 q 592 39 673 117 q 415 -40 512 -40 q 239 39 319 -40 q 111 258 159 117 q 63 579 63 399 q 111 899 63 758 q 239 1118 159 1040 q 415 1196 319 1196 q 609 1101 524 1196 q 655 1121 637 1107 q 649 1149 649 1137 q 679 1210 649 1187 q 722 1224 698 1224 q 784 1196 760 1224 q 798 1153 798 1177 q 787 1112 798 1133 q 758 1077 776 1091 m 415 40 q 518 108 470 40 q 595 301 565 177 q 625 579 625 425 q 595 857 625 734 q 518 1049 565 980 q 415 1117 470 1117 q 312 1049 359 1117 q 234 857 264 980 q 204 579 204 734 q 234 301 204 425 q 312 108 264 177 q 415 40 359 40 m 554 1302 l 518 1252 l 274 1395 l 335 1478 l 554 1302 z "},"ở":{"ha":829,"x_min":63,"x_max":798,"o":"m 758 1077 q 649 1052 708 1044 q 736 847 704 968 q 768 579 768 726 q 720 258 768 399 q 592 39 673 117 q 415 -40 512 -40 q 239 39 319 -40 q 111 258 159 117 q 63 579 63 399 q 111 899 63 758 q 239 1118 159 1040 q 415 1196 319 1196 q 609 1101 524 1196 q 655 1121 637 1107 q 649 1149 649 1137 q 679 1210 649 1187 q 722 1224 698 1224 q 784 1196 760 1224 q 798 1153 798 1177 q 787 1112 798 1133 q 758 1077 776 1091 m 415 40 q 518 108 470 40 q 595 301 565 177 q 625 579 625 425 q 595 857 625 734 q 518 1049 565 980 q 415 1117 470 1117 q 312 1049 359 1117 q 234 857 264 980 q 204 579 204 734 q 234 301 204 425 q 312 108 264 177 q 415 40 359 40 m 387 1250 q 405 1304 391 1284 q 440 1343 419 1323 q 465 1370 456 1357 q 474 1401 474 1383 q 456 1446 474 1431 q 413 1462 438 1462 q 351 1435 373 1462 l 319 1486 q 372 1524 341 1510 q 435 1538 403 1538 q 524 1502 488 1538 q 556 1425 556 1470 q 537 1357 556 1391 q 484 1300 518 1323 q 455 1277 466 1288 q 442 1250 444 1266 l 387 1250 z "},"ỡ":{"ha":829,"x_min":63,"x_max":798,"o":"m 401 1268 q 306 1296 349 1296 q 238 1262 260 1296 l 230 1315 q 335 1379 252 1379 q 427 1361 379 1379 q 528 1335 496 1335 q 591 1369 569 1335 l 601 1313 q 556 1266 587 1282 q 484 1250 524 1250 q 401 1268 437 1250 m 758 1077 q 649 1052 708 1044 q 736 847 704 968 q 768 579 768 726 q 720 258 768 399 q 592 39 673 117 q 415 -40 512 -40 q 239 39 319 -40 q 111 258 159 117 q 63 579 63 399 q 111 899 63 758 q 239 1118 159 1040 q 415 1196 319 1196 q 609 1101 524 1196 q 655 1121 637 1107 q 649 1149 649 1137 q 679 1210 649 1187 q 722 1224 698 1224 q 784 1196 760 1224 q 798 1153 798 1177 q 787 1112 798 1133 q 758 1077 776 1091 m 415 40 q 518 108 470 40 q 595 301 565 177 q 625 579 625 425 q 595 857 625 734 q 518 1049 565 980 q 415 1117 470 1117 q 312 1049 359 1117 q 234 857 264 980 q 204 579 204 734 q 234 301 204 425 q 312 108 264 177 q 415 40 359 40 z "},"ő":{"ha":829,"x_min":63,"x_max":768,"o":"m 415 -40 q 239 39 319 -40 q 111 258 159 117 q 63 579 63 399 q 111 899 63 758 q 239 1118 159 1040 q 415 1196 319 1196 q 592 1118 512 1196 q 720 899 673 1040 q 768 579 768 758 q 720 258 768 399 q 592 39 673 117 q 415 -40 512 -40 m 415 40 q 518 108 470 40 q 595 301 565 177 q 625 579 625 425 q 595 857 625 734 q 518 1049 565 980 q 415 1117 470 1117 q 312 1049 359 1117 q 234 857 264 980 q 204 579 204 734 q 234 301 204 425 q 312 108 264 177 q 415 40 359 40 z "},"ō":{"ha":829,"x_min":63,"x_max":768,"o":"m 415 -40 q 239 39 319 -40 q 111 258 159 117 q 63 579 63 399 q 111 899 63 758 q 239 1118 159 1040 q 415 1196 319 1196 q 592 1118 512 1196 q 720 899 673 1040 q 768 579 768 758 q 720 258 768 399 q 592 39 673 117 q 415 -40 512 -40 m 415 40 q 518 108 470 40 q 595 301 565 177 q 625 579 625 425 q 595 857 625 734 q 518 1049 565 980 q 415 1117 470 1117 q 312 1049 359 1117 q 234 857 264 980 q 204 579 204 734 q 234 301 204 425 q 312 108 264 177 q 415 40 359 40 m 599 1302 l 232 1302 l 232 1393 l 599 1393 l 599 1302 z "},"ø":{"ha":829,"x_min":63,"x_max":768,"o":"m 633 1073 q 732 861 696 988 q 768 579 768 734 q 720 258 768 399 q 592 39 673 117 q 415 -40 512 -40 q 276 8 339 -40 l 264 -28 l 159 -28 l 196 85 q 98 296 133 169 q 63 579 63 423 q 111 899 63 758 q 239 1118 159 1040 q 415 1196 319 1196 q 552 1151 488 1196 l 563 1187 l 671 1187 l 633 1073 m 204 579 q 250 244 204 391 l 518 1050 q 415 1117 468 1117 q 312 1049 359 1117 q 234 857 264 980 q 204 579 204 734 m 415 40 q 518 108 470 40 q 595 301 565 177 q 625 579 625 425 q 579 915 625 772 l 310 111 q 415 40 359 40 z "},"õ":{"ha":829,"x_min":63,"x_max":768,"o":"m 415 -40 q 239 39 319 -40 q 111 258 159 117 q 63 579 63 399 q 111 899 63 758 q 239 1118 159 1040 q 415 1196 319 1196 q 592 1118 512 1196 q 720 899 673 1040 q 768 579 768 758 q 720 258 768 399 q 592 39 673 117 q 415 -40 512 -40 m 415 40 q 518 108 470 40 q 595 301 565 177 q 625 579 625 425 q 595 857 625 734 q 518 1049 565 980 q 415 1117 470 1117 q 312 1049 359 1117 q 234 857 264 980 q 204 579 204 734 q 234 301 204 425 q 312 108 264 177 q 415 40 359 40 m 208 1315 q 325 1379 234 1379 q 427 1361 375 1379 q 540 1335 504 1335 q 611 1369 585 1335 l 621 1313 q 569 1266 603 1282 q 492 1250 536 1250 q 399 1268 438 1250 q 292 1296 339 1296 q 218 1262 244 1296 l 208 1315 z "},"œ":{"ha":1190,"x_min":63,"x_max":1111,"o":"m 1042 216 l 1111 216 l 1111 0 l 647 0 l 647 103 q 542 -3 601 34 q 415 -40 482 -40 q 239 39 319 -40 q 111 258 159 117 q 63 579 63 399 q 111 899 63 758 q 239 1118 159 1040 q 415 1196 319 1196 q 542 1160 482 1196 q 647 1054 601 1123 l 647 1157 l 1056 1157 l 1056 948 l 984 948 l 984 994 q 963 1045 984 1024 q 913 1065 942 1065 l 776 1065 l 776 720 l 889 720 q 923 734 909 720 q 937 768 937 748 l 937 798 l 1008 798 l 1008 560 l 937 560 l 937 599 q 926 626 937 615 q 899 637 915 637 l 776 637 l 776 73 l 954 73 q 1042 167 1042 73 l 1042 216 m 415 40 q 518 108 470 40 q 595 301 565 177 q 625 579 625 425 q 595 857 625 734 q 518 1049 565 980 q 415 1117 470 1117 q 312 1049 359 1117 q 234 857 264 980 q 204 579 204 734 q 234 301 204 425 q 312 108 264 177 q 415 40 359 40 z "},"p":{"ha":772,"x_min":91,"x_max":698,"o":"m 698 837 q 661 668 698 746 q 555 544 623 589 q 393 498 486 498 q 300 512 339 498 l 300 113 q 311 86 300 97 q 335 75 321 75 l 375 75 l 375 0 l 91 0 l 91 75 l 133 75 q 158 86 147 75 q 169 113 169 97 l 169 1050 q 159 1075 169 1065 q 133 1085 149 1085 l 91 1085 l 91 1159 l 381 1159 q 532 1119 458 1159 q 652 1006 605 1079 q 698 837 698 933 m 300 601 q 359 589 325 589 q 461 621 413 589 q 538 712 510 653 q 560 853 565 772 q 480 1023 550 972 q 315 1073 411 1073 l 300 1073 l 300 601 z "},"q":{"ha":827,"x_min":63,"x_max":817,"o":"m 817 28 q 762 -18 794 -4 q 683 -38 718 -38 q 563 14 621 -38 q 415 -40 496 -40 q 239 39 319 -40 q 111 258 159 117 q 63 579 63 399 q 111 899 63 758 q 239 1118 159 1040 q 415 1196 319 1196 q 592 1118 512 1196 q 720 899 673 1040 q 768 579 768 758 q 735 306 768 429 q 643 99 702 183 q 714 73 677 73 q 774 91 752 73 l 817 28 m 415 40 q 498 83 458 40 q 450 119 470 111 q 407 127 431 127 q 371 115 391 127 l 331 173 q 345 188 333 175 q 379 212 357 202 q 440 226 411 226 q 556 179 498 226 q 625 579 625 337 q 595 857 625 734 q 518 1049 565 980 q 415 1117 470 1117 q 312 1049 359 1117 q 234 857 264 980 q 204 579 204 734 q 234 301 204 425 q 312 108 264 177 q 415 40 359 40 z "},"r":{"ha":881,"x_min":91,"x_max":823,"o":"m 823 -32 q 785 -43 810 -40 q 738 -44 760 -46 q 514 149 603 -20 q 446 316 476 220 q 401 510 417 413 q 343 514 363 510 q 298 528 315 520 l 298 113 q 309 86 298 97 q 333 75 319 75 l 375 75 l 375 0 l 91 0 l 91 75 l 131 75 q 156 86 145 75 q 167 113 167 97 l 167 1046 q 157 1072 167 1062 q 131 1083 147 1083 l 91 1083 l 91 1157 l 379 1157 q 530 1118 456 1157 q 650 1007 603 1079 q 696 839 696 935 q 652 666 696 746 q 532 544 607 585 q 577 315 556 403 q 662 114 601 206 q 786 22 722 22 q 804 24 798 22 l 823 -32 m 298 613 q 373 593 331 593 q 468 625 423 593 q 539 715 514 657 q 558 851 563 774 q 321 1063 538 1063 l 298 1063 l 298 613 z "},"ŕ":{"ha":881,"x_min":91,"x_max":823,"o":"m 823 -32 q 785 -43 810 -40 q 738 -44 760 -46 q 514 149 603 -20 q 446 316 476 220 q 401 510 417 413 q 343 514 363 510 q 298 528 315 520 l 298 113 q 309 86 298 97 q 333 75 319 75 l 375 75 l 375 0 l 91 0 l 91 75 l 131 75 q 156 86 145 75 q 167 113 167 97 l 167 1046 q 157 1072 167 1062 q 131 1083 147 1083 l 91 1083 l 91 1157 l 379 1157 q 530 1118 456 1157 q 650 1007 603 1079 q 696 839 696 935 q 652 666 696 746 q 532 544 607 585 q 577 315 556 403 q 662 114 601 206 q 786 22 722 22 q 804 24 798 22 l 823 -32 m 298 613 q 373 593 331 593 q 468 625 423 593 q 539 715 514 657 q 558 851 563 774 q 321 1063 538 1063 l 298 1063 l 298 613 m 520 1369 l 276 1226 l 240 1276 l 458 1452 l 520 1369 z "},"ř":{"ha":881,"x_min":91,"x_max":823,"o":"m 823 -32 q 785 -43 810 -40 q 738 -44 760 -46 q 514 149 603 -20 q 446 316 476 220 q 401 510 417 413 q 343 514 363 510 q 298 528 315 520 l 298 113 q 309 86 298 97 q 333 75 319 75 l 375 75 l 375 0 l 91 0 l 91 75 l 131 75 q 156 86 145 75 q 167 113 167 97 l 167 1046 q 157 1072 167 1062 q 131 1083 147 1083 l 91 1083 l 91 1157 l 379 1157 q 530 1118 456 1157 q 650 1007 603 1079 q 696 839 696 935 q 652 666 696 746 q 532 544 607 585 q 577 315 556 403 q 662 114 601 206 q 786 22 722 22 q 804 24 798 22 l 823 -32 m 298 613 q 373 593 331 593 q 468 625 423 593 q 539 715 514 657 q 558 851 563 774 q 321 1063 538 1063 l 298 1063 l 298 613 m 381 1337 l 579 1399 l 579 1335 l 381 1226 l 181 1335 l 181 1399 l 381 1337 z "},"ŗ":{"ha":881,"x_min":91,"x_max":823,"o":"m 823 -32 q 785 -43 810 -40 q 738 -44 760 -46 q 514 149 603 -20 q 446 316 476 220 q 401 510 417 413 q 343 514 363 510 q 298 528 315 520 l 298 113 q 309 86 298 97 q 333 75 319 75 l 375 75 l 375 0 l 91 0 l 91 75 l 131 75 q 156 86 145 75 q 167 113 167 97 l 167 1046 q 157 1072 167 1062 q 131 1083 147 1083 l 91 1083 l 91 1157 l 379 1157 q 530 1118 456 1157 q 650 1007 603 1079 q 696 839 696 935 q 652 666 696 746 q 532 544 607 585 q 577 315 556 403 q 662 114 601 206 q 786 22 722 22 q 804 24 798 22 l 823 -32 m 298 613 q 373 593 331 593 q 468 625 423 593 q 539 715 514 657 q 558 851 563 774 q 321 1063 538 1063 l 298 1063 l 298 613 m 387 -323 q 417 -234 417 -274 q 376 -205 393 -226 q 359 -159 359 -185 q 382 -104 359 -127 q 435 -81 405 -81 q 492 -109 468 -81 q 516 -171 516 -137 q 494 -250 516 -214 q 442 -306 472 -286 q 387 -323 413 -325 z "},"s":{"ha":688,"x_min":85,"x_max":615,"o":"m 85 -38 l 85 290 l 173 290 q 217 130 173 198 q 339 62 262 62 q 438 101 391 62 q 484 220 484 141 q 438 383 484 306 q 294 589 393 460 q 150 798 196 714 q 103 970 103 881 q 157 1121 103 1071 q 280 1173 210 1171 q 345 1171 319 1177 q 388 1158 371 1165 q 411 1149 405 1151 q 433 1145 423 1145 q 480 1183 472 1145 l 538 1183 l 538 895 l 470 895 q 432 1029 470 968 q 325 1089 393 1089 q 256 1062 282 1089 q 230 986 230 1034 q 253 890 230 937 q 355 728 276 843 q 415 649 377 698 q 563 427 512 520 q 615 230 615 333 q 571 75 615 137 q 465 -13 528 14 q 349 -36 403 -40 q 267 -17 298 -32 q 228 2 236 -2 q 206 6 220 6 q 178 -6 188 6 q 163 -38 167 -18 l 85 -38 z "},"ś":{"ha":688,"x_min":85,"x_max":615,"o":"m 85 -38 l 85 290 l 173 290 q 217 130 173 198 q 339 62 262 62 q 438 101 391 62 q 484 220 484 141 q 438 383 484 306 q 294 589 393 460 q 150 798 196 714 q 103 970 103 881 q 157 1121 103 1071 q 280 1173 210 1171 q 345 1171 319 1177 q 388 1158 371 1165 q 411 1149 405 1151 q 433 1145 423 1145 q 480 1183 472 1145 l 538 1183 l 538 895 l 470 895 q 432 1029 470 968 q 325 1089 393 1089 q 256 1062 282 1089 q 230 986 230 1034 q 253 890 230 937 q 355 728 276 843 q 415 649 377 698 q 563 427 512 520 q 615 230 615 333 q 571 75 615 137 q 465 -13 528 14 q 349 -36 403 -40 q 267 -17 298 -32 q 228 2 236 -2 q 206 6 220 6 q 178 -6 188 6 q 163 -38 167 -18 l 85 -38 m 466 1381 l 222 1238 l 187 1288 l 405 1464 l 466 1381 z "},"š":{"ha":688,"x_min":85,"x_max":615,"o":"m 85 -38 l 85 290 l 173 290 q 217 130 173 198 q 339 62 262 62 q 438 101 391 62 q 484 220 484 141 q 438 383 484 306 q 294 589 393 460 q 150 798 196 714 q 103 970 103 881 q 157 1121 103 1071 q 280 1173 210 1171 q 345 1171 319 1177 q 388 1158 371 1165 q 411 1149 405 1151 q 433 1145 423 1145 q 480 1183 472 1145 l 538 1183 l 538 895 l 470 895 q 432 1029 470 968 q 325 1089 393 1089 q 256 1062 282 1089 q 230 986 230 1034 q 253 890 230 937 q 355 728 276 843 q 415 649 377 698 q 563 427 512 520 q 615 230 615 333 q 571 75 615 137 q 465 -13 528 14 q 349 -36 403 -40 q 267 -17 298 -32 q 228 2 236 -2 q 206 6 220 6 q 178 -6 188 6 q 163 -38 167 -18 l 85 -38 m 327 1349 l 526 1411 l 526 1347 l 327 1238 l 127 1347 l 127 1411 l 327 1349 z "},"ş":{"ha":688,"x_min":85,"x_max":615,"o":"m 355 728 q 415 649 377 698 q 563 427 512 520 q 615 230 615 333 q 575 82 615 143 q 479 -7 536 22 q 369 -36 423 -36 l 355 -63 q 415 -102 385 -73 q 444 -183 444 -131 q 408 -271 444 -238 q 319 -304 371 -304 q 259 -291 288 -304 q 212 -250 230 -278 l 240 -218 q 304 -238 274 -238 q 350 -221 333 -238 q 367 -175 367 -204 q 337 -119 367 -137 q 268 -97 308 -101 l 300 -28 q 257 -12 278 -22 q 228 2 236 -2 q 206 6 220 6 q 178 -6 188 6 q 163 -38 167 -18 l 85 -38 l 85 290 l 173 290 q 217 130 173 198 q 339 62 262 62 q 438 101 391 62 q 484 220 484 141 q 438 383 484 306 q 294 589 393 460 q 150 798 196 714 q 103 970 103 881 q 157 1121 103 1071 q 280 1173 210 1171 q 345 1171 319 1177 q 388 1158 371 1165 q 411 1149 405 1151 q 433 1145 423 1145 q 480 1183 472 1145 l 538 1183 l 538 895 l 470 895 q 432 1029 470 968 q 325 1089 393 1089 q 256 1062 282 1089 q 230 986 230 1034 q 253 890 230 937 q 355 728 276 843 z "},"ș":{"ha":688,"x_min":85,"x_max":615,"o":"m 85 -38 l 85 290 l 173 290 q 217 130 173 198 q 339 62 262 62 q 438 101 391 62 q 484 220 484 141 q 438 383 484 306 q 294 589 393 460 q 150 798 196 714 q 103 970 103 881 q 157 1121 103 1071 q 280 1173 210 1171 q 345 1171 319 1177 q 388 1158 371 1165 q 411 1149 405 1151 q 433 1145 423 1145 q 480 1183 472 1145 l 538 1183 l 538 895 l 470 895 q 432 1029 470 968 q 325 1089 393 1089 q 256 1062 282 1089 q 230 986 230 1034 q 253 890 230 937 q 355 728 276 843 q 415 649 377 698 q 563 427 512 520 q 615 230 615 333 q 571 75 615 137 q 465 -13 528 14 q 349 -36 403 -40 q 267 -17 298 -32 q 228 2 236 -2 q 206 6 220 6 q 178 -6 188 6 q 163 -38 167 -18 l 85 -38 m 282 -349 q 312 -260 312 -300 q 271 -231 288 -252 q 254 -185 254 -210 q 277 -130 254 -153 q 329 -107 300 -107 q 387 -135 363 -107 q 411 -196 411 -163 q 389 -276 411 -240 q 337 -331 367 -312 q 282 -349 308 -351 z "},"ß":{"ha":1369,"x_min":85,"x_max":1296,"o":"m 85 -38 l 85 290 l 173 290 q 217 130 173 198 q 339 62 262 62 q 438 101 391 62 q 484 220 484 141 q 438 383 484 306 q 294 589 393 460 q 150 798 196 714 q 103 970 103 881 q 157 1121 103 1071 q 280 1173 210 1171 q 345 1171 319 1177 q 388 1158 371 1165 q 411 1149 405 1151 q 433 1145 423 1145 q 480 1183 472 1145 l 538 1183 l 538 895 l 470 895 q 432 1029 470 968 q 325 1089 393 1089 q 256 1062 282 1089 q 230 986 230 1034 q 253 890 230 937 q 355 728 276 843 q 415 649 377 698 q 563 427 512 520 q 615 230 615 333 q 571 75 615 137 q 465 -13 528 14 q 349 -36 403 -40 q 267 -17 298 -32 q 228 2 236 -2 q 206 6 220 6 q 178 -6 188 6 q 163 -38 167 -18 l 85 -38 m 766 -38 l 766 290 l 853 290 q 898 130 853 198 q 1020 62 942 62 q 1118 101 1071 62 q 1165 220 1165 141 q 1119 383 1165 306 q 974 589 1073 460 q 830 798 877 714 q 784 970 784 881 q 837 1121 784 1071 q 960 1173 891 1171 q 1026 1171 1000 1177 q 1068 1158 1052 1165 q 1091 1149 1085 1151 q 1113 1145 1103 1145 q 1161 1183 1153 1145 l 1218 1183 l 1218 895 l 1151 895 q 1112 1029 1151 968 q 1006 1089 1073 1089 q 937 1062 962 1089 q 911 986 911 1034 q 934 890 911 937 q 1036 728 956 843 q 1095 649 1058 698 q 1244 427 1192 520 q 1296 230 1296 333 q 1252 75 1296 137 q 1146 -13 1208 14 q 1030 -36 1083 -40 q 947 -17 978 -32 q 909 2 917 -2 q 887 6 901 6 q 858 -6 869 6 q 843 -38 847 -18 l 766 -38 z "},"t":{"ha":802,"x_min":79,"x_max":722,"o":"m 722 944 l 641 944 l 641 966 q 622 1049 641 1024 q 552 1073 603 1073 l 460 1073 l 460 113 q 472 86 460 97 q 500 75 484 75 l 540 75 l 540 0 l 262 0 l 262 75 l 302 75 q 328 87 317 75 q 339 113 339 99 l 339 1073 l 246 1073 q 180 1047 198 1073 q 161 966 161 1020 l 161 944 l 79 944 l 79 1157 l 722 1157 l 722 944 z "},"ŧ":{"ha":802,"x_min":79,"x_max":722,"o":"m 722 944 l 641 944 l 641 966 q 622 1049 641 1024 q 552 1073 603 1073 l 460 1073 l 460 661 l 591 661 l 591 546 l 460 546 l 460 113 q 472 86 460 97 q 500 75 484 75 l 540 75 l 540 0 l 262 0 l 262 75 l 302 75 q 328 87 317 75 q 339 113 339 99 l 339 546 l 206 546 l 206 661 l 339 661 l 339 1073 l 246 1073 q 180 1047 198 1073 q 161 966 161 1020 l 161 944 l 79 944 l 79 1157 l 722 1157 l 722 944 z "},"ť":{"ha":1000,"x_min":79,"x_max":976,"o":"m 722 944 l 641 944 l 641 966 q 622 1049 641 1024 q 552 1073 603 1073 l 460 1073 l 460 113 q 472 86 460 97 q 500 75 484 75 l 540 75 l 540 0 l 262 0 l 262 75 l 302 75 q 328 87 317 75 q 339 113 339 99 l 339 1073 l 246 1073 q 180 1047 198 1073 q 161 966 161 1020 l 161 944 l 79 944 l 79 1157 l 722 1157 l 722 944 m 851 933 q 867 964 853 937 q 881 1020 881 992 q 840 1048 857 1028 q 823 1093 823 1067 q 845 1146 823 1123 q 897 1169 867 1169 q 953 1142 931 1169 q 976 1081 976 1115 q 955 1004 976 1038 q 905 950 935 970 q 851 933 875 931 z "},"ţ":{"ha":802,"x_min":79,"x_max":722,"o":"m 722 944 l 641 944 l 641 966 q 622 1049 641 1024 q 552 1073 603 1073 l 460 1073 l 460 113 q 472 86 460 97 q 500 75 484 75 l 540 75 l 540 0 l 442 0 l 423 -38 q 482 -76 452 -48 q 512 -157 512 -105 q 475 -245 512 -212 q 387 -278 438 -278 q 326 -265 355 -278 q 280 -224 298 -252 l 308 -192 q 371 -212 341 -212 q 418 -195 401 -212 q 435 -149 435 -179 q 405 -93 435 -111 q 335 -71 375 -75 l 367 0 l 262 0 l 262 75 l 302 75 q 328 87 317 75 q 339 113 339 99 l 339 1073 l 246 1073 q 180 1047 198 1073 q 161 966 161 1020 l 161 944 l 79 944 l 79 1157 l 722 1157 l 722 944 z "},"ț":{"ha":802,"x_min":79,"x_max":722,"o":"m 722 944 l 641 944 l 641 966 q 622 1049 641 1024 q 552 1073 603 1073 l 460 1073 l 460 113 q 472 86 460 97 q 500 75 484 75 l 540 75 l 540 0 l 262 0 l 262 75 l 302 75 q 328 87 317 75 q 339 113 339 99 l 339 1073 l 246 1073 q 180 1047 198 1073 q 161 966 161 1020 l 161 944 l 79 944 l 79 1157 l 722 1157 l 722 944 m 349 -323 q 379 -234 379 -274 q 338 -205 355 -226 q 321 -159 321 -185 q 344 -104 321 -127 q 397 -81 367 -81 q 454 -109 431 -81 q 478 -171 478 -137 q 456 -250 478 -214 q 405 -306 435 -286 q 349 -323 375 -325 z "},"u":{"ha":895,"x_min":83,"x_max":813,"o":"m 454 -34 q 307 4 375 -34 q 196 116 238 42 q 155 294 155 190 l 155 1020 q 141 1068 155 1054 q 95 1083 127 1083 l 83 1083 l 83 1157 l 357 1157 l 357 1083 l 347 1083 q 282 1020 282 1083 l 282 310 q 330 127 282 192 q 466 62 379 62 q 595 117 548 62 q 643 288 643 173 l 643 1020 q 631 1068 643 1054 q 589 1083 619 1083 l 577 1083 l 577 1157 l 813 1157 l 813 1083 l 802 1083 q 734 1020 734 1083 l 734 290 q 655 51 734 135 q 454 -34 575 -34 z "},"ú":{"ha":895,"x_min":83,"x_max":813,"o":"m 454 -34 q 307 4 375 -34 q 196 116 238 42 q 155 294 155 190 l 155 1020 q 141 1068 155 1054 q 95 1083 127 1083 l 83 1083 l 83 1157 l 357 1157 l 357 1083 l 347 1083 q 282 1020 282 1083 l 282 310 q 330 127 282 192 q 466 62 379 62 q 595 117 548 62 q 643 288 643 173 l 643 1020 q 631 1068 643 1054 q 589 1083 619 1083 l 577 1083 l 577 1157 l 813 1157 l 813 1083 l 802 1083 q 734 1020 734 1083 l 734 290 q 655 51 734 135 q 454 -34 575 -34 m 605 1369 l 361 1226 l 325 1276 l 544 1452 l 605 1369 z "},"ǔ":{"ha":895,"x_min":83,"x_max":813,"o":"m 454 -34 q 307 4 375 -34 q 196 116 238 42 q 155 294 155 190 l 155 1020 q 141 1068 155 1054 q 95 1083 127 1083 l 83 1083 l 83 1157 l 357 1157 l 357 1083 l 347 1083 q 282 1020 282 1083 l 282 310 q 330 127 282 192 q 466 62 379 62 q 595 117 548 62 q 643 288 643 173 l 643 1020 q 631 1068 643 1054 q 589 1083 619 1083 l 577 1083 l 577 1157 l 813 1157 l 813 1083 l 802 1083 q 734 1020 734 1083 l 734 290 q 655 51 734 135 q 454 -34 575 -34 m 466 1337 l 665 1399 l 665 1335 l 466 1226 l 266 1335 l 266 1399 l 466 1337 z "},"û":{"ha":895,"x_min":83,"x_max":813,"o":"m 454 -34 q 307 4 375 -34 q 196 116 238 42 q 155 294 155 190 l 155 1020 q 141 1068 155 1054 q 95 1083 127 1083 l 83 1083 l 83 1157 l 357 1157 l 357 1083 l 347 1083 q 282 1020 282 1083 l 282 310 q 330 127 282 192 q 466 62 379 62 q 595 117 548 62 q 643 288 643 173 l 643 1020 q 631 1068 643 1054 q 589 1083 619 1083 l 577 1083 l 577 1157 l 813 1157 l 813 1083 l 802 1083 q 734 1020 734 1083 l 734 290 q 655 51 734 135 q 454 -34 575 -34 m 466 1290 l 268 1228 l 268 1292 l 466 1401 l 667 1292 l 667 1228 l 466 1290 z "},"ü":{"ha":895,"x_min":83,"x_max":813,"o":"m 454 -34 q 307 4 375 -34 q 196 116 238 42 q 155 294 155 190 l 155 1020 q 141 1068 155 1054 q 95 1083 127 1083 l 83 1083 l 83 1157 l 357 1157 l 357 1083 l 347 1083 q 282 1020 282 1083 l 282 310 q 330 127 282 192 q 466 62 379 62 q 595 117 548 62 q 643 288 643 173 l 643 1020 q 631 1068 643 1054 q 589 1083 619 1083 l 577 1083 l 577 1157 l 813 1157 l 813 1083 l 802 1083 q 734 1020 734 1083 l 734 290 q 655 51 734 135 q 454 -34 575 -34 m 325 1238 q 268 1263 292 1238 q 244 1321 244 1288 q 268 1379 244 1355 q 325 1403 292 1403 q 382 1379 357 1403 q 407 1321 407 1355 q 383 1263 407 1288 q 325 1238 359 1238 m 609 1238 q 552 1263 575 1238 q 528 1321 528 1288 q 552 1379 528 1355 q 609 1403 575 1403 q 666 1379 641 1403 q 690 1321 690 1355 q 667 1263 690 1288 q 609 1238 643 1238 z "},"ǘ":{"ha":895,"x_min":83,"x_max":813,"o":"m 454 -34 q 307 4 375 -34 q 196 116 238 42 q 155 294 155 190 l 155 1020 q 141 1068 155 1054 q 95 1083 127 1083 l 83 1083 l 83 1157 l 357 1157 l 357 1083 l 347 1083 q 282 1020 282 1083 l 282 310 q 330 127 282 192 q 466 62 379 62 q 595 117 548 62 q 643 288 643 173 l 643 1020 q 631 1068 643 1054 q 589 1083 619 1083 l 577 1083 l 577 1157 l 813 1157 l 813 1083 l 802 1083 q 734 1020 734 1083 l 734 290 q 655 51 734 135 q 454 -34 575 -34 z "},"ǚ":{"ha":895,"x_min":83,"x_max":813,"o":"m 454 -34 q 307 4 375 -34 q 196 116 238 42 q 155 294 155 190 l 155 1020 q 141 1068 155 1054 q 95 1083 127 1083 l 83 1083 l 83 1157 l 357 1157 l 357 1083 l 347 1083 q 282 1020 282 1083 l 282 310 q 330 127 282 192 q 466 62 379 62 q 595 117 548 62 q 643 288 643 173 l 643 1020 q 631 1068 643 1054 q 589 1083 619 1083 l 577 1083 l 577 1157 l 813 1157 l 813 1083 l 802 1083 q 734 1020 734 1083 l 734 290 q 655 51 734 135 q 454 -34 575 -34 z "},"ǜ":{"ha":895,"x_min":83,"x_max":813,"o":"m 454 -34 q 307 4 375 -34 q 196 116 238 42 q 155 294 155 190 l 155 1020 q 141 1068 155 1054 q 95 1083 127 1083 l 83 1083 l 83 1157 l 357 1157 l 357 1083 l 347 1083 q 282 1020 282 1083 l 282 310 q 330 127 282 192 q 466 62 379 62 q 595 117 548 62 q 643 288 643 173 l 643 1020 q 631 1068 643 1054 q 589 1083 619 1083 l 577 1083 l 577 1157 l 813 1157 l 813 1083 l 802 1083 q 734 1020 734 1083 l 734 290 q 655 51 734 135 q 454 -34 575 -34 z "},"ǖ":{"ha":895,"x_min":83,"x_max":813,"o":"m 454 -34 q 307 4 375 -34 q 196 116 238 42 q 155 294 155 190 l 155 1020 q 141 1068 155 1054 q 95 1083 127 1083 l 83 1083 l 83 1157 l 357 1157 l 357 1083 l 347 1083 q 282 1020 282 1083 l 282 310 q 330 127 282 192 q 466 62 379 62 q 595 117 548 62 q 643 288 643 173 l 643 1020 q 631 1068 643 1054 q 589 1083 619 1083 l 577 1083 l 577 1157 l 813 1157 l 813 1083 l 802 1083 q 734 1020 734 1083 l 734 290 q 655 51 734 135 q 454 -34 575 -34 z "},"ụ":{"ha":895,"x_min":83,"x_max":813,"o":"m 454 -34 q 307 4 375 -34 q 196 116 238 42 q 155 294 155 190 l 155 1020 q 141 1068 155 1054 q 95 1083 127 1083 l 83 1083 l 83 1157 l 357 1157 l 357 1083 l 347 1083 q 282 1020 282 1083 l 282 310 q 330 127 282 192 q 466 62 379 62 q 595 117 548 62 q 643 288 643 173 l 643 1020 q 631 1068 643 1054 q 589 1083 619 1083 l 577 1083 l 577 1157 l 813 1157 l 813 1083 l 802 1083 q 734 1020 734 1083 l 734 290 q 655 51 734 135 q 454 -34 575 -34 m 466 -268 q 409 -243 433 -268 q 385 -185 385 -218 q 409 -128 385 -153 q 466 -103 433 -103 q 523 -128 498 -103 q 548 -185 548 -153 q 524 -243 548 -218 q 466 -268 500 -268 z "},"ù":{"ha":895,"x_min":83,"x_max":813,"o":"m 454 -34 q 307 4 375 -34 q 196 116 238 42 q 155 294 155 190 l 155 1020 q 141 1068 155 1054 q 95 1083 127 1083 l 83 1083 l 83 1157 l 357 1157 l 357 1083 l 347 1083 q 282 1020 282 1083 l 282 310 q 330 127 282 192 q 466 62 379 62 q 595 117 548 62 q 643 288 643 173 l 643 1020 q 631 1068 643 1054 q 589 1083 619 1083 l 577 1083 l 577 1157 l 813 1157 l 813 1083 l 802 1083 q 734 1020 734 1083 l 734 290 q 655 51 734 135 q 454 -34 575 -34 m 605 1276 l 569 1226 l 325 1369 l 387 1452 l 605 1276 z "},"ủ":{"ha":895,"x_min":83,"x_max":813,"o":"m 454 -34 q 307 4 375 -34 q 196 116 238 42 q 155 294 155 190 l 155 1020 q 141 1068 155 1054 q 95 1083 127 1083 l 83 1083 l 83 1157 l 357 1157 l 357 1083 l 347 1083 q 282 1020 282 1083 l 282 310 q 330 127 282 192 q 466 62 379 62 q 595 117 548 62 q 643 288 643 173 l 643 1020 q 631 1068 643 1054 q 589 1083 619 1083 l 577 1083 l 577 1157 l 813 1157 l 813 1083 l 802 1083 q 734 1020 734 1083 l 734 290 q 655 51 734 135 q 454 -34 575 -34 m 438 1224 q 456 1278 442 1258 q 492 1317 470 1298 q 517 1344 508 1331 q 526 1375 526 1357 q 508 1421 526 1405 q 464 1437 490 1437 q 403 1409 425 1437 l 371 1460 q 424 1498 393 1484 q 486 1512 454 1512 q 575 1476 540 1512 q 607 1399 607 1444 q 588 1331 607 1365 q 536 1274 569 1298 q 507 1251 518 1262 q 494 1224 496 1240 l 438 1224 z "},"ư":{"ha":895,"x_min":83,"x_max":935,"o":"m 921 1230 q 935 1187 935 1210 q 924 1146 935 1167 q 895 1111 913 1125 q 813 1083 859 1087 l 802 1083 q 734 1020 734 1083 l 734 290 q 655 51 734 135 q 454 -34 575 -34 q 307 4 375 -34 q 196 116 238 42 q 155 294 155 190 l 155 1020 q 141 1068 155 1054 q 95 1083 127 1083 l 83 1083 l 83 1157 l 357 1157 l 357 1083 l 347 1083 q 282 1020 282 1083 l 282 310 q 330 127 282 192 q 466 62 379 62 q 595 117 548 62 q 643 288 643 173 l 643 1020 q 631 1068 643 1054 q 589 1083 619 1083 l 577 1083 l 577 1157 l 792 1157 q 786 1185 786 1173 q 815 1244 786 1220 q 859 1258 835 1258 q 921 1230 897 1258 z "},"ứ":{"ha":895,"x_min":83,"x_max":935,"o":"m 921 1230 q 935 1187 935 1210 q 924 1146 935 1167 q 895 1111 913 1125 q 813 1083 859 1087 l 802 1083 q 734 1020 734 1083 l 734 290 q 655 51 734 135 q 454 -34 575 -34 q 307 4 375 -34 q 196 116 238 42 q 155 294 155 190 l 155 1020 q 141 1068 155 1054 q 95 1083 127 1083 l 83 1083 l 83 1157 l 357 1157 l 357 1083 l 347 1083 q 282 1020 282 1083 l 282 310 q 330 127 282 192 q 466 62 379 62 q 595 117 548 62 q 643 288 643 173 l 643 1020 q 631 1068 643 1054 q 589 1083 619 1083 l 577 1083 l 577 1157 l 792 1157 q 786 1185 786 1173 q 815 1244 786 1220 q 859 1258 835 1258 q 921 1230 897 1258 m 605 1369 l 361 1226 l 325 1276 l 544 1452 l 605 1369 z "},"ự":{"ha":895,"x_min":83,"x_max":935,"o":"m 921 1230 q 935 1187 935 1210 q 924 1146 935 1167 q 895 1111 913 1125 q 813 1083 859 1087 l 802 1083 q 734 1020 734 1083 l 734 290 q 655 51 734 135 q 454 -34 575 -34 q 307 4 375 -34 q 196 116 238 42 q 155 294 155 190 l 155 1020 q 141 1068 155 1054 q 95 1083 127 1083 l 83 1083 l 83 1157 l 357 1157 l 357 1083 l 347 1083 q 282 1020 282 1083 l 282 310 q 330 127 282 192 q 466 62 379 62 q 595 117 548 62 q 643 288 643 173 l 643 1020 q 631 1068 643 1054 q 589 1083 619 1083 l 577 1083 l 577 1157 l 792 1157 q 786 1185 786 1173 q 815 1244 786 1220 q 859 1258 835 1258 q 921 1230 897 1258 m 466 -268 q 409 -243 433 -268 q 385 -185 385 -218 q 409 -128 385 -153 q 466 -103 433 -103 q 523 -128 498 -103 q 548 -185 548 -153 q 524 -243 548 -218 q 466 -268 500 -268 z "},"ừ":{"ha":895,"x_min":83,"x_max":935,"o":"m 921 1230 q 935 1187 935 1210 q 924 1146 935 1167 q 895 1111 913 1125 q 813 1083 859 1087 l 802 1083 q 734 1020 734 1083 l 734 290 q 655 51 734 135 q 454 -34 575 -34 q 307 4 375 -34 q 196 116 238 42 q 155 294 155 190 l 155 1020 q 141 1068 155 1054 q 95 1083 127 1083 l 83 1083 l 83 1157 l 357 1157 l 357 1083 l 347 1083 q 282 1020 282 1083 l 282 310 q 330 127 282 192 q 466 62 379 62 q 595 117 548 62 q 643 288 643 173 l 643 1020 q 631 1068 643 1054 q 589 1083 619 1083 l 577 1083 l 577 1157 l 792 1157 q 786 1185 786 1173 q 815 1244 786 1220 q 859 1258 835 1258 q 921 1230 897 1258 m 605 1276 l 569 1226 l 325 1369 l 387 1452 l 605 1276 z "},"ử":{"ha":895,"x_min":83,"x_max":935,"o":"m 921 1230 q 935 1187 935 1210 q 924 1146 935 1167 q 895 1111 913 1125 q 813 1083 859 1087 l 802 1083 q 734 1020 734 1083 l 734 290 q 655 51 734 135 q 454 -34 575 -34 q 307 4 375 -34 q 196 116 238 42 q 155 294 155 190 l 155 1020 q 141 1068 155 1054 q 95 1083 127 1083 l 83 1083 l 83 1157 l 357 1157 l 357 1083 l 347 1083 q 282 1020 282 1083 l 282 310 q 330 127 282 192 q 466 62 379 62 q 595 117 548 62 q 643 288 643 173 l 643 1020 q 631 1068 643 1054 q 589 1083 619 1083 l 577 1083 l 577 1157 l 792 1157 q 786 1185 786 1173 q 815 1244 786 1220 q 859 1258 835 1258 q 921 1230 897 1258 m 438 1224 q 456 1278 442 1258 q 492 1317 470 1298 q 517 1344 508 1331 q 526 1375 526 1357 q 508 1421 526 1405 q 464 1437 490 1437 q 403 1409 425 1437 l 371 1460 q 424 1498 393 1484 q 486 1512 454 1512 q 575 1476 540 1512 q 607 1399 607 1444 q 588 1331 607 1365 q 536 1274 569 1298 q 507 1251 518 1262 q 494 1224 496 1240 l 438 1224 z "},"ữ":{"ha":895,"x_min":83,"x_max":935,"o":"m 921 1230 q 935 1187 935 1210 q 924 1146 935 1167 q 895 1111 913 1125 q 813 1083 859 1087 l 802 1083 q 734 1020 734 1083 l 734 290 q 655 51 734 135 q 454 -34 575 -34 q 307 4 375 -34 q 196 116 238 42 q 155 294 155 190 l 155 1020 q 141 1068 155 1054 q 95 1083 127 1083 l 83 1083 l 83 1157 l 357 1157 l 357 1083 l 347 1083 q 282 1020 282 1083 l 282 310 q 330 127 282 192 q 466 62 379 62 q 595 117 548 62 q 643 288 643 173 l 643 1020 q 631 1068 643 1054 q 589 1083 619 1083 l 577 1083 l 577 1157 l 792 1157 q 786 1185 786 1173 q 815 1244 786 1220 q 859 1258 835 1258 q 921 1230 897 1258 m 260 1290 q 377 1353 286 1353 q 478 1335 427 1353 q 591 1310 556 1310 q 663 1343 637 1310 l 673 1288 q 621 1240 655 1256 q 544 1224 587 1224 q 450 1242 490 1224 q 343 1270 391 1270 q 270 1236 296 1270 l 260 1290 z "},"ű":{"ha":895,"x_min":83,"x_max":813,"o":"m 454 -34 q 307 4 375 -34 q 196 116 238 42 q 155 294 155 190 l 155 1020 q 141 1068 155 1054 q 95 1083 127 1083 l 83 1083 l 83 1157 l 357 1157 l 357 1083 l 347 1083 q 282 1020 282 1083 l 282 310 q 330 127 282 192 q 466 62 379 62 q 595 117 548 62 q 643 288 643 173 l 643 1020 q 631 1068 643 1054 q 589 1083 619 1083 l 577 1083 l 577 1157 l 813 1157 l 813 1083 l 802 1083 q 734 1020 734 1083 l 734 290 q 655 51 734 135 q 454 -34 575 -34 z "},"ū":{"ha":895,"x_min":83,"x_max":813,"o":"m 454 -34 q 307 4 375 -34 q 196 116 238 42 q 155 294 155 190 l 155 1020 q 141 1068 155 1054 q 95 1083 127 1083 l 83 1083 l 83 1157 l 357 1157 l 357 1083 l 347 1083 q 282 1020 282 1083 l 282 310 q 330 127 282 192 q 466 62 379 62 q 595 117 548 62 q 643 288 643 173 l 643 1020 q 631 1068 643 1054 q 589 1083 619 1083 l 577 1083 l 577 1157 l 813 1157 l 813 1083 l 802 1083 q 734 1020 734 1083 l 734 290 q 655 51 734 135 q 454 -34 575 -34 m 651 1276 l 284 1276 l 284 1367 l 651 1367 l 651 1276 z "},"ų":{"ha":895,"x_min":83,"x_max":813,"o":"m 577 1157 l 813 1157 l 813 1083 l 802 1083 q 734 1020 734 1083 l 734 290 q 675 75 734 157 q 518 -28 615 -6 q 457 -76 482 -46 q 433 -143 433 -107 q 451 -193 433 -175 q 500 -212 470 -212 q 560 -194 530 -212 l 583 -226 q 474 -282 540 -282 q 387 -250 423 -282 q 351 -165 351 -218 q 427 -32 351 -81 q 234 64 313 -22 q 155 294 155 151 l 155 1020 q 141 1068 155 1054 q 95 1083 127 1083 l 83 1083 l 83 1157 l 357 1157 l 357 1083 l 347 1083 q 282 1020 282 1083 l 282 310 q 330 127 282 192 q 466 62 379 62 q 595 117 548 62 q 643 288 643 173 l 643 1020 q 631 1068 643 1054 q 589 1083 619 1083 l 577 1083 l 577 1157 z "},"ů":{"ha":895,"x_min":83,"x_max":813,"o":"m 466 1190 q 357 1238 405 1190 q 310 1345 310 1286 q 357 1454 310 1409 q 466 1500 405 1500 q 571 1452 524 1500 q 619 1345 619 1405 q 572 1236 619 1282 q 466 1190 526 1190 m 462 1262 q 523 1284 498 1262 q 548 1341 548 1306 q 526 1403 548 1377 q 470 1429 504 1429 q 408 1406 435 1429 q 381 1349 381 1383 q 404 1288 381 1313 q 462 1262 427 1262 m 454 -34 q 307 4 375 -34 q 196 116 238 42 q 155 294 155 190 l 155 1020 q 141 1068 155 1054 q 95 1083 127 1083 l 83 1083 l 83 1157 l 357 1157 l 357 1083 l 347 1083 q 282 1020 282 1083 l 282 310 q 330 127 282 192 q 466 62 379 62 q 595 117 548 62 q 643 288 643 173 l 643 1020 q 631 1068 643 1054 q 589 1083 619 1083 l 577 1083 l 577 1157 l 813 1157 l 813 1083 l 802 1083 q 734 1020 734 1083 l 734 290 q 655 51 734 135 q 454 -34 575 -34 z "},"ũ":{"ha":895,"x_min":83,"x_max":813,"o":"m 454 -34 q 307 4 375 -34 q 196 116 238 42 q 155 294 155 190 l 155 1020 q 141 1068 155 1054 q 95 1083 127 1083 l 83 1083 l 83 1157 l 357 1157 l 357 1083 l 347 1083 q 282 1020 282 1083 l 282 310 q 330 127 282 192 q 466 62 379 62 q 595 117 548 62 q 643 288 643 173 l 643 1020 q 631 1068 643 1054 q 589 1083 619 1083 l 577 1083 l 577 1157 l 813 1157 l 813 1083 l 802 1083 q 734 1020 734 1083 l 734 290 q 655 51 734 135 q 454 -34 575 -34 m 260 1290 q 377 1353 286 1353 q 478 1335 427 1353 q 591 1310 556 1310 q 663 1343 637 1310 l 673 1288 q 621 1240 655 1256 q 544 1224 587 1224 q 450 1242 490 1224 q 343 1270 391 1270 q 270 1236 296 1270 l 260 1290 z "},"v":{"ha":911,"x_min":58,"x_max":853,"o":"m 143 1034 q 116 1075 133 1067 q 69 1083 99 1083 l 58 1083 l 58 1157 l 345 1157 l 345 1083 l 306 1083 q 264 1056 264 1083 q 268 1036 264 1052 l 478 331 l 669 1030 q 671 1046 671 1036 q 619 1083 671 1083 l 589 1083 l 589 1157 l 853 1157 l 853 1083 l 839 1083 q 784 1076 800 1083 q 760 1042 768 1069 l 468 -30 l 460 -30 l 143 1034 z "},"w":{"ha":1196,"x_min":58,"x_max":1139,"o":"m 159 1010 q 135 1066 149 1050 q 99 1083 121 1083 l 58 1083 l 58 1157 l 349 1157 l 349 1083 l 304 1083 q 268 1058 268 1083 l 272 1040 l 442 371 l 615 1159 l 621 1159 l 819 389 l 964 1038 q 966 1052 966 1044 q 925 1083 966 1083 l 885 1083 l 885 1157 l 1139 1157 l 1139 1083 q 1077 1072 1099 1083 q 1048 1030 1056 1062 l 808 -40 l 800 -40 l 605 712 l 435 -48 l 429 -48 l 159 1010 z "},"ẃ":{"ha":1196,"x_min":58,"x_max":1139,"o":"m 159 1010 q 135 1066 149 1050 q 99 1083 121 1083 l 58 1083 l 58 1157 l 349 1157 l 349 1083 l 304 1083 q 268 1058 268 1083 l 272 1040 l 442 371 l 615 1159 l 621 1159 l 819 389 l 964 1038 q 966 1052 966 1044 q 925 1083 966 1083 l 885 1083 l 885 1157 l 1139 1157 l 1139 1083 q 1077 1072 1099 1083 q 1048 1030 1056 1062 l 808 -40 l 800 -40 l 605 712 l 435 -48 l 429 -48 l 159 1010 m 758 1371 l 514 1228 l 478 1278 l 696 1454 l 758 1371 z "},"ŵ":{"ha":1196,"x_min":58,"x_max":1139,"o":"m 159 1010 q 135 1066 149 1050 q 99 1083 121 1083 l 58 1083 l 58 1157 l 349 1157 l 349 1083 l 304 1083 q 268 1058 268 1083 l 272 1040 l 442 371 l 615 1159 l 621 1159 l 819 389 l 964 1038 q 966 1052 966 1044 q 925 1083 966 1083 l 885 1083 l 885 1157 l 1139 1157 l 1139 1083 q 1077 1072 1099 1083 q 1048 1030 1056 1062 l 808 -40 l 800 -40 l 605 712 l 435 -48 l 429 -48 l 159 1010 m 619 1292 l 421 1230 l 421 1294 l 619 1403 l 819 1294 l 819 1230 l 619 1292 z "},"ẅ":{"ha":1196,"x_min":58,"x_max":1139,"o":"m 159 1010 q 135 1066 149 1050 q 99 1083 121 1083 l 58 1083 l 58 1157 l 349 1157 l 349 1083 l 304 1083 q 268 1058 268 1083 l 272 1040 l 442 371 l 615 1159 l 621 1159 l 819 389 l 964 1038 q 966 1052 966 1044 q 925 1083 966 1083 l 885 1083 l 885 1157 l 1139 1157 l 1139 1083 q 1077 1072 1099 1083 q 1048 1030 1056 1062 l 808 -40 l 800 -40 l 605 712 l 435 -48 l 429 -48 l 159 1010 m 478 1240 q 421 1265 444 1240 q 397 1323 397 1290 q 421 1381 397 1357 q 478 1405 444 1405 q 535 1381 510 1405 q 560 1323 560 1357 q 536 1265 560 1290 q 478 1240 512 1240 m 762 1240 q 704 1265 728 1240 q 681 1323 681 1290 q 704 1381 681 1357 q 762 1405 728 1405 q 818 1381 794 1405 q 843 1323 843 1357 q 819 1265 843 1290 q 762 1240 796 1240 z "},"ẁ":{"ha":1196,"x_min":58,"x_max":1139,"o":"m 159 1010 q 135 1066 149 1050 q 99 1083 121 1083 l 58 1083 l 58 1157 l 349 1157 l 349 1083 l 304 1083 q 268 1058 268 1083 l 272 1040 l 442 371 l 615 1159 l 621 1159 l 819 389 l 964 1038 q 966 1052 966 1044 q 925 1083 966 1083 l 885 1083 l 885 1157 l 1139 1157 l 1139 1083 q 1077 1072 1099 1083 q 1048 1030 1056 1062 l 808 -40 l 800 -40 l 605 712 l 435 -48 l 429 -48 l 159 1010 m 758 1278 l 722 1228 l 478 1371 l 540 1454 l 758 1278 z "},"x":{"ha":879,"x_min":73,"x_max":798,"o":"m 798 73 l 798 0 l 520 0 l 520 73 l 550 73 q 579 103 579 73 q 571 137 579 113 l 425 508 l 252 125 q 246 99 246 113 q 276 73 246 73 l 313 73 l 313 0 l 73 0 l 73 73 l 101 73 q 146 92 129 73 q 179 147 163 111 l 385 607 l 212 1044 q 189 1077 200 1071 q 149 1083 179 1083 l 125 1083 l 125 1157 l 401 1157 l 401 1083 l 375 1083 q 343 1056 343 1083 q 349 1030 343 1046 l 454 762 l 579 1038 q 583 1056 583 1044 q 572 1076 583 1069 q 546 1083 562 1083 l 524 1083 l 524 1157 l 758 1157 l 758 1083 l 740 1083 q 690 1070 706 1083 q 659 1024 675 1058 l 494 663 l 696 153 q 728 94 712 115 q 772 73 744 73 l 798 73 z "},"y":{"ha":887,"x_min":58,"x_max":829,"o":"m 321 0 l 321 75 l 339 75 q 385 92 371 75 q 399 143 399 109 l 399 544 l 163 1014 q 123 1068 143 1054 q 73 1083 103 1083 l 58 1083 l 58 1157 l 335 1157 l 335 1083 l 319 1083 q 282 1063 282 1083 q 290 1040 282 1054 l 476 657 l 657 1044 q 661 1058 661 1056 q 613 1083 661 1083 l 599 1083 l 599 1157 l 829 1157 l 829 1083 l 808 1083 q 765 1073 780 1083 q 740 1044 750 1063 l 520 556 l 520 141 q 531 90 520 105 q 575 75 542 75 l 597 75 l 597 0 l 321 0 z "},"ý":{"ha":887,"x_min":58,"x_max":829,"o":"m 321 0 l 321 75 l 339 75 q 385 92 371 75 q 399 143 399 109 l 399 544 l 163 1014 q 123 1068 143 1054 q 73 1083 103 1083 l 58 1083 l 58 1157 l 335 1157 l 335 1083 l 319 1083 q 282 1063 282 1083 q 290 1040 282 1054 l 476 657 l 657 1044 q 661 1058 661 1056 q 613 1083 661 1083 l 599 1083 l 599 1157 l 829 1157 l 829 1083 l 808 1083 q 765 1073 780 1083 q 740 1044 750 1063 l 520 556 l 520 141 q 531 90 520 105 q 575 75 542 75 l 597 75 l 597 0 l 321 0 m 611 1369 l 367 1226 l 331 1276 l 550 1452 l 611 1369 z "}}}
